SourceCodePro-Italic_1.ufo
<glyph name="exclam" format="1">
  <advance width="599"/>
  <unicode hex="0021"/>
  <outline>
    <contour>
      <point x="300" y="259" type="line"/>
      <point x="403" y="259" type="line"/>
      <point x="481" y="531" type="line"/>
      <point x="513" y="670" type="line"/>
      <point x="355" y="670" type="line"/>
      <point x="335" y="531" type="line"/>
    </contour>
    <contour>
      <point x="334" y="198" type="curve" smooth="yes"/>
      <point x="264" y="198"/>
      <point x="216" y="138"/>
      <point x="216" y="78" type="curve" smooth="yes"/>
      <point x="216" y="26"/>
      <point x="250" y="-12"/>
      <point x="302" y="-12" type="curve" smooth="yes"/>
      <point x="372" y="-12"/>
      <point x="420" y="48"/>
      <point x="420" y="107" type="curve" smooth="yes"/>
      <point x="420" y="158"/>
      <point x="386" y="198"/>
    </contour>
  </outline>
</glyph>
<glyph name="numbersign" format="1">
  <advance width="599"/>
  <unicode hex="0023"/>
  <outline>
    <contour>
      <point x="118" y="0" type="line"/>
      <point x="209" y="0" type="line"/>
      <point x="268" y="184" type="line"/>
      <point x="367" y="184" type="line"/>
      <point x="307" y="0" type="line"/>
      <point x="398" y="0" type="line"/>
      <point x="458" y="184" type="line"/>
      <point x="553" y="184" type="line"/>
      <point x="573" y="284" type="line"/>
      <point x="489" y="284" type="line"/>
      <point x="523" y="388" type="line"/>
      <point x="614" y="388" type="line"/>
      <point x="634" y="488" type="line"/>
      <point x="555" y="488" type="line"/>
      <point x="607" y="650" type="line"/>
      <point x="517" y="650" type="line"/>
      <point x="464" y="488" type="line"/>
      <point x="366" y="488" type="line"/>
      <point x="417" y="650" type="line"/>
      <point x="328" y="650" type="line"/>
      <point x="275" y="488" type="line"/>
      <point x="185" y="488" type="line"/>
      <point x="165" y="388" type="line"/>
      <point x="242" y="388" type="line"/>
      <point x="208" y="284" type="line"/>
      <point x="124" y="284" type="line"/>
      <point x="104" y="184" type="line"/>
      <point x="177" y="184" type="line"/>
    </contour>
    <contour>
      <point x="299" y="284" type="line"/>
      <point x="333" y="388" type="line"/>
      <point x="432" y="388" type="line"/>
      <point x="398" y="284" type="line"/>
    </contour>
  </outline>
</glyph>
<glyph name="dollar" format="1">
  <advance width="600"/>
  <unicode hex="0024"/>
  <outline>
    <contour>
      <point x="368" y="569" type="line"/>
      <point x="471" y="569" type="line"/>
      <point x="504" y="745" type="line"/>
      <point x="401" y="745" type="line"/>
    </contour>
    <contour>
      <point x="84.0" y="116.0" type="line"/>
      <point x="133" y="65"/>
      <point x="225" y="34"/>
      <point x="305" y="34" type="curve" smooth="yes"/>
      <point x="466" y="34"/>
      <point x="571" y="93"/>
      <point x="571" y="217" type="curve" smooth="yes"/>
      <point x="571" y="308"/>
      <point x="502" y="347"/>
      <point x="422" y="384" type="curve" smooth="yes"/>
      <point x="364" y="411"/>
      <point x="330" y="426"/>
      <point x="330" y="454" type="curve" smooth="yes"/>
      <point x="330" y="480"/>
      <point x="356" y="491"/>
      <point x="399" y="491" type="curve" smooth="yes"/>
      <point x="453" y="491"/>
      <point x="498" y="473"/>
      <point x="539" y="441" type="curve"/>
      <point x="625" y="532" type="line"/>
      <point x="585" y="577"/>
      <point x="510" y="618"/>
      <point x="417" y="618" type="curve" smooth="yes"/>
      <point x="282" y="618"/>
      <point x="176" y="558"/>
      <point x="176" y="439" type="curve" smooth="yes"/>
      <point x="176" y="342"/>
      <point x="245" y="301"/>
      <point x="324" y="266" type="curve" smooth="yes"/>
      <point x="382" y="240"/>
      <point x="415.0" y="223.0"/>
      <point x="415" y="200" type="curve" smooth="yes"/>
      <point x="415" y="175"/>
      <point x="387" y="161"/>
      <point x="338" y="161" type="curve" smooth="yes"/>
      <point x="271" y="161"/>
      <point x="221" y="182"/>
      <point x="164" y="221" type="curve"/>
    </contour>
    <contour>
      <point x="272" y="99" type="line"/>
      <point x="230" y="-110" type="line"/>
      <point x="334" y="-110" type="line"/>
      <point x="376" y="99" type="line"/>
    </contour>
  </outline>
</glyph>
<glyph name="ampersand" format="1">
  <advance width="600"/>
  <unicode hex="0026"/>
  <outline>
    <contour>
      <point x="188" y="-12" type="curve" smooth="yes"/>
      <point x="286.463878327" y="-12.0"/>
      <point x="370" y="27"/>
      <point x="437" y="98" type="curve" smooth="yes"/>
      <point x="510.123620154" y="175.998528164"/>
      <point x="556.470318322" y="260.430742751"/>
      <point x="600" y="362" type="curve"/>
      <point x="460" y="362" type="line"/>
      <point x="430.380797459" y="287.474264574"/>
      <point x="399.373349206" y="220.891056299"/>
      <point x="342" y="168" type="curve" smooth="yes"/>
      <point x="298.448385403" y="128.235482324"/>
      <point x="255.6" y="108.0"/>
      <point x="216" y="108" type="curve" smooth="yes"/>
      <point x="175.958333333" y="108.0"/>
      <point x="154.0" y="134.0"/>
      <point x="154" y="170" type="curve" smooth="yes"/>
      <point x="154.0" y="298.0"/>
      <point x="458.0" y="314.0"/>
      <point x="458" y="522" type="curve" smooth="yes"/>
      <point x="458" y="608"/>
      <point x="406" y="662"/>
      <point x="314" y="662" type="curve" smooth="yes"/>
      <point x="188" y="662"/>
      <point x="110" y="572"/>
      <point x="110" y="466" type="curve" smooth="yes"/>
      <point x="110.0" y="340.0"/>
      <point x="205.351667554" y="177.907852616"/>
      <point x="329" y="78" type="curve" smooth="yes"/>
      <point x="386" y="32"/>
      <point x="451" y="0"/>
      <point x="514" y="-12" type="curve"/>
      <point x="576" y="114" type="line"/>
      <point x="540" y="122"/>
      <point x="486" y="140"/>
      <point x="440" y="173" type="curve" smooth="yes"/>
      <point x="339.331126516" y="245.047331023"/>
      <point x="242.0" y="365.0"/>
      <point x="242" y="470" type="curve" smooth="yes"/>
      <point x="242" y="526"/>
      <point x="270" y="558"/>
      <point x="304" y="558" type="curve" smooth="yes"/>
      <point x="322" y="558"/>
      <point x="334" y="546"/>
      <point x="334" y="525" type="curve" smooth="yes"/>
      <point x="334.0" y="380.0"/>
      <point x="0.0" y="376.0"/>
      <point x="0" y="154" type="curve" smooth="yes"/>
      <point x="0" y="56"/>
      <point x="68.0689655172" y="-12.0"/>
    </contour>
  </outline>
</glyph>
<glyph name="quotesingle" format="1">
  <advance width="600"/>
  <unicode hex="0027"/>
  <outline>
    <contour>
      <point x="311" y="295" type="line"/>
      <point x="407" y="295" type="line"/>
      <point x="491" y="534" type="line"/>
      <point x="527" y="684" type="line"/>
      <point x="348" y="684" type="line"/>
      <point x="323" y="534" type="line"/>
    </contour>
  </outline>
</glyph>
<glyph name="parenleft" format="1">
  <advance width="599"/>
  <unicode hex="0028"/>
  <outline>
    <contour>
      <point x="350" y="-179" type="curve"/>
      <point x="451" y="-110" type="line"/>
      <point x="382" y="-25"/>
      <point x="350" y="75"/>
      <point x="350" y="182" type="curve" smooth="yes"/>
      <point x="350" y="357"/>
      <point x="405" y="499"/>
      <point x="606" y="666" type="curve"/>
      <point x="532" y="735" type="line"/>
      <point x="344" y="591"/>
      <point x="219" y="408"/>
      <point x="219" y="180" type="curve" smooth="yes"/>
      <point x="219" y="40"/>
      <point x="268" y="-89"/>
    </contour>
  </outline>
</glyph>
<glyph name="parenright" format="1">
  <advance width="599"/>
  <unicode hex="0029"/>
  <outline>
    <contour>
      <point x="178" y="-179" type="line"/>
      <point x="367" y="-35"/>
      <point x="492" y="148"/>
      <point x="492" y="376" type="curve" smooth="yes"/>
      <point x="492" y="516"/>
      <point x="443" y="645"/>
      <point x="361" y="735" type="curve"/>
      <point x="260" y="666" type="line"/>
      <point x="329" y="581"/>
      <point x="361" y="481"/>
      <point x="361" y="374" type="curve" smooth="yes"/>
      <point x="361" y="199"/>
      <point x="306" y="57"/>
      <point x="105" y="-110" type="curve"/>
    </contour>
  </outline>
</glyph>
<glyph name="asterisk" format="1">
  <advance width="600"/>
  <unicode hex="002A"/>
  <outline>
    <contour>
      <point x="202" y="90" type="line"/>
      <point x="345" y="221" type="line"/>
      <point x="440" y="83" type="line"/>
      <point x="513" y="127" type="line"/>
      <point x="448" y="283" type="line"/>
      <point x="609" y="355" type="line"/>
      <point x="588" y="431" type="line"/>
      <point x="432" y="389" type="line"/>
      <point x="448" y="554" type="line"/>
      <point x="366" y="554" type="line"/>
      <point x="318" y="392" type="line"/>
      <point x="169" y="433" type="line"/>
      <point x="132" y="363" type="line"/>
      <point x="260" y="290" type="line"/>
      <point x="143" y="139" type="line"/>
    </contour>
  </outline>
</glyph>
<glyph name="plus" format="1">
  <advance width="600"/>
  <unicode hex="002B"/>
  <outline>
    <contour>
      <point x="275" y="103" type="line"/>
      <point x="333" y="103" type="line"/>
      <point x="333" y="302" type="line"/>
      <point x="512" y="302" type="line"/>
      <point x="512" y="359" type="line"/>
      <point x="333" y="359" type="line"/>
      <point x="333" y="554" type="line"/>
      <point x="275" y="554" type="line"/>
      <point x="275" y="359" type="line"/>
      <point x="95" y="359" type="line"/>
      <point x="95" y="302" type="line"/>
      <point x="275" y="302" type="line"/>
    </contour>
  </outline>
</glyph>
<glyph name="comma" format="1">
  <advance width="600"/>
  <unicode hex="002C"/>
  <outline>
    <contour>
      <point x="335" y="141" type="line"/>
      <point x="312" y="16" type="line"/>
      <point x="297" y="-52"/>
      <point x="237" y="-100"/>
      <point x="148" y="-127" type="curve"/>
      <point x="164" y="-206" type="line"/>
      <point x="330" y="-172"/>
      <point x="445" y="-55"/>
      <point x="445" y="97" type="curve" smooth="yes"/>
      <point x="445" y="179"/>
      <point x="404" y="225"/>
      <point x="343" y="225" type="curve" smooth="yes"/>
      <point x="271" y="225"/>
      <point x="212" y="170"/>
      <point x="212" y="100" type="curve" smooth="yes"/>
      <point x="212" y="43"/>
      <point x="253" y="7"/>
      <point x="298" y="7" type="curve" smooth="yes"/>
      <point x="332" y="7"/>
      <point x="354" y="24"/>
      <point x="369" y="34" type="curve"/>
    </contour>
  </outline>
</glyph>
<glyph name="period" format="1">
  <advance width="600"/>
  <unicode hex="002E"/>
  <outline>
    <contour>
      <point x="340" y="234" type="curve" smooth="yes"/>
      <point x="258" y="234"/>
      <point x="202" y="171"/>
      <point x="202" y="94" type="curve" smooth="yes"/>
      <point x="202" y="34"/>
      <point x="242" y="-12"/>
      <point x="302" y="-12" type="curve" smooth="yes"/>
      <point x="384" y="-12"/>
      <point x="440" y="51"/>
      <point x="440" y="128" type="curve" smooth="yes"/>
      <point x="440" y="188"/>
      <point x="400" y="234"/>
    </contour>
  </outline>
</glyph>
<glyph name="slash" format="1">
  <advance width="600"/>
  <unicode hex="002F"/>
  <outline>
    <contour>
      <point x="673" y="710" type="line"/>
      <point x="541" y="710" type="line"/>
      <point x="38" y="-160" type="line"/>
      <point x="169" y="-160" type="line"/>
    </contour>
  </outline>
</glyph>
<glyph name="zero" format="1">
  <advance width="600"/>
  <unicode hex="0030"/>
  <outline>
    <contour>
      <point x="256" y="-12" type="curve" smooth="yes"/>
      <point x="452" y="-12"/>
      <point x="570" y="172"/>
      <point x="570" y="392" type="curve" smooth="yes"/>
      <point x="570" y="548"/>
      <point x="480" y="646"/>
      <point x="348" y="646" type="curve" smooth="yes"/>
      <point x="152" y="646"/>
      <point x="34" y="462"/>
      <point x="34" y="242" type="curve" smooth="yes"/>
      <point x="34" y="86"/>
      <point x="124" y="-12"/>
    </contour>
    <contour>
      <point x="270" y="110" type="curve" smooth="yes"/>
      <point x="212" y="110"/>
      <point x="182" y="160"/>
      <point x="182" y="252" type="curve" smooth="yes"/>
      <point x="182" y="398"/>
      <point x="242" y="524"/>
      <point x="334" y="524" type="curve" smooth="yes"/>
      <point x="392" y="524"/>
      <point x="422" y="474"/>
      <point x="422" y="382" type="curve" smooth="yes"/>
      <point x="422" y="236"/>
      <point x="362" y="110"/>
    </contour>
    <contour>
      <point x="292" y="246" type="curve" smooth="yes"/>
      <point x="338" y="246"/>
      <point x="370" y="290"/>
      <point x="370" y="340" type="curve" smooth="yes"/>
      <point x="370" y="380"/>
      <point x="350" y="404"/>
      <point x="314" y="404" type="curve" smooth="yes"/>
      <point x="268" y="404"/>
      <point x="236" y="360"/>
      <point x="236" y="310" type="curve" smooth="yes"/>
      <point x="236" y="270"/>
      <point x="256" y="246"/>
    </contour>
  </outline>
</glyph>
<glyph name="one" format="1">
  <advance width="600"/>
  <unicode hex="0031"/>
  <outline>
    <contour>
      <point x="259" y="91" type="line"/>
      <point x="417" y="91" type="line"/>
      <point x="525" y="635" type="line"/>
      <point x="410" y="635" type="line"/>
      <point x="355" y="606"/>
      <point x="303" y="588"/>
      <point x="225" y="575" type="curve"/>
      <point x="206" y="477" type="line"/>
      <point x="336" y="477" type="line"/>
    </contour>
    <contour>
      <point x="79" y="0" type="line"/>
      <point x="539" y="0" type="line"/>
      <point x="565" y="127" type="line"/>
      <point x="104" y="127" type="line"/>
    </contour>
  </outline>
</glyph>
<glyph name="two" format="1">
  <advance width="600"/>
  <unicode hex="0032"/>
  <outline>
    <contour>
      <point x="68" y="0" type="line"/>
      <point x="551" y="0" type="line"/>
      <point x="577" y="128" type="line"/>
      <point x="427" y="128" type="line" smooth="yes"/>
      <point x="395" y="128"/>
      <point x="350" y="128"/>
      <point x="314" y="124" type="curve"/>
      <point x="513" y="262"/>
      <point x="599" y="354"/>
      <point x="599" y="482" type="curve" smooth="yes"/>
      <point x="599" y="594"/>
      <point x="525" y="646"/>
      <point x="418" y="646" type="curve" smooth="yes"/>
      <point x="308" y="646"/>
      <point x="234" y="613"/>
      <point x="165" y="555" type="curve"/>
      <point x="228" y="459" type="line"/>
      <point x="266" y="490"/>
      <point x="313" y="522"/>
      <point x="365" y="522" type="curve" smooth="yes"/>
      <point x="409" y="522"/>
      <point x="432" y="503"/>
      <point x="432" y="456" type="curve" smooth="yes"/>
      <point x="432" y="372"/>
      <point x="313" y="267"/>
      <point x="86" y="96" type="curve"/>
    </contour>
  </outline>
</glyph>
<glyph name="three" format="1">
  <advance width="600"/>
  <unicode hex="0033"/>
  <outline>
    <contour>
      <point x="59" y="86" type="line"/>
      <point x="97" y="31"/>
      <point x="178" y="-11"/>
      <point x="294" y="-11" type="curve" smooth="yes"/>
      <point x="443" y="-11"/>
      <point x="571" y="58"/>
      <point x="571.0" y="184.0" type="curve" smooth="yes"/>
      <point x="571" y="264"/>
      <point x="522" y="303"/>
      <point x="450" y="322" type="curve"/>
      <point x="451" y="326" type="line"/>
      <point x="553" y="348"/>
      <point x="603" y="408"/>
      <point x="603" y="488" type="curve"/>
      <point x="603" y="592"/>
      <point x="514" y="646"/>
      <point x="411.0" y="646.0" type="curve" smooth="yes"/>
      <point x="312" y="646"/>
      <point x="236.0" y="613.0"/>
      <point x="170.0" y="561.0" type="curve"/>
      <point x="231.0" y="466.0" type="line"/>
      <point x="281.0" y="501.0"/>
      <point x="327" y="524"/>
      <point x="377" y="524" type="curve" smooth="yes"/>
      <point x="419" y="524"/>
      <point x="448" y="506"/>
      <point x="448" y="465" type="curve" smooth="yes"/>
      <point x="448" y="421"/>
      <point x="405" y="377"/>
      <point x="262" y="377" type="curve"/>
      <point x="241" y="272" type="line"/>
      <point x="370" y="272"/>
      <point x="414" y="239"/>
      <point x="414" y="191" type="curve" smooth="yes"/>
      <point x="414" y="141"/>
      <point x="357" y="112"/>
      <point x="293" y="112" type="curve" smooth="yes"/>
      <point x="231" y="112"/>
      <point x="183" y="139"/>
      <point x="148" y="175" type="curve"/>
    </contour>
  </outline>
</glyph>
<glyph name="four" format="1">
  <advance width="600"/>
  <unicode hex="0034"/>
  <outline>
    <contour>
      <point x="250" y="270" type="line"/>
      <point x="357" y="393" type="line" smooth="yes"/>
      <point x="387" y="429"/>
      <point x="414" y="471"/>
      <point x="442" y="508" type="curve"/>
      <point x="442" y="508"/>
      <point x="447" y="508"/>
      <point x="447" y="508" type="curve"/>
      <point x="438" y="467"/>
      <point x="426" y="411"/>
      <point x="416" y="359" type="curve" smooth="yes"/>
      <point x="345" y="0" type="line"/>
      <point x="484" y="0" type="line"/>
      <point x="610" y="635" type="line"/>
      <point x="418" y="635" type="line"/>
      <point x="86" y="257" type="line"/>
      <point x="64" y="147" type="line"/>
      <point x="590" y="147" type="line"/>
      <point x="614" y="270" type="line"/>
    </contour>
  </outline>
</glyph>
<glyph name="five" format="1">
  <advance width="600"/>
  <unicode hex="0035"/>
  <outline>
    <contour>
      <point x="68" y="108" type="line"/>
      <point x="112" y="49"/>
      <point x="187" y="-12"/>
      <point x="308" y="-12" type="curve" smooth="yes"/>
      <point x="469" y="-12"/>
      <point x="578" y="76"/>
      <point x="578" y="228" type="curve" smooth="yes"/>
      <point x="578" y="363"/>
      <point x="486" y="407"/>
      <point x="415" y="407" type="curve" smooth="yes"/>
      <point x="366" y="407"/>
      <point x="339" y="400"/>
      <point x="312" y="390" type="curve"/>
      <point x="337" y="499" type="line"/>
      <point x="592" y="499" type="line"/>
      <point x="618" y="635" type="line"/>
      <point x="227" y="635" type="line"/>
      <point x="152" y="312" type="line"/>
      <point x="214" y="262" type="line"/>
      <point x="257" y="285"/>
      <point x="288" y="293"/>
      <point x="333" y="293" type="curve" smooth="yes"/>
      <point x="380" y="293"/>
      <point x="415" y="267"/>
      <point x="415" y="218" type="curve" smooth="yes"/>
      <point x="415" y="147"/>
      <point x="363" y="117"/>
      <point x="304" y="117" type="curve" smooth="yes"/>
      <point x="244" y="117"/>
      <point x="202" y="153"/>
      <point x="169" y="196" type="curve"/>
    </contour>
  </outline>
</glyph>
<glyph name="six" format="1">
  <advance width="600"/>
  <unicode hex="0036"/>
  <outline>
    <contour>
      <point x="315" y="-12" type="curve" smooth="yes"/>
      <point x="451" y="-12"/>
      <point x="582" y="66"/>
      <point x="582" y="225" type="curve" smooth="yes"/>
      <point x="582" y="352"/>
      <point x="500" y="406"/>
      <point x="414" y="406" type="curve" smooth="yes"/>
      <point x="322" y="406"/>
      <point x="273" y="361"/>
      <point x="234" y="318" type="curve"/>
      <point x="240" y="214" type="line"/>
      <point x="268" y="259"/>
      <point x="309" y="289"/>
      <point x="360" y="289" type="curve" smooth="yes"/>
      <point x="397" y="289"/>
      <point x="429" y="268"/>
      <point x="429" y="215" type="curve" smooth="yes"/>
      <point x="429" y="152"/>
      <point x="382" y="109"/>
      <point x="329" y="109" type="curve" smooth="yes"/>
      <point x="277" y="109"/>
      <point x="248" y="152"/>
      <point x="248" y="248" type="curve" smooth="yes"/>
      <point x="248" y="415"/>
      <point x="347" y="520"/>
      <point x="431" y="520" type="curve" smooth="yes"/>
      <point x="481" y="520"/>
      <point x="508" y="495"/>
      <point x="530" y="463" type="curve"/>
      <point x="627" y="544" type="line"/>
      <point x="594" y="596"/>
      <point x="536" y="646"/>
      <point x="446" y="646" type="curve" smooth="yes"/>
      <point x="258" y="646"/>
      <point x="99" y="492"/>
      <point x="99" y="244" type="curve" smooth="yes"/>
      <point x="99" y="77"/>
      <point x="184" y="-12"/>
    </contour>
  </outline>
</glyph>
<glyph name="seven" format="1">
  <advance width="600"/>
  <unicode hex="0037"/>
  <outline>
    <contour>
      <point x="455" y="515" type="line"/>
      <point x="307" y="378"/>
      <point x="229" y="227"/>
      <point x="178" y="0" type="curve"/>
      <point x="347" y="0" type="line"/>
      <point x="409" y="247"/>
      <point x="437" y="363"/>
      <point x="632" y="537" type="curve"/>
      <point x="651" y="634" type="line"/>
      <point x="181" y="634" type="line"/>
      <point x="155" y="502" type="line"/>
      <point x="476" y="502" type="line"/>
    </contour>
  </outline>
</glyph>
<glyph name="eight" format="1">
  <advance width="600"/>
  <unicode hex="0038"/>
  <outline>
    <contour>
      <point x="308" y="-12" type="curve" smooth="yes"/>
      <point x="473" y="-12"/>
      <point x="574" y="70"/>
      <point x="574" y="188" type="curve" smooth="yes"/>
      <point x="574" y="260"/>
      <point x="538" y="301"/>
      <point x="495" y="332" type="curve"/>
      <point x="495" y="336" type="line"/>
      <point x="565" y="369"/>
      <point x="611" y="425"/>
      <point x="611" y="503" type="curve" smooth="yes"/>
      <point x="611" y="599"/>
      <point x="527" y="647"/>
      <point x="435" y="647" type="curve" smooth="yes"/>
      <point x="287" y="647"/>
      <point x="187" y="575"/>
      <point x="187" y="461" type="curve" smooth="yes"/>
      <point x="187" y="406"/>
      <point x="212" y="363"/>
      <point x="250" y="325" type="curve"/>
      <point x="250" y="321" type="line"/>
      <point x="145" y="277"/>
      <point x="106" y="221"/>
      <point x="106" y="139" type="curve" smooth="yes"/>
      <point x="106" y="48"/>
      <point x="182" y="-12"/>
    </contour>
    <contour>
      <point x="410" y="535" type="curve" smooth="yes"/>
      <point x="449" y="535"/>
      <point x="473" y="512"/>
      <point x="473" y="474" type="curve" smooth="yes"/>
      <point x="473" y="438"/>
      <point x="457" y="403"/>
      <point x="416" y="375" type="curve"/>
      <point x="365" y="401"/>
      <point x="330" y="431"/>
      <point x="330" y="470" type="curve" smooth="yes"/>
      <point x="330" y="513"/>
      <point x="367" y="535"/>
    </contour>
    <contour>
      <point x="333" y="103" type="curve" smooth="yes"/>
      <point x="284" y="103"/>
      <point x="250" y="126"/>
      <point x="250" y="171" type="curve" smooth="yes"/>
      <point x="250" y="210"/>
      <point x="276" y="246"/>
      <point x="316" y="273" type="curve"/>
      <point x="391" y="234"/>
      <point x="431" y="213"/>
      <point x="431" y="171" type="curve" smooth="yes"/>
      <point x="431" y="122"/>
      <point x="381" y="103"/>
    </contour>
  </outline>
</glyph>
<glyph name="nine" format="1">
  <advance width="600"/>
  <unicode hex="0039"/>
  <outline>
    <contour>
      <point x="404" y="647" type="curve" smooth="yes"/>
      <point x="277" y="647"/>
      <point x="129" y="564"/>
      <point x="129" y="395" type="curve" smooth="yes"/>
      <point x="129" y="283"/>
      <point x="209" y="227"/>
      <point x="297" y="227" type="curve" smooth="yes"/>
      <point x="374" y="227"/>
      <point x="441" y="263"/>
      <point x="478" y="324" type="curve"/>
      <point x="468" y="416" type="line"/>
      <point x="440" y="368"/>
      <point x="396" y="344"/>
      <point x="354" y="344" type="curve" smooth="yes"/>
      <point x="314" y="344"/>
      <point x="282" y="370"/>
      <point x="282" y="418" type="curve" smooth="yes"/>
      <point x="282" y="487"/>
      <point x="332" y="526"/>
      <point x="383" y="526" type="curve" smooth="yes"/>
      <point x="428" y="526"/>
      <point x="459" y="483"/>
      <point x="459" y="395" type="curve" smooth="yes"/>
      <point x="459" y="197"/>
      <point x="377" y="112"/>
      <point x="286" y="112" type="curve" smooth="yes"/>
      <point x="238" y="112"/>
      <point x="208" y="132"/>
      <point x="177" y="172" type="curve"/>
      <point x="80" y="90" type="line"/>
      <point x="118" y="29"/>
      <point x="188" y="-12"/>
      <point x="283" y="-12" type="curve" smooth="yes"/>
      <point x="460" y="-12"/>
      <point x="610" y="140"/>
      <point x="610" y="380" type="curve" smooth="yes"/>
      <point x="610" y="549"/>
      <point x="529" y="647"/>
    </contour>
  </outline>
</glyph>
<glyph name="less" format="1">
  <advance width="600"/>
  <unicode hex="003C"/>
  <outline>
    <contour>
      <point x="115" y="278" type="line"/>
      <point x="504" y="28" type="line"/>
      <point x="504" y="170" type="line"/>
      <point x="244" y="330" type="line"/>
      <point x="244" y="334" type="line"/>
      <point x="504" y="494" type="line"/>
      <point x="504" y="636" type="line"/>
      <point x="115" y="386" type="line"/>
    </contour>
  </outline>
</glyph>
<glyph name="greater" format="1">
  <advance width="600"/>
  <unicode hex="003E"/>
  <outline>
    <contour>
      <point x="425" y="386" type="line"/>
      <point x="36" y="636" type="line"/>
      <point x="36" y="494" type="line"/>
      <point x="296" y="334" type="line"/>
      <point x="296" y="330" type="line"/>
      <point x="36" y="170" type="line"/>
      <point x="36" y="28" type="line"/>
      <point x="425" y="278" type="line"/>
    </contour>
  </outline>
</glyph>
<glyph name="question" format="1">
  <advance width="599"/>
  <unicode hex="003F"/>
  <outline>
    <contour>
      <point x="270" y="259" type="curve"/>
      <point x="400" y="259" type="line"/>
      <point x="408" y="312"/>
      <point x="435" y="339"/>
      <point x="475" y="367" type="curve" smooth="yes"/>
      <point x="546" y="416"/>
      <point x="605" y="457"/>
      <point x="605" y="549" type="curve" smooth="yes"/>
      <point x="605" y="643"/>
      <point x="526" y="682"/>
      <point x="433" y="682" type="curve" smooth="yes"/>
      <point x="347" y="682"/>
      <point x="269" y="647"/>
      <point x="212" y="586" type="curve"/>
      <point x="283" y="507" type="line"/>
      <point x="319" y="535"/>
      <point x="356" y="556"/>
      <point x="396" y="556" type="curve" smooth="yes"/>
      <point x="423" y="556"/>
      <point x="444" y="549"/>
      <point x="446" y="523" type="curve" smooth="yes"/>
      <point x="448" y="494"/>
      <point x="427" y="475"/>
      <point x="401" y="456" type="curve" smooth="yes"/>
      <point x="339" y="412"/>
      <point x="273" y="355"/>
    </contour>
    <component base="period" xScale="0.849486324226" yScale="0.85438107791" xOffset="30" yOffset="-2"/>
  </outline>
</glyph>
<glyph name="at" format="1">
  <advance width="600"/>
  <unicode hex="0040"/>
  <outline>
    <contour>
      <point x="518" y="-88" type="curve"/>
      <point x="475" y="-6" type="line"/>
      <point x="432" y="-33"/>
      <point x="391" y="-53"/>
      <point x="331" y="-53" type="curve" smooth="yes"/>
      <point x="239" y="-53"/>
      <point x="181" y="19"/>
      <point x="181" y="167" type="curve" smooth="yes"/>
      <point x="181" y="437"/>
      <point x="334" y="554"/>
      <point x="453" y="554" type="curve" smooth="yes"/>
      <point x="540" y="554"/>
      <point x="551" y="490"/>
      <point x="538" y="418" type="curve" smooth="yes"/>
      <point x="534" y="396" type="line"/>
      <point x="344" y="372"/>
      <point x="257" y="314"/>
      <point x="257" y="195" type="curve" smooth="yes"/>
      <point x="257" y="130"/>
      <point x="297" y="89"/>
      <point x="360" y="89" type="curve" smooth="yes"/>
      <point x="409" y="89"/>
      <point x="455" y="109"/>
      <point x="488" y="148" type="curve"/>
      <point x="492" y="148" type="line"/>
      <point x="493" y="100" type="line"/>
      <point x="576" y="100" type="line"/>
      <point x="637" y="409" type="line" smooth="yes"/>
      <point x="666" y="558"/>
      <point x="614" y="646"/>
      <point x="467" y="646" type="curve" smooth="yes"/>
      <point x="263" y="646"/>
      <point x="69" y="482"/>
      <point x="69" y="153" type="curve" smooth="yes"/>
      <point x="69" y="-49"/>
      <point x="178" y="-147"/>
      <point x="312" y="-147" type="curve" smooth="yes"/>
      <point x="391" y="-147"/>
      <point x="458" y="-129"/>
    </contour>
    <contour>
      <point x="414" y="187" type="curve" smooth="yes"/>
      <point x="388" y="187"/>
      <point x="375" y="202"/>
      <point x="375" y="225" type="curve" smooth="yes"/>
      <point x="375" y="265"/>
      <point x="404" y="294"/>
      <point x="506" y="311" type="curve"/>
      <point x="487" y="214" type="line"/>
      <point x="464" y="197"/>
      <point x="437" y="187"/>
    </contour>
  </outline>
</glyph>
<glyph name="A" format="1">
  <advance width="600"/>
  <unicode hex="0041"/>
  <outline>
    <contour>
      <point x="6" y="0" type="line"/>
      <point x="182" y="0" type="line"/>
      <point x="326" y="344" type="line" smooth="yes"/>
      <point x="353" y="407"/>
      <point x="375" y="466"/>
      <point x="400" y="530" type="curve"/>
      <point x="404" y="530" type="line"/>
      <point x="404" y="464"/>
      <point x="406" y="406"/>
      <point x="408" y="344" type="curve" smooth="yes"/>
      <point x="418" y="0" type="line"/>
      <point x="586" y="0" type="line"/>
      <point x="524" y="650" type="line"/>
      <point x="332" y="650" type="line"/>
    </contour>
    <contour>
      <point x="170" y="148" type="line"/>
      <point x="472" y="148" type="line"/>
      <point x="500" y="268" type="line"/>
      <point x="198" y="268" type="line"/>
    </contour>
  </outline>
</glyph>
<glyph name="B" format="1">
  <advance width="600"/>
  <unicode hex="0042"/>
  <outline>
    <contour>
      <point x="22" y="0" type="line"/>
      <point x="256" y="0" type="line" smooth="yes"/>
      <point x="408" y="0"/>
      <point x="542" y="63"/>
      <point x="542" y="211" type="curve" smooth="yes"/>
      <point x="542" y="279"/>
      <point x="502" y="316"/>
      <point x="431" y="334" type="curve"/>
      <point x="432" y="338" type="line"/>
      <point x="524" y="367"/>
      <point x="574" y="430"/>
      <point x="574" y="500" type="curve" smooth="yes"/>
      <point x="574" y="606"/>
      <point x="485" y="650"/>
      <point x="355" y="650" type="curve" smooth="yes"/>
      <point x="152" y="650" type="line"/>
    </contour>
    <contour>
      <point x="260" y="390" type="line"/>
      <point x="289" y="528" type="line"/>
      <point x="329" y="528" type="line" smooth="yes"/>
      <point x="379" y="528"/>
      <point x="410" y="510"/>
      <point x="410" y="474" type="curve" smooth="yes"/>
      <point x="410" y="423"/>
      <point x="380" y="390"/>
      <point x="302" y="390" type="curve" smooth="yes"/>
    </contour>
    <contour>
      <point x="205" y="122" type="line"/>
      <point x="238" y="282" type="line"/>
      <point x="303" y="282" type="line" smooth="yes"/>
      <point x="357" y="282"/>
      <point x="388" y="260"/>
      <point x="388" y="215" type="curve" smooth="yes"/>
      <point x="388" y="147"/>
      <point x="338" y="122"/>
      <point x="268" y="122" type="curve" smooth="yes"/>
    </contour>
    <contour>
      <point x="400" y="672" type="move" name="aboveUC"/>
    </contour>
    <contour>
      <point x="264" y="-22" type="move" name="belowLC"/>
    </contour>
  </outline>
</glyph>
<glyph name="C" format="1">
  <advance width="600"/>
  <unicode hex="0043"/>
  <outline>
    <contour>
      <point x="115" y="252" type="curve" smooth="yes"/>
      <point x="115" y="73"/>
      <point x="209" y="-12"/>
      <point x="351" y="-12" type="curve" smooth="yes"/>
      <point x="447" y="-12"/>
      <point x="537" y="22"/>
      <point x="586" y="61" type="curve"/>
      <point x="521" y="174" type="line"/>
      <point x="488" y="151"/>
      <point x="438" y="132"/>
      <point x="388" y="132" type="curve" smooth="yes"/>
      <point x="333" y="132"/>
      <point x="286" y="159"/>
      <point x="286" y="264" type="curve" smooth="yes"/>
      <point x="286" y="404"/>
      <point x="355" y="525"/>
      <point x="476" y="525" type="curve" smooth="yes"/>
      <point x="516" y="525"/>
      <point x="551" y="510"/>
      <point x="573" y="484" type="curve"/>
      <point x="670" y="574" type="line"/>
      <point x="631" y="630"/>
      <point x="558" y="662"/>
      <point x="486" y="662" type="curve" smooth="yes"/>
      <point x="268" y="662"/>
      <point x="115" y="484"/>
    </contour>
  </outline>
</glyph>
<glyph name="D" format="1">
  <advance width="599"/>
  <unicode hex="0044"/>
  <outline>
    <contour>
      <point x="60" y="0" type="line"/>
      <point x="274" y="0" type="line" smooth="yes"/>
      <point x="478" y="0"/>
      <point x="634" y="130"/>
      <point x="634" y="394" type="curve" smooth="yes"/>
      <point x="634" y="570"/>
      <point x="524" y="650"/>
      <point x="342" y="650" type="curve" smooth="yes"/>
      <point x="190" y="650" type="line"/>
    </contour>
    <contour>
      <point x="246" y="128" type="line"/>
      <point x="324" y="522" type="line"/>
      <point x="338" y="522" type="line" smooth="yes"/>
      <point x="414" y="522"/>
      <point x="470" y="486"/>
      <point x="470" y="384" type="curve" smooth="yes"/>
      <point x="470" y="196"/>
      <point x="378" y="128"/>
      <point x="270" y="128" type="curve" smooth="yes"/>
    </contour>
  </outline>
</glyph>
<glyph name="E" format="1">
  <advance width="600"/>
  <unicode hex="0045"/>
  <outline>
    <contour>
      <point x="29" y="0" type="line"/>
      <point x="475" y="0" type="line"/>
      <point x="501" y="134" type="line"/>
      <point x="216" y="134" type="line"/>
      <point x="243" y="268" type="line"/>
      <point x="475" y="268" type="line"/>
      <point x="501" y="402" type="line"/>
      <point x="269" y="402" type="line"/>
      <point x="291" y="516" type="line"/>
      <point x="569" y="516" type="line"/>
      <point x="595" y="650" type="line"/>
      <point x="159" y="650" type="line"/>
    </contour>
    <contour>
      <point x="400" y="672" type="move" name="aboveUC"/>
    </contour>
    <contour>
      <point x="262" y="-22" type="move" name="belowLC"/>
    </contour>
    <contour>
      <point x="358" y="0" type="move" name="ogonekUC"/>
    </contour>
  </outline>
</glyph>
<glyph name="F" format="1">
  <advance width="600"/>
  <unicode hex="0046"/>
  <outline>
    <contour>
      <point x="105" y="0" type="line"/>
      <point x="265" y="0" type="line"/>
      <point x="315" y="248" type="line"/>
      <point x="545" y="248" type="line"/>
      <point x="571" y="382" type="line"/>
      <point x="341" y="382" type="line"/>
      <point x="367" y="516" type="line"/>
      <point x="643" y="516" type="line"/>
      <point x="669" y="650" type="line"/>
      <point x="235" y="650" type="line"/>
    </contour>
  </outline>
</glyph>
<glyph name="G" format="1">
  <advance width="600"/>
  <unicode hex="0047"/>
  <outline>
    <contour>
      <point x="97" y="257" type="curve" smooth="yes"/>
      <point x="97" y="86"/>
      <point x="182" y="-12"/>
      <point x="333" y="-12" type="curve" smooth="yes"/>
      <point x="429" y="-12"/>
      <point x="515" y="16"/>
      <point x="562" y="47" type="curve"/>
      <point x="623" y="372" type="line"/>
      <point x="392" y="372" type="line"/>
      <point x="367" y="243" type="line"/>
      <point x="455" y="243" type="line"/>
      <point x="435" y="140" type="line"/>
      <point x="421" y="133"/>
      <point x="395" y="124"/>
      <point x="363" y="124" type="curve" smooth="yes"/>
      <point x="299" y="124"/>
      <point x="261" y="177"/>
      <point x="261" y="266" type="curve" smooth="yes"/>
      <point x="261" y="424"/>
      <point x="357" y="526"/>
      <point x="458" y="526" type="curve" smooth="yes"/>
      <point x="505" y="526"/>
      <point x="540" y="507"/>
      <point x="562" y="484" type="curve"/>
      <point x="661" y="572" type="line"/>
      <point x="627" y="619"/>
      <point x="566" y="662"/>
      <point x="470" y="662" type="curve" smooth="yes"/>
      <point x="272" y="662"/>
      <point x="97" y="512"/>
    </contour>
  </outline>
</glyph>
<glyph name="H" format="1">
  <advance width="599"/>
  <unicode hex="0048"/>
  <outline>
    <contour>
      <point x="60" y="0" type="line"/>
      <point x="220" y="0" type="line"/>
      <point x="272" y="266" type="line"/>
      <point x="432" y="266" type="line"/>
      <point x="378" y="0" type="line"/>
      <point x="538" y="0" type="line"/>
      <point x="668" y="650" type="line"/>
      <point x="508" y="650" type="line"/>
      <point x="460" y="406" type="line"/>
      <point x="300" y="406" type="line"/>
      <point x="350" y="650" type="line"/>
      <point x="190" y="650" type="line"/>
    </contour>
  </outline>
</glyph>
<glyph name="I" format="1">
  <advance width="600"/>
  <unicode hex="0049"/>
  <outline>
    <contour>
      <point x="68" y="0" type="line"/>
      <point x="526" y="0" type="line"/>
      <point x="554" y="134" type="line"/>
      <point x="404" y="134" type="line"/>
      <point x="482" y="516" type="line"/>
      <point x="630" y="516" type="line"/>
      <point x="658" y="650" type="line"/>
      <point x="200" y="650" type="line"/>
      <point x="172" y="516" type="line"/>
      <point x="322" y="516" type="line"/>
      <point x="244" y="134" type="line"/>
      <point x="96" y="134" type="line"/>
    </contour>
    <contour>
      <point x="440" y="672" type="move" name="aboveUC"/>
    </contour>
    <contour>
      <point x="300" y="-22" type="move" name="belowLC"/>
    </contour>
    <contour>
      <point x="282" y="0" type="move" name="ogonekUC"/>
    </contour>
  </outline>
</glyph>
<glyph name="J" format="1">
  <advance width="600"/>
  <unicode hex="004A"/>
  <outline>
    <contour>
      <point x="75" y="99" type="line"/>
      <point x="119" y="28"/>
      <point x="196" y="-12"/>
      <point x="299" y="-12" type="curve" smooth="yes"/>
      <point x="453" y="-12"/>
      <point x="539" y="85"/>
      <point x="564" y="213" type="curve" smooth="yes"/>
      <point x="650" y="651" type="line"/>
      <point x="241" y="651" type="line"/>
      <point x="215" y="519" type="line"/>
      <point x="466" y="519" type="line"/>
      <point x="412" y="252" type="line" smooth="yes"/>
      <point x="395" y="166"/>
      <point x="356" y="131"/>
      <point x="294" y="131" type="curve" smooth="yes"/>
      <point x="243" y="131"/>
      <point x="206" y="156"/>
      <point x="175" y="198" type="curve"/>
    </contour>
  </outline>
</glyph>
<glyph name="K" format="1">
  <advance width="600"/>
  <unicode hex="004B"/>
  <outline>
    <contour>
      <point x="710" y="650" type="curve"/>
      <point x="536" y="650" type="line"/>
      <point x="305" y="384" type="line"/>
      <point x="301" y="384" type="line"/>
      <point x="354" y="650" type="line"/>
      <point x="195" y="650" type="line"/>
      <point x="65" y="0" type="line"/>
      <point x="224" y="0" type="line"/>
      <point x="258" y="169" type="line"/>
      <point x="258" y="169"/>
      <point x="710" y="650"/>
    </contour>
    <contour>
      <point x="337" y="302" type="line"/>
      <point x="423" y="0" type="line"/>
      <point x="597" y="0" type="line"/>
      <point x="451" y="429" type="line"/>
    </contour>
  </outline>
</glyph>
<glyph name="L" format="1">
  <advance width="600"/>
  <unicode hex="004C"/>
  <outline>
    <contour>
      <point x="99" y="0" type="line"/>
      <point x="502" y="0" type="line"/>
      <point x="515" y="66" type="line"/>
      <point x="190" y="66" type="line"/>
      <point x="308" y="656" type="line"/>
      <point x="230" y="656" type="line"/>
    </contour>
    <contour>
      <point x="275" y="676" type="move" name="aboveUC"/>
    </contour>
    <contour>
      <point x="204" y="337" type="move" name="center"/>
    </contour>
    <contour>
      <point x="315" y="0" type="move" name="baseLC"/>
    </contour>
    <contour>
      <point x="305" y="-20" type="move" name="belowLC"/>
    </contour>
  </outline>
</glyph>
<glyph name="M" format="1">
  <advance width="600"/>
  <unicode hex="004D"/>
  <outline>
    <contour>
      <point x="15" y="0" type="line"/>
      <point x="86" y="0" type="line"/>
      <point x="166" y="394" type="line" smooth="yes"/>
      <point x="174" y="432"/>
      <point x="182" y="510"/>
      <point x="188" y="568" type="curve"/>
      <point x="192" y="568" type="line"/>
      <point x="196" y="545"/>
      <point x="203" y="457"/>
      <point x="206" y="436" type="curve" smooth="yes"/>
      <point x="242" y="178" type="line"/>
      <point x="301" y="178" type="line"/>
      <point x="446" y="441" type="line" smooth="yes"/>
      <point x="466" y="478"/>
      <point x="499" y="546"/>
      <point x="509" y="568" type="curve"/>
      <point x="513" y="568" type="line"/>
      <point x="498" y="516"/>
      <point x="474" y="436"/>
      <point x="464" y="386" type="curve" smooth="yes"/>
      <point x="386" y="0" type="line"/>
      <point x="459" y="0" type="line"/>
      <point x="589" y="656" type="line"/>
      <point x="494" y="656" type="line"/>
      <point x="332" y="358" type="line"/>
      <point x="289" y="263" type="line"/>
      <point x="285" y="263" type="line"/>
      <point x="278" y="359" type="line"/>
      <point x="240" y="656" type="line"/>
      <point x="146" y="656" type="line"/>
    </contour>
    <contour>
      <point x="373.0" y="676.0" type="move" name="aboveUC"/>
    </contour>
    <contour>
      <point x="425.0" y="0.0" type="move" name="baseLC"/>
    </contour>
    <contour>
      <point x="234.0" y="-20.0" type="move" name="belowLC"/>
    </contour>
  </outline>
</glyph>
<glyph name="N" format="1">
  <advance width="600"/>
  <unicode hex="004E"/>
  <outline>
    <contour>
      <point x="68" y="0" type="line"/>
      <point x="219" y="0" type="line"/>
      <point x="261" y="212" type="line" smooth="yes"/>
      <point x="277" y="291"/>
      <point x="280" y="381"/>
      <point x="287" y="454" type="curve"/>
      <point x="291" y="454" type="line"/>
      <point x="313" y="310" type="line"/>
      <point x="377" y="0" type="line"/>
      <point x="533" y="0" type="line"/>
      <point x="663" y="651" type="line"/>
      <point x="512" y="651" type="line"/>
      <point x="470" y="439" type="line" smooth="yes"/>
      <point x="454" y="361"/>
      <point x="450" y="266"/>
      <point x="444" y="197" type="curve"/>
      <point x="440" y="197" type="line"/>
      <point x="418" y="341" type="line"/>
      <point x="358" y="651" type="line"/>
      <point x="198" y="651" type="line"/>
    </contour>
  </outline>
</glyph>
<glyph name="O" format="1">
  <advance width="600"/>
  <unicode hex="004F"/>
  <outline>
    <contour>
      <point x="412" y="662" type="curve" smooth="yes"/>
      <point x="234" y="662"/>
      <point x="90" y="494"/>
      <point x="90" y="244" type="curve" smooth="yes"/>
      <point x="90" y="90"/>
      <point x="180" y="-12"/>
      <point x="318" y="-12" type="curve" smooth="yes"/>
      <point x="496" y="-12"/>
      <point x="640" y="156"/>
      <point x="640" y="406" type="curve" smooth="yes"/>
      <point x="640" y="560"/>
      <point x="550" y="662"/>
    </contour>
    <contour>
      <point x="336" y="126" type="curve" smooth="yes"/>
      <point x="282" y="126"/>
      <point x="254" y="172"/>
      <point x="254" y="254" type="curve" smooth="yes"/>
      <point x="254" y="416"/>
      <point x="326" y="524"/>
      <point x="394" y="524" type="curve" smooth="yes"/>
      <point x="448" y="524"/>
      <point x="476" y="478"/>
      <point x="476" y="396" type="curve" smooth="yes"/>
      <point x="476" y="234"/>
      <point x="404" y="126"/>
    </contour>
  </outline>
</glyph>
<glyph name="P" format="1">
  <advance width="600"/>
  <unicode hex="0050"/>
  <outline>
    <contour>
      <point x="78" y="0" type="line"/>
      <point x="238" y="0" type="line"/>
      <point x="281" y="212" type="line"/>
      <point x="347" y="212" type="line" smooth="yes"/>
      <point x="508" y="212"/>
      <point x="651" y="282"/>
      <point x="651" y="472" type="curve" smooth="yes"/>
      <point x="651" y="602"/>
      <point x="547" y="650"/>
      <point x="418" y="650" type="curve" smooth="yes"/>
      <point x="208" y="650" type="line"/>
    </contour>
    <contour>
      <point x="306" y="338" type="line"/>
      <point x="342" y="524" type="line"/>
      <point x="393" y="524" type="line" smooth="yes"/>
      <point x="456" y="524"/>
      <point x="490" y="500"/>
      <point x="490" y="448" type="curve" smooth="yes"/>
      <point x="490" y="376"/>
      <point x="442" y="338"/>
      <point x="358" y="338" type="curve" smooth="yes"/>
    </contour>
  </outline>
</glyph>
<glyph name="Q" format="1">
  <advance width="599"/>
  <unicode hex="0051"/>
  <outline>
    <contour>
      <point x="213" y="32" type="line"/>
      <point x="257" y="-116"/>
      <point x="349" y="-188"/>
      <point x="491" y="-188" type="curve" smooth="yes"/>
      <point x="512" y="-188"/>
      <point x="546" y="-182"/>
      <point x="567" y="-172" type="curve"/>
      <point x="561" y="-52" type="line"/>
      <point x="542" y="-58"/>
      <point x="525" y="-60"/>
      <point x="501" y="-60" type="curve" smooth="yes"/>
      <point x="445" y="-60"/>
      <point x="389" y="-32"/>
      <point x="375" y="32" type="curve"/>
    </contour>
    <contour>
      <point x="423" y="662" type="curve" smooth="yes"/>
      <point x="245" y="662"/>
      <point x="93" y="494"/>
      <point x="93" y="244" type="curve" smooth="yes"/>
      <point x="93" y="90"/>
      <point x="177" y="-12"/>
      <point x="315" y="-12" type="curve" smooth="yes"/>
      <point x="493" y="-12"/>
      <point x="643" y="156"/>
      <point x="643" y="406" type="curve" smooth="yes"/>
      <point x="643" y="564"/>
      <point x="561" y="662"/>
    </contour>
    <contour>
      <point x="257" y="254" type="curve" smooth="yes"/>
      <point x="257" y="416"/>
      <point x="329" y="524"/>
      <point x="403" y="524" type="curve" smooth="yes"/>
      <point x="457" y="524"/>
      <point x="479" y="478"/>
      <point x="479" y="396" type="curve" smooth="yes"/>
      <point x="479" y="228"/>
      <point x="404" y="116"/>
      <point x="336" y="116" type="curve" smooth="yes"/>
      <point x="282" y="116"/>
      <point x="257" y="166"/>
    </contour>
  </outline>
</glyph>
<glyph name="R" format="1">
  <advance width="599"/>
  <unicode hex="0052"/>
  <outline>
    <contour>
      <point x="308" y="252" type="line"/>
      <point x="425" y="0" type="line"/>
      <point x="593" y="0" type="line"/>
      <point x="436" y="319" type="line"/>
    </contour>
    <contour>
      <point x="67" y="0" type="line"/>
      <point x="227" y="0" type="line"/>
      <point x="271" y="224" type="line"/>
      <point x="353" y="224" type="line" smooth="yes"/>
      <point x="507" y="224"/>
      <point x="653" y="298"/>
      <point x="653" y="478" type="curve" smooth="yes"/>
      <point x="653" y="604"/>
      <point x="553" y="650"/>
      <point x="423" y="650" type="curve" smooth="yes"/>
      <point x="197" y="650" type="line"/>
    </contour>
    <contour>
      <point x="297" y="350" type="line"/>
      <point x="331" y="524" type="line"/>
      <point x="401" y="524" type="line" smooth="yes"/>
      <point x="461" y="524"/>
      <point x="495" y="502"/>
      <point x="495" y="454" type="curve" smooth="yes"/>
      <point x="495" y="392"/>
      <point x="444" y="350"/>
      <point x="358" y="350" type="curve" smooth="yes"/>
    </contour>
  </outline>
</glyph>
<glyph name="S" format="1">
  <advance width="600"/>
  <unicode hex="0053"/>
  <outline>
    <contour>
      <point x="80" y="98" type="line"/>
      <point x="121" y="32"/>
      <point x="215" y="-12"/>
      <point x="336" y="-12" type="curve"/>
      <point x="488" y="-12"/>
      <point x="595" y="57"/>
      <point x="595" y="193" type="curve" smooth="yes"/>
      <point x="595" y="280"/>
      <point x="547" y="328"/>
      <point x="484" y="360" type="curve" smooth="yes"/>
      <point x="401" y="402" type="line" smooth="yes"/>
      <point x="342" y="432"/>
      <point x="327" y="450"/>
      <point x="327" y="477" type="curve" smooth="yes"/>
      <point x="327" y="508"/>
      <point x="352" y="527"/>
      <point x="403" y="527" type="curve" smooth="yes"/>
      <point x="457" y="527"/>
      <point x="510" y="502"/>
      <point x="546" y="469" type="curve"/>
      <point x="645" y="564" type="line"/>
      <point x="590" y="627"/>
      <point x="502" y="662"/>
      <point x="419" y="662" type="curve" smooth="yes"/>
      <point x="257" y="662"/>
      <point x="164" y="578"/>
      <point x="164" y="459" type="curve" smooth="yes"/>
      <point x="164" y="371"/>
      <point x="213" y="316"/>
      <point x="281" y="282" type="curve" smooth="yes"/>
      <point x="349" y="248" type="line" smooth="yes"/>
      <point x="401" y="222"/>
      <point x="430" y="210"/>
      <point x="430" y="174" type="curve" smooth="yes"/>
      <point x="430" y="145"/>
      <point x="392" y="124"/>
      <point x="339" y="124" type="curve" smooth="yes"/>
      <point x="277" y="124"/>
      <point x="217" y="150"/>
      <point x="178" y="195" type="curve"/>
    </contour>
  </outline>
</glyph>
<glyph name="T" format="1">
  <advance width="600"/>
  <unicode hex="0054"/>
  <outline>
    <contour>
      <point x="158" y="0" type="line"/>
      <point x="318" y="0" type="line"/>
      <point x="420" y="516" type="line"/>
      <point x="610" y="516" type="line"/>
      <point x="636" y="650" type="line"/>
      <point x="96" y="650" type="line"/>
      <point x="70" y="516" type="line"/>
      <point x="260" y="516" type="line"/>
    </contour>
    <contour>
      <point x="372" y="672" type="move" name="aboveUC"/>
    </contour>
    <contour>
      <point x="240" y="0" type="move" name="baseLC"/>
    </contour>
    <contour>
      <point x="240" y="-22" type="move" name="belowLC"/>
    </contour>
  </outline>
</glyph>
<glyph name="U" format="1">
  <advance width="599"/>
  <unicode hex="0055"/>
  <outline>
    <contour>
      <point x="122" y="332" type="line" smooth="yes"/>
      <point x="116" y="298"/>
      <point x="108" y="252"/>
      <point x="108" y="222" type="curve" smooth="yes"/>
      <point x="108" y="62"/>
      <point x="181" y="-12"/>
      <point x="336" y="-12" type="curve" smooth="yes"/>
      <point x="479" y="-12"/>
      <point x="561" y="82"/>
      <point x="602" y="286" type="curve" smooth="yes"/>
      <point x="676" y="650" type="line"/>
      <point x="520" y="650" type="line"/>
      <point x="446" y="282" type="line" smooth="yes"/>
      <point x="424" y="170"/>
      <point x="397" y="126"/>
      <point x="344" y="126" type="curve" smooth="yes"/>
      <point x="286" y="126"/>
      <point x="268" y="160"/>
      <point x="268" y="226" type="curve" smooth="yes"/>
      <point x="268" y="250"/>
      <point x="272" y="274"/>
      <point x="276" y="300" type="curve" smooth="yes"/>
      <point x="346" y="650" type="line"/>
      <point x="186" y="650" type="line"/>
    </contour>
  </outline>
</glyph>
<glyph name="V" format="1">
  <advance width="599"/>
  <unicode hex="0056"/>
  <outline>
    <contour>
      <point x="192" y="0" type="line"/>
      <point x="386" y="0" type="line"/>
      <point x="720" y="650" type="line"/>
      <point x="544" y="650" type="line"/>
      <point x="412" y="346" type="line" smooth="yes"/>
      <point x="383" y="277"/>
      <point x="355" y="209"/>
      <point x="326" y="140" type="curve"/>
      <point x="322" y="140" type="line"/>
      <point x="322" y="209"/>
      <point x="320" y="278"/>
      <point x="318" y="346" type="curve" smooth="yes"/>
      <point x="306" y="650" type="line"/>
      <point x="138" y="650" type="line"/>
    </contour>
  </outline>
</glyph>
<glyph name="W" format="1">
  <advance width="600"/>
  <unicode hex="0057"/>
  <outline>
    <contour>
      <point x="54" y="0" type="line"/>
      <point x="148" y="0" type="line"/>
      <point x="267" y="270" type="line" smooth="yes"/>
      <point x="283" y="310"/>
      <point x="303" y="359"/>
      <point x="313" y="391" type="curve"/>
      <point x="318" y="391" type="line"/>
      <point x="318" y="360"/>
      <point x="321" y="310"/>
      <point x="324" y="271" type="curve" smooth="yes"/>
      <point x="346" y="0" type="line"/>
      <point x="438" y="0" type="line"/>
      <point x="642" y="657" type="line"/>
      <point x="568" y="657" type="line"/>
      <point x="436" y="209" type="line" smooth="yes"/>
      <point x="432" y="189"/>
      <point x="405" y="90"/>
      <point x="401" y="71" type="curve"/>
      <point x="395" y="71" type="line"/>
      <point x="394" y="116"/>
      <point x="387" y="203"/>
      <point x="383" y="249" type="curve" smooth="yes"/>
      <point x="360" y="474" type="line"/>
      <point x="302" y="474" type="line"/>
      <point x="179" y="206" type="line" smooth="yes"/>
      <point x="171" y="187"/>
      <point x="130" y="87"/>
      <point x="123" y="67" type="curve"/>
      <point x="119" y="67" type="line"/>
      <point x="122" y="86"/>
      <point x="129" y="144"/>
      <point x="133" y="204" type="curve" smooth="yes"/>
      <point x="168" y="657" type="line"/>
      <point x="94" y="657" type="line"/>
    </contour>
    <contour>
      <point x="369" y="676" type="move" name="aboveUC"/>
    </contour>
    <contour>
      <point x="233" y="-20" type="move" name="belowLC"/>
    </contour>
  </outline>
</glyph>
<glyph name="X" format="1">
  <advance width="600"/>
  <unicode hex="0058"/>
  <outline>
    <contour>
      <point x="283" y="368" type="line"/>
      <point x="21" y="0" type="line"/>
      <point x="190" y="0" type="line"/>
      <point x="275" y="126" type="line" smooth="yes"/>
      <point x="298" y="161"/>
      <point x="335" y="223"/>
      <point x="358" y="263" type="curve"/>
      <point x="439" y="282" type="line"/>
      <point x="702" y="651" type="line"/>
      <point x="533" y="651" type="line"/>
      <point x="460" y="535" type="line" smooth="yes"/>
      <point x="441" y="505"/>
      <point x="413" y="458"/>
      <point x="389" y="416" type="curve"/>
    </contour>
    <contour>
      <point x="588" y="0" type="line"/>
      <point x="458" y="328" type="line"/>
      <point x="401" y="414" type="line"/>
      <point x="390" y="456"/>
      <point x="374" y="505"/>
      <point x="365" y="535" type="curve" smooth="yes"/>
      <point x="330" y="651" type="line"/>
      <point x="153" y="651" type="line"/>
      <point x="272" y="335" type="line"/>
      <point x="329" y="255" type="line"/>
      <point x="339" y="215"/>
      <point x="360" y="159"/>
      <point x="371" y="126" type="curve" smooth="yes"/>
      <point x="412" y="0" type="line"/>
    </contour>
  </outline>
</glyph>
<glyph name="Y" format="1">
  <advance width="600"/>
  <unicode hex="0059"/>
  <outline>
    <contour>
      <point x="157" y="0" type="line"/>
      <point x="315" y="0" type="line"/>
      <point x="354" y="184" type="line"/>
      <point x="653" y="651" type="line"/>
      <point x="485" y="651" type="line"/>
      <point x="394" y="491" type="line" smooth="yes"/>
      <point x="365" y="440"/>
      <point x="336" y="385"/>
      <point x="307" y="333" type="curve"/>
      <point x="303" y="333" type="line"/>
      <point x="294" y="385"/>
      <point x="284" y="441"/>
      <point x="275" y="491" type="curve" smooth="yes"/>
      <point x="246" y="651" type="line"/>
      <point x="80" y="651" type="line"/>
      <point x="197" y="200" type="line"/>
    </contour>
    <contour>
      <point x="372" y="672" type="move" name="aboveUC"/>
    </contour>
    <contour>
      <point x="240" y="-22" type="move" name="belowLC"/>
    </contour>
  </outline>
</glyph>
<glyph name="Z" format="1">
  <advance width="600"/>
  <unicode hex="005A"/>
  <outline>
    <contour>
      <point x="270" y="92" type="line"/>
      <point x="646" y="556" type="line"/>
      <point x="665" y="651" type="line"/>
      <point x="201" y="651" type="line"/>
      <point x="174" y="519" type="line"/>
      <point x="532" y="519" type="line"/>
      <point x="473" y="572" type="line"/>
      <point x="84" y="95" type="line"/>
      <point x="65" y="0" type="line"/>
      <point x="558" y="0" type="line"/>
      <point x="585" y="132" type="line"/>
      <point x="229" y="132" type="line"/>
    </contour>
  </outline>
</glyph>
<glyph name="bracketleft" format="1">
  <advance width="599"/>
  <unicode hex="005B"/>
  <outline>
    <contour>
      <point x="302" y="-68" type="line"/>
      <point x="440" y="624" type="line"/>
      <point x="620" y="624" type="line"/>
      <point x="636" y="708" type="line"/>
      <point x="338" y="708" type="line"/>
      <point x="166" y="-152" type="line"/>
      <point x="464" y="-152" type="line"/>
      <point x="482" y="-68" type="line"/>
    </contour>
  </outline>
</glyph>
<glyph name="backslash" format="1">
  <advance width="599"/>
  <unicode hex="005C"/>
  <outline>
    <contour>
      <point x="377" y="-160" type="line"/>
      <point x="498" y="-160" type="line"/>
      <point x="342" y="710" type="line"/>
      <point x="221" y="710" type="line"/>
    </contour>
  </outline>
</glyph>
<glyph name="bracketright" format="1">
  <advance width="600"/>
  <unicode hex="005D"/>
  <outline>
    <contour>
      <point x="410" y="624" type="line"/>
      <point x="270" y="-68" type="line"/>
      <point x="90" y="-68" type="line"/>
      <point x="74" y="-152" type="line"/>
      <point x="372" y="-152" type="line"/>
      <point x="546" y="708" type="line"/>
      <point x="248" y="708" type="line"/>
      <point x="232" y="624" type="line"/>
    </contour>
  </outline>
</glyph>
<glyph name="asciicircum" format="1">
  <advance width="600"/>
  <unicode hex="005E"/>
  <outline>
    <contour>
      <point x="82" y="272" type="line"/>
      <point x="211" y="272" type="line"/>
      <point x="254" y="393" type="line"/>
      <point x="298" y="528" type="line"/>
      <point x="302" y="528" type="line"/>
      <point x="347" y="393" type="line"/>
      <point x="390" y="272" type="line"/>
      <point x="519" y="272" type="line"/>
      <point x="363" y="670" type="line"/>
      <point x="237" y="670" type="line"/>
    </contour>
  </outline>
</glyph>
<glyph name="underscore" format="1">
  <advance width="600"/>
  <unicode hex="005F"/>
  <outline>
    <contour>
      <point x="-28" y="-137" type="line"/>
      <point x="452" y="-137" type="line"/>
      <point x="465" y="-71" type="line"/>
      <point x="-15" y="-71" type="line"/>
    </contour>
  </outline>
</glyph>
<glyph name="a" format="1">
  <advance width="597"/>
  <unicode hex="0061"/>
  <outline>
    <contour>
      <point x="82" y="182" type="curve" smooth="yes"/>
      <point x="82" y="58"/>
      <point x="145" y="-12"/>
      <point x="243" y="-12" type="curve" smooth="yes"/>
      <point x="296" y="-12"/>
      <point x="354" y="16"/>
      <point x="402" y="66" type="curve"/>
      <point x="404" y="66" type="line"/>
      <point x="404" y="0" type="line"/>
      <point x="534" y="0" type="line"/>
      <point x="634" y="500" type="line"/>
      <point x="506" y="500" type="line"/>
      <point x="484" y="450" type="line"/>
      <point x="482" y="450" type="line"/>
      <point x="458" y="488"/>
      <point x="402" y="512"/>
      <point x="348" y="512" type="curve" smooth="yes"/>
      <point x="210" y="512"/>
      <point x="82" y="366"/>
    </contour>
    <contour>
      <point x="304" y="118" type="curve" smooth="yes"/>
      <point x="270" y="118"/>
      <point x="248" y="143"/>
      <point x="248" y="202" type="curve" smooth="yes"/>
      <point x="248" y="308"/>
      <point x="310" y="382"/>
      <point x="378" y="382" type="curve" smooth="yes"/>
      <point x="399" y="382"/>
      <point x="430" y="370"/>
      <point x="444" y="344" type="curve"/>
      <point x="412" y="188" type="line"/>
      <point x="378" y="138"/>
      <point x="336" y="118"/>
    </contour>
  </outline>
</glyph>
<glyph name="b" format="1">
  <advance width="600"/>
  <unicode hex="0062"/>
  <outline>
    <contour>
      <point x="201" y="0" type="line"/>
      <point x="223" y="50" type="line"/>
      <point x="225" y="50" type="line"/>
      <point x="249" y="12"/>
      <point x="301" y="-12"/>
      <point x="355" y="-12" type="curve" smooth="yes"/>
      <point x="493" y="-12"/>
      <point x="621" y="134"/>
      <point x="621" y="318" type="curve" smooth="yes"/>
      <point x="621" y="442"/>
      <point x="563" y="512"/>
      <point x="459" y="512" type="curve" smooth="yes"/>
      <point x="411" y="512"/>
      <point x="354" y="488"/>
      <point x="311" y="444" type="curve"/>
      <point x="309" y="444" type="line"/>
      <point x="339" y="550" type="line"/>
      <point x="368" y="696" type="line"/>
      <point x="209" y="696" type="line"/>
      <point x="69" y="0" type="line"/>
    </contour>
    <contour>
      <point x="395" y="382" type="curve" smooth="yes"/>
      <point x="429" y="382"/>
      <point x="455" y="357"/>
      <point x="455" y="298" type="curve" smooth="yes"/>
      <point x="455" y="192"/>
      <point x="394" y="118"/>
      <point x="331" y="118" type="curve" smooth="yes"/>
      <point x="303" y="118"/>
      <point x="275" y="130"/>
      <point x="261" y="156" type="curve"/>
      <point x="291" y="306" type="line"/>
      <point x="325" y="362"/>
      <point x="363" y="382"/>
    </contour>
    <contour>
      <point x="156" y="730" type="move" name="aboveLC"/>
    </contour>
    <contour>
      <point x="307" y="-22" type="move" name="belowLC"/>
    </contour>
  </outline>
</glyph>
<glyph name="c" format="1">
  <advance width="600"/>
  <unicode hex="0063"/>
  <outline>
    <contour>
      <point x="119" y="206" type="curve" smooth="yes"/>
      <point x="119" y="60"/>
      <point x="215" y="-12"/>
      <point x="341" y="-12" type="curve" smooth="yes"/>
      <point x="425" y="-12"/>
      <point x="498" y="12"/>
      <point x="559" y="57" type="curve"/>
      <point x="502" y="168" type="line"/>
      <point x="461" y="141"/>
      <point x="427" y="122"/>
      <point x="376" y="122" type="curve" smooth="yes"/>
      <point x="319" y="122"/>
      <point x="284" y="149"/>
      <point x="284" y="218" type="curve" smooth="yes"/>
      <point x="284" y="327"/>
      <point x="346" y="384"/>
      <point x="419" y="384" type="curve" smooth="yes"/>
      <point x="468" y="384"/>
      <point x="491" y="366"/>
      <point x="521" y="336" type="curve"/>
      <point x="620" y="420" type="line"/>
      <point x="584" y="467"/>
      <point x="534" y="512"/>
      <point x="424" y="512" type="curve" smooth="yes"/>
      <point x="259" y="512"/>
      <point x="119" y="400"/>
    </contour>
  </outline>
</glyph>
<glyph name="d" format="1">
  <advance width="600"/>
  <unicode hex="0064"/>
  <outline>
    <contour>
      <point x="418" y="456" type="line"/>
      <point x="416" y="456" type="line"/>
      <point x="392" y="490"/>
      <point x="344" y="512"/>
      <point x="290" y="512" type="curve" smooth="yes"/>
      <point x="152" y="512"/>
      <point x="24" y="366"/>
      <point x="24" y="182" type="curve" smooth="yes"/>
      <point x="24" y="58"/>
      <point x="86" y="-12"/>
      <point x="184" y="-12" type="curve" smooth="yes"/>
      <point x="237" y="-12"/>
      <point x="296" y="16"/>
      <point x="344" y="66" type="curve"/>
      <point x="346" y="66" type="line"/>
      <point x="346" y="0" type="line"/>
      <point x="476" y="0" type="line"/>
      <point x="616" y="696" type="line"/>
      <point x="456" y="696" type="line"/>
      <point x="428" y="550" type="line"/>
    </contour>
    <contour>
      <point x="254" y="118" type="curve" smooth="yes"/>
      <point x="220" y="118"/>
      <point x="190" y="143"/>
      <point x="190" y="202" type="curve" smooth="yes"/>
      <point x="190" y="308"/>
      <point x="252" y="382"/>
      <point x="320" y="382" type="curve" smooth="yes"/>
      <point x="341" y="382"/>
      <point x="372" y="370"/>
      <point x="386" y="344" type="curve"/>
      <point x="354" y="188" type="line"/>
      <point x="320" y="138"/>
      <point x="286" y="118"/>
    </contour>
    <contour>
      <point x="528" y="710" type="move" name="aboveUC"/>
    </contour>
    <contour>
      <point x="250" y="-22" type="move" name="belowLC"/>
    </contour>
  </outline>
</glyph>
<glyph name="e" format="1">
  <advance width="600"/>
  <unicode hex="0065"/>
  <outline>
    <contour>
      <point x="486" y="304" type="line"/>
      <point x="232" y="304" type="line"/>
      <point x="215" y="204" type="line"/>
      <point x="581" y="204" type="line"/>
      <point x="587" y="222"/>
      <point x="595" y="269"/>
      <point x="595" y="313" type="curve" smooth="yes"/>
      <point x="595" y="433"/>
      <point x="523" y="512"/>
      <point x="393" y="512" type="curve" smooth="yes"/>
      <point x="240" y="512"/>
      <point x="97" y="392"/>
      <point x="97" y="200" type="curve" smooth="yes"/>
      <point x="97" y="55"/>
      <point x="193" y="-12"/>
      <point x="328" y="-12" type="curve" smooth="yes"/>
      <point x="417" y="-12"/>
      <point x="491" y="7"/>
      <point x="554" y="53" type="curve"/>
      <point x="503" y="156" type="line"/>
      <point x="457" y="127"/>
      <point x="417" y="112"/>
      <point x="370" y="112" type="curve" smooth="yes"/>
      <point x="307" y="112"/>
      <point x="257" y="133"/>
      <point x="257" y="210" type="curve" smooth="yes"/>
      <point x="257" y="345"/>
      <point x="336" y="390"/>
      <point x="388" y="390" type="curve" smooth="yes"/>
      <point x="428" y="390"/>
      <point x="457" y="367"/>
      <point x="457" y="317" type="curve" smooth="yes"/>
      <point x="457" y="307"/>
      <point x="456" y="296"/>
      <point x="453" y="284" type="curve"/>
    </contour>
  </outline>
</glyph>
<glyph name="f" format="1">
  <advance width="599"/>
  <unicode hex="0066"/>
  <outline>
    <contour>
      <point x="208" y="0" type="line"/>
      <point x="366" y="0" type="line"/>
      <point x="467" y="506" type="line" smooth="yes"/>
      <point x="478" y="563"/>
      <point x="512" y="585"/>
      <point x="571" y="585" type="curve" smooth="yes"/>
      <point x="608" y="585"/>
      <point x="640" y="579"/>
      <point x="668" y="567" type="curve"/>
      <point x="722" y="678" type="line"/>
      <point x="687" y="695"/>
      <point x="633" y="709"/>
      <point x="563" y="709" type="curve" smooth="yes"/>
      <point x="417" y="709"/>
      <point x="337" y="644"/>
      <point x="309" y="506" type="curve" smooth="yes"/>
    </contour>
    <contour>
      <point x="153" y="376" type="line"/>
      <point x="606" y="376" type="line"/>
      <point x="630" y="500" type="line"/>
      <point x="313" y="500" type="line"/>
      <point x="176" y="494" type="line"/>
    </contour>
  </outline>
</glyph>
<glyph name="g" format="1">
  <advance width="600"/>
  <unicode hex="0067"/>
  <outline>
    <contour>
      <point x="121" y="-29" type="curve"/>
      <point x="48" y="-136" type="line"/>
      <point x="99" y="-171"/>
      <point x="176" y="-188"/>
      <point x="261" y="-188" type="curve"/>
      <point x="384" y="-188"/>
      <point x="503" y="-141"/>
      <point x="536" y="22" type="curve" smooth="yes"/>
      <point x="631" y="498" type="line"/>
      <point x="508" y="498" type="line"/>
      <point x="485" y="447" type="line"/>
      <point x="481" y="447" type="line"/>
      <point x="453" y="489"/>
      <point x="412" y="512"/>
      <point x="361" y="512" type="curve" smooth="yes"/>
      <point x="221" y="512"/>
      <point x="89" y="385"/>
      <point x="89" y="206" type="curve" smooth="yes"/>
      <point x="89" y="94"/>
      <point x="152" y="11"/>
      <point x="257" y="11" type="curve" smooth="yes"/>
      <point x="301" y="11"/>
      <point x="360" y="31"/>
      <point x="397" y="65" type="curve"/>
      <point x="385" y="21" type="line" smooth="yes"/>
      <point x="368" y="-41"/>
      <point x="315" y="-60"/>
      <point x="255" y="-64" type="curve" smooth="yes"/>
      <point x="215" y="-67"/>
      <point x="163" y="-54"/>
    </contour>
    <contour>
      <point x="324" y="138" type="curve" smooth="yes"/>
      <point x="280" y="138"/>
      <point x="253" y="173"/>
      <point x="253" y="229" type="curve" smooth="yes"/>
      <point x="253" y="327"/>
      <point x="319" y="381"/>
      <point x="373" y="381" type="curve" smooth="yes"/>
      <point x="401" y="381"/>
      <point x="425" y="373"/>
      <point x="444" y="352" type="curve"/>
      <point x="411" y="185" type="line"/>
      <point x="381" y="152"/>
      <point x="353" y="138"/>
    </contour>
  </outline>
</glyph>
<glyph name="h" format="1">
  <advance width="600"/>
  <unicode hex="0068"/>
  <outline>
    <contour>
      <point x="70" y="0" type="line"/>
      <point x="230" y="0" type="line"/>
      <point x="288" y="298" type="line"/>
      <point x="327" y="350"/>
      <point x="373" y="376"/>
      <point x="406" y="376" type="curve" smooth="yes"/>
      <point x="432" y="376"/>
      <point x="448" y="362"/>
      <point x="448" y="334" type="curve" smooth="yes"/>
      <point x="448" y="322"/>
      <point x="444" y="308"/>
      <point x="440" y="290" type="curve" smooth="yes"/>
      <point x="382" y="0" type="line"/>
      <point x="542" y="0" type="line"/>
      <point x="604" y="310" type="line" smooth="yes"/>
      <point x="609" y="334"/>
      <point x="612" y="360"/>
      <point x="612" y="382" type="curve" smooth="yes"/>
      <point x="612" y="468"/>
      <point x="564" y="512"/>
      <point x="482" y="512" type="curve" smooth="yes"/>
      <point x="421" y="512"/>
      <point x="356" y="474"/>
      <point x="310" y="424" type="curve"/>
      <point x="306" y="424" type="line"/>
      <point x="332" y="512" type="line"/>
      <point x="370" y="696" type="line"/>
      <point x="210" y="696" type="line"/>
    </contour>
  </outline>
</glyph>
<glyph name="i" format="1">
  <advance width="600"/>
  <unicode hex="0069"/>
  <outline>
    <contour>
      <point x="344" y="564" type="curve" smooth="yes"/>
      <point x="407" y="564"/>
      <point x="457" y="609"/>
      <point x="457" y="669" type="curve" smooth="yes"/>
      <point x="457" y="726"/>
      <point x="415" y="756"/>
      <point x="358" y="756" type="curve" smooth="yes"/>
      <point x="295" y="756"/>
      <point x="246" y="707"/>
      <point x="246" y="651" type="curve" smooth="yes"/>
      <point x="246" y="592"/>
      <point x="294" y="564"/>
    </contour>
    <contour>
      <point x="70" y="376" type="line"/>
      <point x="229" y="376" type="line"/>
      <point x="182" y="200" type="line" smooth="yes"/>
      <point x="176" y="178"/>
      <point x="173" y="158"/>
      <point x="173" y="139" type="curve" smooth="yes"/>
      <point x="173" y="46"/>
      <point x="239" y="-12"/>
      <point x="340" y="-12" type="curve" smooth="yes"/>
      <point x="404" y="-12"/>
      <point x="450" y="-1"/>
      <point x="494" y="16" type="curve"/>
      <point x="462" y="135" type="line"/>
      <point x="431" y="124"/>
      <point x="412" y="118"/>
      <point x="390" y="118" type="curve" smooth="yes"/>
      <point x="359" y="118"/>
      <point x="337" y="133"/>
      <point x="337" y="171" type="curve" smooth="yes"/>
      <point x="337" y="179"/>
      <point x="339" y="189"/>
      <point x="341" y="198" type="curve" smooth="yes"/>
      <point x="414" y="500" type="line"/>
      <point x="96" y="500" type="line"/>
    </contour>
    <contour>
      <point x="384" y="770" type="move" name="aboveLC"/>
    </contour>
    <contour>
      <point x="284" y="-22" type="move" name="belowLC"/>
    </contour>
    <contour>
      <point x="336" y="0" type="move" name="ogonekLC"/>
    </contour>
  </outline>
</glyph>
<glyph name="j" format="1">
  <advance width="600"/>
  <unicode hex="006A"/>
  <outline>
    <component base="dotlessj"/>
    <component base="dotaccentcmb" xOffset="55"/>
    <contour>
      <point x="434" y="738" type="move" name="aboveUC"/>
    </contour>
    <contour>
      <point x="145" y="-219" type="move" name="belowLC"/>
    </contour>
  </outline>
</glyph>
<glyph name="k" format="1">
  <advance width="600"/>
  <unicode hex="006B"/>
  <outline>
    <contour>
      <point x="391" y="236" type="line"/>
      <point x="675" y="500" type="line"/>
      <point x="491" y="500" type="line"/>
      <point x="293" y="316" type="line"/>
      <point x="289" y="316" type="line"/>
      <point x="367" y="696" type="line"/>
      <point x="207" y="696" type="line"/>
      <point x="67" y="0" type="line"/>
      <point x="227" y="0" type="line"/>
      <point x="253" y="124" type="line"/>
    </contour>
    <contour>
      <point x="453" y="299" type="line"/>
      <point x="323" y="214" type="line"/>
      <point x="412" y="0" type="line"/>
      <point x="591" y="0" type="line"/>
    </contour>
  </outline>
</glyph>
<glyph name="l" format="1">
  <advance width="600"/>
  <unicode hex="006C"/>
  <outline>
    <contour>
      <point x="122" y="572" type="line"/>
      <point x="255" y="572" type="line"/>
      <point x="174" y="220" type="line" smooth="yes"/>
      <point x="141" y="75"/>
      <point x="215" y="-12"/>
      <point x="326" y="-12" type="curve" smooth="yes"/>
      <point x="384" y="-12"/>
      <point x="432" y="-4"/>
      <point x="486" y="19" type="curve"/>
      <point x="455" y="140" type="line"/>
      <point x="423" y="127"/>
      <point x="405" y="121"/>
      <point x="376" y="121" type="curve" smooth="yes"/>
      <point x="344" y="121"/>
      <point x="316" y="142"/>
      <point x="328" y="197" type="curve" smooth="yes"/>
      <point x="439" y="696" type="line"/>
      <point x="148" y="696" type="line"/>
    </contour>
    <contour>
      <point x="356" y="710" type="move" name="aboveLC"/>
    </contour>
    <contour>
      <point x="288" y="-22" type="move" name="belowLC"/>
    </contour>
  </outline>
</glyph>
<glyph name="m" format="1">
  <advance width="600"/>
  <unicode hex="006D"/>
  <outline>
    <contour>
      <point x="572.0" y="0.0" type="line"/>
      <point x="648.0" y="372.0" type="line" smooth="yes"/>
      <point x="651.799997014" y="390.599985383"/>
      <point x="654" y="404"/>
      <point x="654" y="422" type="curve" smooth="yes"/>
      <point x="654.0" y="480.0"/>
      <point x="624" y="512"/>
      <point x="575" y="512" type="curve" smooth="yes"/>
      <point x="518" y="512"/>
      <point x="470.0" y="483.0"/>
      <point x="438.0" y="428.0" type="curve"/>
      <point x="449.0" y="434.0" type="line"/>
      <point x="445.0" y="487.0"/>
      <point x="422.0" y="512.0"/>
      <point x="379.0" y="512.0" type="curve" smooth="yes"/>
      <point x="319.0" y="512.0"/>
      <point x="275.0" y="475.0"/>
      <point x="248.0" y="436.0" type="curve"/>
      <point x="244.0" y="436.0" type="line"/>
      <point x="244.0" y="500.0" type="line"/>
      <point x="130.0" y="500.0" type="line"/>
      <point x="32.0" y="0.0" type="line"/>
      <point x="180.0" y="0.0" type="line"/>
      <point x="244.0" y="334.0" type="line"/>
      <point x="261.0" y="365.0"/>
      <point x="277.0" y="379.0"/>
      <point x="296.0" y="379.0" type="curve" smooth="yes"/>
      <point x="310.0" y="379.0"/>
      <point x="316.0" y="366.0"/>
      <point x="311.0" y="340.0" type="curve" smooth="yes"/>
      <point x="241.0" y="0.0" type="line"/>
      <point x="365.0" y="0.0" type="line"/>
      <point x="434.0" y="335.0" type="line"/>
      <point x="450.0" y="364.0"/>
      <point x="463.0" y="379.0"/>
      <point x="482.0" y="379.0" type="curve" smooth="yes"/>
      <point x="495.0" y="379.0"/>
      <point x="502.0" y="367.0"/>
      <point x="496.0" y="340.0" type="curve" smooth="yes"/>
      <point x="426.0" y="0.0" type="line"/>
    </contour>
    <contour>
      <point x="438" y="524" type="move" name="aboveLC"/>
    </contour>
    <contour>
      <point x="300" y="-22" type="move" name="belowLC"/>
    </contour>
  </outline>
</glyph>
<glyph name="n" format="1">
  <advance width="600"/>
  <unicode hex="006E"/>
  <outline>
    <contour>
      <point x="74" y="0" type="line"/>
      <point x="234" y="0" type="line"/>
      <point x="292" y="298" type="line"/>
      <point x="331" y="350"/>
      <point x="377" y="376"/>
      <point x="410" y="376" type="curve" smooth="yes"/>
      <point x="436" y="376"/>
      <point x="451" y="363"/>
      <point x="451" y="335" type="curve" smooth="yes"/>
      <point x="451" y="323"/>
      <point x="448" y="308"/>
      <point x="444" y="290" type="curve" smooth="yes"/>
      <point x="386" y="0" type="line"/>
      <point x="546" y="0" type="line"/>
      <point x="608" y="310" type="line" smooth="yes"/>
      <point x="613" y="334"/>
      <point x="616" y="360"/>
      <point x="616" y="382" type="curve" smooth="yes"/>
      <point x="616" y="468"/>
      <point x="568" y="512"/>
      <point x="486" y="512" type="curve" smooth="yes"/>
      <point x="422" y="512"/>
      <point x="348" y="466"/>
      <point x="302" y="420" type="curve"/>
      <point x="298" y="420" type="line"/>
      <point x="302" y="500" type="line"/>
      <point x="172" y="500" type="line"/>
    </contour>
  </outline>
</glyph>
<glyph name="o" format="1">
  <advance width="600"/>
  <unicode hex="006F"/>
  <outline>
    <contour>
      <point x="381" y="512" type="curve" smooth="yes"/>
      <point x="239" y="512"/>
      <point x="89" y="396"/>
      <point x="89" y="214" type="curve" smooth="yes"/>
      <point x="89" y="78"/>
      <point x="170" y="-12"/>
      <point x="317" y="-12" type="curve" smooth="yes"/>
      <point x="468" y="-12"/>
      <point x="608" y="104"/>
      <point x="608" y="286" type="curve" smooth="yes"/>
      <point x="608" y="422"/>
      <point x="519" y="512"/>
    </contour>
    <contour>
      <point x="325" y="116" type="curve" smooth="yes"/>
      <point x="279" y="116"/>
      <point x="251" y="154"/>
      <point x="251" y="216" type="curve" smooth="yes"/>
      <point x="251" y="322"/>
      <point x="313" y="384"/>
      <point x="373" y="384" type="curve" smooth="yes"/>
      <point x="419" y="384"/>
      <point x="446" y="346"/>
      <point x="446" y="284" type="curve" smooth="yes"/>
      <point x="446" y="178"/>
      <point x="385" y="116"/>
    </contour>
    <contour>
      <point x="300" y="522" type="move" name="aboveLC"/>
    </contour>
    <contour>
      <point x="300" y="-22" type="move" name="belowLC"/>
    </contour>
    <contour>
      <point x="414" y="500" type="move" name="hornLC"/>
    </contour>
    <contour>
      <point x="354" y="0" type="move" name="ogonekLC"/>
    </contour>
  </outline>
</glyph>
<glyph name="p" format="1">
  <advance width="600"/>
  <unicode hex="0070"/>
  <outline>
    <contour>
      <point x="168" y="42" type="line"/>
      <point x="170" y="42" type="line"/>
      <point x="196" y="8"/>
      <point x="244" y="-12"/>
      <point x="294" y="-12" type="curve" smooth="yes"/>
      <point x="454" y="-12"/>
      <point x="560" y="134"/>
      <point x="560" y="318" type="curve" smooth="yes"/>
      <point x="560" y="442"/>
      <point x="500" y="512"/>
      <point x="400" y="512" type="curve" smooth="yes"/>
      <point x="340" y="512"/>
      <point x="290" y="482"/>
      <point x="242" y="432" type="curve"/>
      <point x="239" y="432" type="line"/>
      <point x="238" y="500" type="line"/>
      <point x="108" y="500" type="line"/>
      <point x="-28" y="-176" type="line"/>
      <point x="132" y="-176" type="line"/>
      <point x="156" y="-52" type="line"/>
    </contour>
    <contour>
      <point x="334" y="382" type="curve" smooth="yes"/>
      <point x="368" y="382"/>
      <point x="394" y="357"/>
      <point x="394" y="298" type="curve" smooth="yes"/>
      <point x="394" y="192"/>
      <point x="339" y="118"/>
      <point x="276" y="118" type="curve" smooth="yes"/>
      <point x="248" y="118"/>
      <point x="214" y="130"/>
      <point x="200" y="156" type="curve"/>
      <point x="232" y="306" type="line"/>
      <point x="266" y="362"/>
      <point x="302" y="382"/>
    </contour>
    <contour>
      <point x="374" y="522" type="move" name="aboveLC"/>
    </contour>
    <contour>
      <point x="64" y="-200" type="move" name="belowLC"/>
    </contour>
  </outline>
</glyph>
<glyph name="q" format="1">
  <advance width="600"/>
  <unicode hex="0071"/>
  <outline>
    <contour>
      <point x="25" y="184" type="curve" smooth="yes"/>
      <point x="25" y="63"/>
      <point x="91" y="-12"/>
      <point x="185" y="-12" type="curve" smooth="yes"/>
      <point x="240" y="-12"/>
      <point x="286" y="10"/>
      <point x="342" y="60" type="curve"/>
      <point x="330" y="27"/>
      <point x="313" y="-26"/>
      <point x="309" y="-48" type="curve" smooth="yes"/>
      <point x="281" y="-181" type="line"/>
      <point x="439" y="-181" type="line"/>
      <point x="575" y="500" type="line"/>
      <point x="452" y="500" type="line"/>
      <point x="428" y="447" type="line"/>
      <point x="425" y="447" type="line"/>
      <point x="393" y="491"/>
      <point x="356" y="512"/>
      <point x="301" y="512" type="curve" smooth="yes"/>
      <point x="169" y="512"/>
      <point x="25" y="396"/>
    </contour>
    <contour>
      <point x="191" y="202" type="curve" smooth="yes"/>
      <point x="191" y="326"/>
      <point x="257" y="381"/>
      <point x="318" y="381" type="curve" smooth="yes"/>
      <point x="345" y="381"/>
      <point x="367" y="372"/>
      <point x="387" y="345" type="curve"/>
      <point x="354" y="186" type="line"/>
      <point x="327" y="150"/>
      <point x="287" y="118"/>
      <point x="250" y="118" type="curve" smooth="yes"/>
      <point x="213" y="118"/>
      <point x="191" y="145"/>
    </contour>
    <contour>
      <point x="359" y="522" type="move" name="aboveLC"/>
    </contour>
    <contour>
      <point x="360" y="-200" type="move" name="belowLC"/>
    </contour>
  </outline>
</glyph>
<glyph name="r" format="1">
  <advance width="600"/>
  <unicode hex="0072"/>
  <outline>
    <contour>
      <point x="119" y="0" type="line"/>
      <point x="279" y="0" type="line"/>
      <point x="323" y="215" type="line"/>
      <point x="382" y="316"/>
      <point x="454" y="363"/>
      <point x="516" y="368" type="curve" smooth="yes"/>
      <point x="550" y="371"/>
      <point x="576" y="366"/>
      <point x="600" y="354" type="curve"/>
      <point x="656" y="492" type="line"/>
      <point x="638" y="504"/>
      <point x="607" y="512"/>
      <point x="559" y="512" type="curve" smooth="yes"/>
      <point x="479" y="512"/>
      <point x="402" y="474"/>
      <point x="341" y="387" type="curve"/>
      <point x="337" y="387" type="line"/>
      <point x="347" y="500" type="line"/>
      <point x="217" y="500" type="line"/>
    </contour>
  </outline>
</glyph>
<glyph name="s" format="1">
  <advance width="600"/>
  <unicode hex="0073"/>
  <outline>
    <contour>
      <point x="75" y="74" type="line"/>
      <point x="131" y="13"/>
      <point x="235" y="-12"/>
      <point x="320" y="-12" type="curve" smooth="yes"/>
      <point x="456" y="-12"/>
      <point x="565" y="37"/>
      <point x="565" y="156" type="curve" smooth="yes"/>
      <point x="565" y="247"/>
      <point x="496" y="279"/>
      <point x="409" y="301" type="curve" smooth="yes"/>
      <point x="315" y="325"/>
      <point x="288" y="338"/>
      <point x="288" y="362" type="curve" smooth="yes"/>
      <point x="288" y="382"/>
      <point x="314" y="394"/>
      <point x="358" y="394" type="curve" smooth="yes"/>
      <point x="418" y="394"/>
      <point x="469" y="368"/>
      <point x="513" y="340" type="curve"/>
      <point x="595" y="432" type="line"/>
      <point x="543" y="476"/>
      <point x="464" y="512"/>
      <point x="364" y="512" type="curve" smooth="yes"/>
      <point x="222" y="512"/>
      <point x="137" y="457"/>
      <point x="137" y="344" type="curve" smooth="yes"/>
      <point x="137" y="259"/>
      <point x="208" y="211"/>
      <point x="304" y="186" type="curve" smooth="yes"/>
      <point x="387" y="163"/>
      <point x="412" y="159"/>
      <point x="412" y="135" type="curve" smooth="yes"/>
      <point x="412" y="111"/>
      <point x="373" y="104"/>
      <point x="332" y="104" type="curve" smooth="yes"/>
      <point x="276" y="104"/>
      <point x="232" y="113"/>
      <point x="163" y="166" type="curve"/>
    </contour>
  </outline>
</glyph>
<glyph name="t" format="1">
  <advance width="600"/>
  <unicode hex="0074"/>
  <outline>
    <contour>
      <point x="537" y="376" type="curve"/>
      <point x="561" y="500" type="line"/>
      <point x="207" y="500" type="line"/>
      <point x="75" y="494" type="line"/>
      <point x="50" y="376" type="line"/>
      <point x="50" y="376"/>
      <point x="537" y="376"/>
    </contour>
    <contour>
      <point x="385" y="628" type="curve"/>
      <point x="253" y="628" type="line"/>
      <point x="194" y="473" type="line"/>
      <point x="142" y="208" type="line" smooth="yes"/>
      <point x="116" y="77"/>
      <point x="160" y="-12"/>
      <point x="310" y="-12" type="curve" smooth="yes"/>
      <point x="390" y="-12"/>
      <point x="467" y="12"/>
      <point x="512" y="43" type="curve"/>
      <point x="464" y="157" type="line"/>
      <point x="436" y="139"/>
      <point x="399" y="121"/>
      <point x="360" y="121" type="curve" smooth="yes"/>
      <point x="315" y="121"/>
      <point x="286" y="141"/>
      <point x="301" y="215" type="curve" smooth="yes"/>
      <point x="301" y="215"/>
      <point x="385" y="628"/>
    </contour>
    <contour>
      <point x="326" y="644" type="move" name="aboveLC"/>
    </contour>
    <contour>
      <point x="304" y="0" type="move" name="baseLC"/>
    </contour>
    <contour>
      <point x="304" y="-22" type="move" name="belowLC"/>
    </contour>
  </outline>
</glyph>
<glyph name="u" format="1">
  <advance width="600"/>
  <unicode hex="0075"/>
  <outline>
    <contour>
      <point x="571" y="500" type="line"/>
      <point x="411" y="500" type="line"/>
      <point x="353" y="202" type="line"/>
      <point x="314" y="150"/>
      <point x="272" y="124"/>
      <point x="239" y="124" type="curve" smooth="yes"/>
      <point x="213" y="124"/>
      <point x="197" y="138"/>
      <point x="197" y="166" type="curve" smooth="yes"/>
      <point x="197" y="178"/>
      <point x="201" y="192"/>
      <point x="205" y="210" type="curve" smooth="yes"/>
      <point x="263" y="500" type="line"/>
      <point x="103" y="500" type="line"/>
      <point x="41" y="190" type="line" smooth="yes"/>
      <point x="36" y="166"/>
      <point x="33" y="140"/>
      <point x="33" y="118" type="curve" smooth="yes"/>
      <point x="33" y="32"/>
      <point x="81" y="-12"/>
      <point x="163" y="-12" type="curve" smooth="yes"/>
      <point x="227" y="-12"/>
      <point x="297" y="34"/>
      <point x="343" y="80" type="curve"/>
      <point x="347" y="80" type="line"/>
      <point x="343" y="0" type="line"/>
      <point x="473" y="0" type="line"/>
    </contour>
    <contour>
      <point x="334" y="522" type="move" name="aboveLC"/>
    </contour>
    <contour>
      <point x="246" y="-22" type="move" name="belowLC"/>
    </contour>
  </outline>
</glyph>
<glyph name="v" format="1">
  <advance width="600"/>
  <unicode hex="0076"/>
  <outline>
    <contour>
      <point x="209" y="0" type="line"/>
      <point x="395" y="0" type="line"/>
      <point x="669" y="500" type="line"/>
      <point x="511" y="500" type="line"/>
      <point x="398" y="271" type="line" smooth="yes"/>
      <point x="373" y="221"/>
      <point x="347" y="168"/>
      <point x="325" y="117" type="curve"/>
      <point x="321" y="117" type="line"/>
      <point x="317" y="170"/>
      <point x="314" y="221"/>
      <point x="308" y="271" type="curve" smooth="yes"/>
      <point x="283" y="500" type="line"/>
      <point x="125" y="500" type="line"/>
    </contour>
    <contour>
      <point x="302" y="522" type="move" name="aboveLC"/>
    </contour>
    <contour>
      <point x="302" y="-22" type="move" name="belowLC"/>
    </contour>
  </outline>
</glyph>
<glyph name="w" format="1">
  <advance width="600"/>
  <unicode hex="0077"/>
  <outline>
    <contour>
      <point x="81" y="0" type="line"/>
      <point x="260" y="0" type="line"/>
      <point x="312" y="152" type="line" smooth="yes"/>
      <point x="335" y="222"/>
      <point x="347" y="263"/>
      <point x="358" y="299" type="curve"/>
      <point x="362" y="299" type="line"/>
      <point x="357" y="244"/>
      <point x="353" y="198"/>
      <point x="350" y="152" type="curve" smooth="yes"/>
      <point x="343" y="0" type="line"/>
      <point x="525" y="0" type="line"/>
      <point x="697" y="498" type="line"/>
      <point x="553" y="498" type="line"/>
      <point x="484" y="277" type="line" smooth="yes"/>
      <point x="467" y="227"/>
      <point x="456" y="178"/>
      <point x="440" y="127" type="curve"/>
      <point x="436" y="127" type="line"/>
      <point x="439" y="178"/>
      <point x="441" y="227"/>
      <point x="442" y="277" type="curve" smooth="yes"/>
      <point x="443" y="426" type="line"/>
      <point x="335" y="426" type="line"/>
      <point x="279" y="277" type="line" smooth="yes"/>
      <point x="259" y="229"/>
      <point x="242" y="178"/>
      <point x="227" y="127" type="curve"/>
      <point x="223" y="127" type="line"/>
      <point x="227" y="178"/>
      <point x="235" y="227"/>
      <point x="238" y="277" type="curve" smooth="yes"/>
      <point x="257" y="498" type="line"/>
      <point x="103" y="498" type="line"/>
    </contour>
  </outline>
</glyph>
<glyph name="x" format="1">
  <advance width="600"/>
  <unicode hex="0078"/>
  <outline>
    <contour>
      <point x="33" y="0" type="line"/>
      <point x="197" y="0" type="line"/>
      <point x="257" y="77" type="line"/>
      <point x="277" y="106"/>
      <point x="298" y="135"/>
      <point x="318" y="163" type="curve"/>
      <point x="322" y="163" type="line"/>
      <point x="334" y="135"/>
      <point x="348" y="105"/>
      <point x="360" y="77" type="curve" smooth="yes"/>
      <point x="397" y="0" type="line"/>
      <point x="566" y="0" type="line"/>
      <point x="444" y="241" type="line"/>
      <point x="656" y="498" type="line"/>
      <point x="492" y="498" type="line"/>
      <point x="437" y="422" type="line"/>
      <point x="420" y="394"/>
      <point x="399" y="364"/>
      <point x="381" y="337" type="curve"/>
      <point x="377" y="337" type="line"/>
      <point x="367" y="364"/>
      <point x="353" y="394"/>
      <point x="344" y="422" type="curve"/>
      <point x="312" y="498" type="line"/>
      <point x="143" y="498" type="line"/>
      <point x="255" y="259" type="line"/>
    </contour>
  </outline>
</glyph>
<glyph name="y" format="1">
  <advance width="600"/>
  <unicode hex="0079"/>
  <outline>
    <contour>
      <point x="251" y="43" type="line"/>
      <point x="222" y="-9" type="line" smooth="yes"/>
      <point x="200" y="-44"/>
      <point x="172" y="-68"/>
      <point x="117" y="-68" type="curve" smooth="yes"/>
      <point x="105" y="-68"/>
      <point x="93" y="-66"/>
      <point x="81" y="-62" type="curve"/>
      <point x="29" y="-181" type="line"/>
      <point x="50" y="-187"/>
      <point x="75" y="-191"/>
      <point x="105" y="-191" type="curve" smooth="yes"/>
      <point x="232" y="-191"/>
      <point x="309" y="-129"/>
      <point x="385" y="0" type="curve" smooth="yes"/>
      <point x="677" y="500" type="line"/>
      <point x="515" y="500" type="line"/>
      <point x="409" y="294" type="line" smooth="yes"/>
      <point x="384" y="245"/>
      <point x="348" y="172"/>
      <point x="325" y="122" type="curve"/>
    </contour>
    <contour>
      <point x="353" y="80" type="line"/>
      <point x="344" y="143" type="line"/>
      <point x="339" y="186"/>
      <point x="329" y="247"/>
      <point x="321" y="294" type="curve" smooth="yes"/>
      <point x="284" y="500" type="line"/>
      <point x="126" y="500" type="line"/>
      <point x="239" y="-1" type="line"/>
    </contour>
  </outline>
</glyph>
<glyph name="z" format="1">
  <advance width="599"/>
  <unicode hex="007A"/>
  <outline>
    <contour>
      <point x="281" y="99" type="line"/>
      <point x="617" y="405" type="line"/>
      <point x="635" y="500" type="line"/>
      <point x="200" y="500" type="line"/>
      <point x="175" y="376" type="line"/>
      <point x="445" y="376" type="line"/>
      <point x="422" y="398" type="line"/>
      <point x="88" y="94" type="line"/>
      <point x="70" y="0" type="line"/>
      <point x="543" y="0" type="line"/>
      <point x="567" y="123" type="line"/>
      <point x="272" y="123" type="line"/>
    </contour>
  </outline>
</glyph>
<glyph name="braceleft" format="1">
  <advance width="600"/>
  <unicode hex="007B"/>
  <outline>
    <contour>
      <point x="220" y="-52" type="curve" smooth="yes"/>
      <point x="220" y="-116"/>
      <point x="259" y="-152"/>
      <point x="340" y="-152" type="curve" smooth="yes"/>
      <point x="466" y="-152" type="line"/>
      <point x="482" y="-68" type="line"/>
      <point x="410" y="-68" type="line" smooth="yes"/>
      <point x="374" y="-68"/>
      <point x="352" y="-56"/>
      <point x="352" y="-24" type="curve" smooth="yes"/>
      <point x="352" y="26"/>
      <point x="396" y="128"/>
      <point x="396" y="188" type="curve" smooth="yes"/>
      <point x="396" y="240"/>
      <point x="375" y="262"/>
      <point x="335" y="272" type="curve"/>
      <point x="336" y="276" type="line"/>
      <point x="391" y="288"/>
      <point x="424" y="320"/>
      <point x="440" y="400" type="curve" smooth="yes"/>
      <point x="451" y="458"/>
      <point x="457" y="505"/>
      <point x="467" y="556" type="curve" smooth="yes"/>
      <point x="478" y="608"/>
      <point x="505" y="624"/>
      <point x="547" y="624" type="curve" smooth="yes"/>
      <point x="621" y="624" type="line"/>
      <point x="639" y="708" type="line"/>
      <point x="511" y="708" type="line" smooth="yes"/>
      <point x="413" y="708"/>
      <point x="363" y="672"/>
      <point x="340" y="562" type="curve" smooth="yes"/>
      <point x="326" y="492"/>
      <point x="332" y="462"/>
      <point x="318" y="400" type="curve" smooth="yes"/>
      <point x="310" y="365"/>
      <point x="282" y="326"/>
      <point x="170" y="324" type="curve"/>
      <point x="150" y="232" type="line"/>
      <point x="254" y="230"/>
      <point x="270" y="197"/>
      <point x="270" y="162" type="curve" smooth="yes"/>
      <point x="270" y="121"/>
      <point x="220" y="22"/>
    </contour>
  </outline>
</glyph>
<glyph name="braceright" format="1">
  <advance width="600"/>
  <unicode hex="007D"/>
  <outline>
    <contour>
      <point x="494" y="608" type="curve" smooth="yes"/>
      <point x="494" y="672"/>
      <point x="455" y="708"/>
      <point x="374" y="708" type="curve" smooth="yes"/>
      <point x="248" y="708" type="line"/>
      <point x="232" y="624" type="line"/>
      <point x="304" y="624" type="line" smooth="yes"/>
      <point x="340" y="624"/>
      <point x="362" y="612"/>
      <point x="362" y="580" type="curve" smooth="yes"/>
      <point x="362" y="530"/>
      <point x="318" y="428"/>
      <point x="318" y="368" type="curve" smooth="yes"/>
      <point x="318" y="316"/>
      <point x="339" y="294"/>
      <point x="379" y="284" type="curve"/>
      <point x="378" y="280" type="line"/>
      <point x="323" y="268"/>
      <point x="290" y="236"/>
      <point x="274" y="156" type="curve" smooth="yes"/>
      <point x="263" y="98"/>
      <point x="257" y="51"/>
      <point x="247" y="0" type="curve" smooth="yes"/>
      <point x="236" y="-52"/>
      <point x="209" y="-68"/>
      <point x="167" y="-68" type="curve" smooth="yes"/>
      <point x="93" y="-68" type="line"/>
      <point x="75" y="-152" type="line"/>
      <point x="203" y="-152" type="line" smooth="yes"/>
      <point x="301" y="-152"/>
      <point x="351" y="-116"/>
      <point x="374" y="-6" type="curve" smooth="yes"/>
      <point x="388" y="64"/>
      <point x="382" y="94"/>
      <point x="396" y="156" type="curve" smooth="yes"/>
      <point x="404" y="191"/>
      <point x="432" y="230"/>
      <point x="544" y="232" type="curve"/>
      <point x="564" y="324" type="line"/>
      <point x="460" y="326"/>
      <point x="444" y="359"/>
      <point x="444" y="394" type="curve" smooth="yes"/>
      <point x="444" y="435"/>
      <point x="494" y="534"/>
    </contour>
  </outline>
</glyph>
<glyph name="asciitilde" format="1">
  <advance width="599"/>
  <unicode hex="007E"/>
  <outline>
    <contour>
      <point x="214" y="260" type="line"/>
      <point x="232" y="296"/>
      <point x="254" y="314"/>
      <point x="280" y="314" type="curve" smooth="yes"/>
      <point x="332" y="314"/>
      <point x="368" y="240"/>
      <point x="444" y="240" type="curve" smooth="yes"/>
      <point x="494" y="240"/>
      <point x="550" y="268"/>
      <point x="596" y="348" type="curve"/>
      <point x="516" y="402" type="line"/>
      <point x="498" y="366"/>
      <point x="476" y="348"/>
      <point x="450" y="348" type="curve" smooth="yes"/>
      <point x="398" y="348"/>
      <point x="362" y="422"/>
      <point x="286" y="422" type="curve" smooth="yes"/>
      <point x="236" y="422"/>
      <point x="180" y="394"/>
      <point x="134" y="314" type="curve"/>
    </contour>
  </outline>
</glyph>
<glyph name="cent" format="1">
  <advance width="600.0"/>
  <unicode hex="00A2"/>
  <outline>
    <contour>
      <point x="137" y="259" type="curve" smooth="yes"/>
      <point x="137" y="128"/>
      <point x="223" y="46"/>
      <point x="347" y="46" type="curve" smooth="yes"/>
      <point x="425" y="46"/>
      <point x="497" y="77"/>
      <point x="550" y="125" type="curve"/>
      <point x="493" y="223" type="line"/>
      <point x="464" y="201"/>
      <point x="433" y="177"/>
      <point x="382" y="177" type="curve" smooth="yes"/>
      <point x="329" y="177"/>
      <point x="294" y="209"/>
      <point x="294" y="273" type="curve" smooth="yes"/>
      <point x="294" y="365"/>
      <point x="355" y="438"/>
      <point x="443" y="438" type="curve" smooth="yes"/>
      <point x="487" y="438"/>
      <point x="506" y="419"/>
      <point x="528" y="398" type="curve"/>
      <point x="616" y="488" type="line"/>
      <point x="587" y="525"/>
      <point x="531" y="565"/>
      <point x="461" y="565" type="curve" smooth="yes"/>
      <point x="280" y="565"/>
      <point x="137" y="451"/>
    </contour>
    <contour>
      <point x="286" y="-52" type="line"/>
      <point x="372" y="-52" type="line"/>
      <point x="517" y="656" type="line"/>
      <point x="432" y="656" type="line"/>
    </contour>
  </outline>
</glyph>
<glyph name="sterling" format="1">
  <advance width="600"/>
  <unicode hex="00A3"/>
  <outline>
    <contour>
      <point x="12" y="0" type="line"/>
      <point x="458" y="0" type="line"/>
      <point x="482" y="134" type="line"/>
      <point x="246" y="134" type="line"/>
      <point x="248" y="138" type="line"/>
      <point x="298" y="188"/>
      <point x="318" y="232"/>
      <point x="318" y="306" type="curve" smooth="yes"/>
      <point x="318" y="332"/>
      <point x="312" y="368"/>
      <point x="312" y="394" type="curve" smooth="yes"/>
      <point x="312" y="490"/>
      <point x="348" y="518"/>
      <point x="396" y="518" type="curve" smooth="yes"/>
      <point x="426" y="518"/>
      <point x="454" y="502"/>
      <point x="476" y="474" type="curve"/>
      <point x="578" y="558" type="line"/>
      <point x="538" y="612"/>
      <point x="468" y="646"/>
      <point x="396" y="646" type="curve" smooth="yes"/>
      <point x="260" y="646"/>
      <point x="164" y="560"/>
      <point x="164" y="418" type="curve" smooth="yes"/>
      <point x="164" y="380"/>
      <point x="174" y="326"/>
      <point x="174" y="288" type="curve" smooth="yes"/>
      <point x="174" y="200"/>
      <point x="114" y="132"/>
      <point x="32" y="98" type="curve"/>
    </contour>
    <contour>
      <point x="64" y="270" type="line"/>
      <point x="453" y="270" type="line"/>
      <point x="472" y="364" type="line"/>
      <point x="167" y="364" type="line"/>
      <point x="82" y="358" type="line"/>
    </contour>
  </outline>
</glyph>
<glyph name="currency" format="1">
  <advance width="600"/>
  <unicode hex="00A4"/>
  <outline>
    <contour>
      <point x="283" y="312" type="curve" smooth="yes"/>
      <point x="283" y="378"/>
      <point x="331" y="424"/>
      <point x="385" y="424" type="curve" smooth="yes"/>
      <point x="423" y="424"/>
      <point x="450" y="396"/>
      <point x="450" y="351" type="curve" smooth="yes"/>
      <point x="450" y="285"/>
      <point x="401" y="240"/>
      <point x="348" y="240" type="curve" smooth="yes"/>
      <point x="309" y="240"/>
      <point x="283" y="268"/>
    </contour>
    <contour>
      <point x="477" y="486" type="line"/>
      <point x="552" y="405" type="line"/>
      <point x="676" y="504" type="line"/>
      <point x="604" y="592" type="line"/>
    </contour>
    <contour>
      <point x="325" y="479" type="line"/>
      <point x="230" y="598" type="line"/>
      <point x="131" y="516" type="line"/>
      <point x="241" y="388" type="line"/>
    </contour>
    <contour>
      <point x="177" y="236" type="line"/>
      <point x="66" y="142" type="line"/>
      <point x="143" y="63" type="line"/>
      <point x="271" y="179" type="line"/>
    </contour>
    <contour>
      <point x="261" y="531"/>
      <point x="141" y="422"/>
      <point x="141" y="296" type="curve" smooth="yes"/>
      <point x="141" y="190"/>
      <point x="215" y="129"/>
      <point x="326" y="129" type="curve" smooth="yes"/>
      <point x="474" y="129"/>
      <point x="591" y="235"/>
      <point x="591" y="363" type="curve" smooth="yes"/>
      <point x="591" y="452"/>
      <point x="529" y="531"/>
      <point x="406" y="531" type="curve" smooth="yes"/>
    </contour>
    <contour>
      <point x="513" y="240" type="line"/>
      <point x="421" y="161" type="line"/>
      <point x="503" y="55" type="line"/>
      <point x="599" y="134" type="line"/>
    </contour>
  </outline>
</glyph>
<glyph name="yen" format="1">
  <advance width="599"/>
  <unicode hex="00A5"/>
  <outline>
    <contour>
      <point x="599" y="261" type="curve"/>
      <point x="615" y="336" type="line"/>
      <point x="615" y="336"/>
      <point x="123" y="336"/>
      <point x="123" y="336" type="curve"/>
      <point x="107" y="261" type="line"/>
      <point x="107" y="261"/>
      <point x="599" y="261"/>
    </contour>
    <contour>
      <point x="574" y="134" type="curve"/>
      <point x="590" y="208" type="line"/>
      <point x="590" y="208"/>
      <point x="98" y="208"/>
      <point x="98" y="208" type="curve"/>
      <point x="82" y="134" type="line"/>
      <point x="82" y="134"/>
      <point x="574" y="134"/>
    </contour>
    <contour>
      <point x="433" y="275" type="curve"/>
      <point x="699" y="635" type="line"/>
      <point x="539" y="635" type="line"/>
      <point x="459" y="507" type="line" smooth="yes"/>
      <point x="432" y="464"/>
      <point x="400" y="409"/>
      <point x="378" y="365" type="curve"/>
      <point x="374" y="365" type="line"/>
      <point x="367" y="410"/>
      <point x="356" y="463"/>
      <point x="346" y="507" type="curve" smooth="yes"/>
      <point x="314" y="635" type="line"/>
      <point x="154" y="635" type="line"/>
      <point x="276" y="283" type="line"/>
      <point x="276" y="283"/>
      <point x="221" y="0"/>
      <point x="221" y="0" type="curve"/>
      <point x="382" y="0" type="line"/>
      <point x="382" y="0"/>
      <point x="433" y="275"/>
    </contour>
  </outline>
</glyph>
<glyph name="brokenbar" format="1">
  <advance width="599"/>
  <unicode hex="00A6"/>
  <outline>
    <contour>
      <point x="293" y="315" type="line"/>
      <point x="433" y="315" type="line"/>
      <point x="519" y="750" type="line"/>
      <point x="380" y="750" type="line"/>
    </contour>
    <contour>
      <point x="270" y="202" type="line"/>
      <point x="180" y="-250" type="line"/>
      <point x="320" y="-250" type="line"/>
      <point x="410" y="202" type="line"/>
    </contour>
  </outline>
</glyph>
<glyph name="section" format="1">
  <advance width="600"/>
  <unicode hex="00A7"/>
  <outline>
    <contour>
      <point x="376.0" y="198.0" type="curve"/>
      <point x="456.0" y="122.0" type="line"/>
      <point x="534.0" y="156.0"/>
      <point x="584.0" y="210.0"/>
      <point x="584.0" y="292.0" type="curve" smooth="yes"/>
      <point x="584.0" y="377.0"/>
      <point x="520" y="422"/>
      <point x="453.0" y="464.0" type="curve" smooth="yes"/>
      <point x="399" y="498"/>
      <point x="370" y="513"/>
      <point x="370" y="537" type="curve" smooth="yes"/>
      <point x="370" y="561"/>
      <point x="388.0" y="572.0"/>
      <point x="412.0" y="572.0" type="curve" smooth="yes"/>
      <point x="450.0" y="572.0"/>
      <point x="480" y="548"/>
      <point x="505" y="522" type="curve"/>
      <point x="591" y="606" type="line"/>
      <point x="543" y="659"/>
      <point x="476.0" y="692.0"/>
      <point x="412.0" y="692.0" type="curve" smooth="yes"/>
      <point x="300.0" y="692.0"/>
      <point x="226.0" y="618.0"/>
      <point x="226.0" y="520.0" type="curve" smooth="yes"/>
      <point x="226.0" y="434.0"/>
      <point x="306.0" y="391.0"/>
      <point x="370.0" y="352.0" type="curve" smooth="yes"/>
      <point x="412.0" y="328.0"/>
      <point x="446" y="305"/>
      <point x="446" y="269" type="curve" smooth="yes"/>
      <point x="446" y="230"/>
      <point x="418.0" y="208.0"/>
    </contour>
    <contour>
      <point x="86" y="11" type="line"/>
      <point x="141" y="-52"/>
      <point x="217" y="-81"/>
      <point x="291" y="-81" type="curve" smooth="yes"/>
      <point x="411" y="-81"/>
      <point x="491" y="-13"/>
      <point x="491" y="93" type="curve" smooth="yes"/>
      <point x="491" y="180"/>
      <point x="402" y="224"/>
      <point x="348" y="257" type="curve" smooth="yes"/>
      <point x="304" y="284"/>
      <point x="276" y="302"/>
      <point x="276" y="335" type="curve" smooth="yes"/>
      <point x="276" y="374"/>
      <point x="312.0" y="396.0"/>
      <point x="348.0" y="404.0" type="curve"/>
      <point x="280.0" y="474.0" type="line"/>
      <point x="202.0" y="450.0"/>
      <point x="140.0" y="392.0"/>
      <point x="140.0" y="312.0" type="curve" smooth="yes"/>
      <point x="140.0" y="231.0"/>
      <point x="188" y="189"/>
      <point x="252" y="152" type="curve" smooth="yes"/>
      <point x="300" y="124"/>
      <point x="347" y="104"/>
      <point x="347" y="75" type="curve" smooth="yes"/>
      <point x="347" y="51"/>
      <point x="330" y="37"/>
      <point x="291" y="37" type="curve" smooth="yes"/>
      <point x="242" y="37"/>
      <point x="199" y="69"/>
      <point x="166" y="104" type="curve"/>
    </contour>
  </outline>
</glyph>
<glyph name="copyright" format="1">
  <advance width="600"/>
  <unicode hex="00A9"/>
  <outline>
    <contour>
      <point x="72" y="254" type="curve" smooth="yes"/>
      <point x="72" y="92"/>
      <point x="164" y="-8"/>
      <point x="294" y="-8" type="curve" smooth="yes"/>
      <point x="505" y="-8"/>
      <point x="654" y="153"/>
      <point x="654" y="396" type="curve" smooth="yes"/>
      <point x="654" y="558"/>
      <point x="562" y="654"/>
      <point x="432" y="656" type="curve" smooth="yes"/>
      <point x="234" y="659"/>
      <point x="72" y="499"/>
    </contour>
    <contour>
      <point x="141" y="261" type="curve" smooth="yes"/>
      <point x="141" y="453"/>
      <point x="262" y="592"/>
      <point x="417" y="592" type="curve" smooth="yes"/>
      <point x="524" y="592"/>
      <point x="585" y="512"/>
      <point x="585" y="389" type="curve" smooth="yes"/>
      <point x="585" y="199"/>
      <point x="463" y="55"/>
      <point x="307" y="55" type="curve" smooth="yes"/>
      <point x="202" y="55"/>
      <point x="141" y="133"/>
    </contour>
    <contour>
      <point x="202" y="280" type="curve" smooth="yes"/>
      <point x="202" y="187"/>
      <point x="253" y="128"/>
      <point x="339" y="128" type="curve" smooth="yes"/>
      <point x="391" y="128"/>
      <point x="436" y="148"/>
      <point x="466" y="174" type="curve"/>
      <point x="426" y="248" type="line"/>
      <point x="406" y="233"/>
      <point x="387" y="221"/>
      <point x="362" y="222" type="curve" smooth="yes"/>
      <point x="333" y="223"/>
      <point x="316" y="244"/>
      <point x="316" y="286" type="curve" smooth="yes"/>
      <point x="316" y="359"/>
      <point x="351" y="424"/>
      <point x="412" y="424" type="curve" smooth="yes"/>
      <point x="432" y="424"/>
      <point x="446" y="415"/>
      <point x="458" y="397" type="curve"/>
      <point x="526" y="456" type="line"/>
      <point x="504" y="490"/>
      <point x="470" y="517"/>
      <point x="415" y="517" type="curve" smooth="yes"/>
      <point x="302" y="517"/>
      <point x="202" y="424"/>
    </contour>
  </outline>
</glyph>
<glyph name="logicalnot" format="1">
  <advance width="599"/>
  <unicode hex="00AC"/>
  <outline>
    <contour>
      <point x="142" y="274" type="line"/>
      <point x="476" y="274" type="line"/>
      <point x="476" y="92" type="line"/>
      <point x="590" y="92" type="line"/>
      <point x="590" y="386" type="line"/>
      <point x="142" y="386" type="line"/>
    </contour>
  </outline>
</glyph>
<glyph name="registered" format="1">
  <advance width="600"/>
  <unicode hex="00AE"/>
  <outline>
    <contour>
      <point x="367" y="310" type="curve" smooth="yes"/>
      <point x="508" y="310"/>
      <point x="612" y="413"/>
      <point x="612" y="548" type="curve" smooth="yes"/>
      <point x="612" y="646"/>
      <point x="544" y="716"/>
      <point x="448" y="716" type="curve" smooth="yes"/>
      <point x="309" y="716"/>
      <point x="203" y="612"/>
      <point x="203" y="477" type="curve" smooth="yes"/>
      <point x="203" y="379"/>
      <point x="270" y="310"/>
    </contour>
    <contour>
      <point x="377" y="360" type="curve" smooth="yes"/>
      <point x="305" y="360"/>
      <point x="260" y="408"/>
      <point x="260" y="481" type="curve" smooth="yes"/>
      <point x="260" y="589"/>
      <point x="340" y="667"/>
      <point x="438" y="667" type="curve" smooth="yes"/>
      <point x="509" y="667"/>
      <point x="554" y="617"/>
      <point x="554" y="544" type="curve" smooth="yes"/>
      <point x="554" y="436"/>
      <point x="475" y="360"/>
    </contour>
    <contour>
      <point x="393" y="479" type="line"/>
      <point x="422" y="416" type="line"/>
      <point x="485" y="416" type="line"/>
      <point x="450" y="492" type="line"/>
    </contour>
    <contour>
      <point x="386" y="567" type="line"/>
      <point x="416" y="567" type="line" smooth="yes"/>
      <point x="432" y="567"/>
      <point x="440" y="558"/>
      <point x="440" y="546" type="curve" smooth="yes"/>
      <point x="440" y="531"/>
      <point x="427" y="516"/>
      <point x="405" y="516" type="curve" smooth="yes"/>
      <point x="370" y="516" type="line"/>
      <point x="366" y="474" type="line"/>
      <point x="398" y="474" type="line" smooth="yes"/>
      <point x="464" y="474"/>
      <point x="506" y="507"/>
      <point x="506" y="554" type="curve" smooth="yes"/>
      <point x="506" y="594"/>
      <point x="477" y="612"/>
      <point x="436" y="612" type="curve" smooth="yes"/>
      <point x="345" y="612" type="line"/>
      <point x="306" y="416" type="line"/>
      <point x="366" y="416" type="line"/>
      <point x="366" y="416"/>
      <point x="397" y="572"/>
      <point x="397" y="572" type="curve"/>
    </contour>
  </outline>
</glyph>
<glyph name="degree" format="1">
  <advance width="600"/>
  <unicode hex="00B0"/>
  <outline>
    <contour>
      <point x="385" y="393" type="curve" smooth="yes"/>
      <point x="487" y="393"/>
      <point x="565" y="463"/>
      <point x="565" y="565" type="curve" smooth="yes"/>
      <point x="565" y="635"/>
      <point x="520" y="686"/>
      <point x="441" y="686" type="curve" smooth="yes"/>
      <point x="342" y="686"/>
      <point x="263" y="616"/>
      <point x="263" y="514" type="curve" smooth="yes"/>
      <point x="263" y="443"/>
      <point x="314" y="393"/>
    </contour>
    <contour>
      <point x="400" y="466" type="curve" smooth="yes"/>
      <point x="366" y="466"/>
      <point x="346" y="489"/>
      <point x="346" y="525" type="curve" smooth="yes"/>
      <point x="346" y="573"/>
      <point x="382" y="616"/>
      <point x="430" y="616" type="curve" smooth="yes"/>
      <point x="464" y="616"/>
      <point x="482" y="593"/>
      <point x="482" y="556" type="curve" smooth="yes"/>
      <point x="482" y="506"/>
      <point x="447" y="466"/>
    </contour>
  </outline>
</glyph>
<glyph name="plusminus" format="1">
  <advance width="599"/>
  <unicode hex="00B1"/>
  <outline>
    <contour>
      <point x="306" y="164" type="line"/>
      <point x="422" y="164" type="line"/>
      <point x="422" y="310" type="line"/>
      <point x="590" y="310" type="line"/>
      <point x="590" y="422" type="line"/>
      <point x="424" y="422" type="line"/>
      <point x="424" y="568" type="line"/>
      <point x="308" y="568" type="line"/>
      <point x="308" y="422" type="line"/>
      <point x="142" y="422" type="line"/>
      <point x="142" y="310" type="line"/>
      <point x="306" y="310" type="line"/>
    </contour>
    <contour>
      <point x="590" y="0" type="line"/>
      <point x="590" y="112" type="line"/>
      <point x="142" y="112" type="line"/>
      <point x="142" y="0" type="line"/>
    </contour>
  </outline>
</glyph>
<glyph name="paragraph" format="1">
  <advance width="600"/>
  <unicode hex="00B6"/>
  <outline>
    <contour>
      <point x="295" y="-80" type="line"/>
      <point x="455" y="-80" type="line"/>
      <point x="599" y="650" type="line"/>
      <point x="439" y="650" type="line"/>
    </contour>
    <contour>
      <point x="273" y="190" type="curve" smooth="yes"/>
      <point x="293" y="190" type="line"/>
      <point x="385" y="650" type="line"/>
      <point x="359" y="650" type="line" smooth="yes"/>
      <point x="201" y="650"/>
      <point x="59" y="570"/>
      <point x="59" y="376" type="curve" smooth="yes"/>
      <point x="59" y="256"/>
      <point x="159" y="190"/>
    </contour>
  </outline>
</glyph>
<glyph name="questiondown" format="1">
  <advance width="600"/>
  <unicode hex="00BF"/>
  <outline>
    <contour>
      <point x="435" y="239" type="curve"/>
      <point x="297" y="239" type="line"/>
      <point x="285" y="116"/>
      <point x="93" y="109"/>
      <point x="93" y="-49" type="curve" smooth="yes"/>
      <point x="93" y="-141"/>
      <point x="169" y="-184"/>
      <point x="272" y="-184" type="curve" smooth="yes"/>
      <point x="351" y="-184"/>
      <point x="427" y="-147"/>
      <point x="486" y="-92" type="curve"/>
      <point x="415" y="-13" type="line"/>
      <point x="380" y="-39"/>
      <point x="348" y="-57"/>
      <point x="308" y="-57" type="curve" smooth="yes"/>
      <point x="275" y="-57"/>
      <point x="250" y="-42"/>
      <point x="250" y="-10" type="curve" smooth="yes"/>
      <point x="250" y="68"/>
      <point x="429" y="101"/>
    </contour>
    <contour>
      <point x="502" y="423" type="curve" smooth="yes"/>
      <point x="502" y="474"/>
      <point x="469" y="510"/>
      <point x="417" y="510" type="curve" smooth="yes"/>
      <point x="348" y="510"/>
      <point x="289" y="455"/>
      <point x="289" y="385" type="curve" smooth="yes"/>
      <point x="289" y="335"/>
      <point x="322" y="300"/>
      <point x="375" y="300" type="curve" smooth="yes"/>
      <point x="444" y="300"/>
      <point x="502" y="353"/>
    </contour>
  </outline>
</glyph>
<glyph name="AE" format="1">
  <advance width="600"/>
  <unicode hex="00C6"/>
  <outline>
    <contour>
      <point x="-66" y="0" type="line"/>
      <point x="96" y="0" type="line"/>
      <point x="263" y="353" type="line" smooth="yes"/>
      <point x="289" y="408"/>
      <point x="318" y="469"/>
      <point x="347" y="533" type="curve"/>
      <point x="351" y="533" type="line"/>
      <point x="244" y="0" type="line"/>
      <point x="526" y="0" type="line"/>
      <point x="552" y="134" type="line"/>
      <point x="410" y="134" type="line"/>
      <point x="437" y="268" type="line"/>
      <point x="546" y="268" type="line"/>
      <point x="572" y="402" type="line"/>
      <point x="464" y="402" type="line"/>
      <point x="487" y="516" type="line"/>
      <point x="620" y="516" type="line"/>
      <point x="646" y="650" type="line"/>
      <point x="268" y="650" type="line"/>
    </contour>
    <contour>
      <point x="95" y="144" type="line"/>
      <point x="332" y="144" type="line"/>
      <point x="356" y="264" type="line"/>
      <point x="119" y="264" type="line"/>
    </contour>
    <contour>
      <point x="453" y="672" type="move" name="aboveUC"/>
    </contour>
  </outline>
</glyph>
<glyph name="Eth" format="1">
  <advance width="600"/>
  <unicode hex="00D0"/>
  <outline>
    <contour>
      <point x="324" y="324" type="line"/>
      <point x="334" y="368" type="line"/>
      <point x="107" y="368" type="line"/>
      <point x="36" y="365" type="line"/>
      <point x="27" y="324" type="line"/>
    </contour>
    <component base="D" xOffset="15"/>
    <contour>
      <point x="364" y="676" type="move" name="aboveUC"/>
    </contour>
    <contour>
      <point x="224" y="-20" type="move" name="belowLC"/>
    </contour>
  </outline>
</glyph>
<glyph name="multiply" format="1">
  <advance width="600"/>
  <unicode hex="00D7"/>
  <outline>
    <contour>
      <point x="155" y="134" type="line"/>
      <point x="305" y="291" type="line"/>
      <point x="456" y="134" type="line"/>
      <point x="496" y="174" type="line"/>
      <point x="346" y="331" type="line"/>
      <point x="496" y="487" type="line"/>
      <point x="456" y="527" type="line"/>
      <point x="305" y="371" type="line"/>
      <point x="155" y="527" type="line"/>
      <point x="115" y="487" type="line"/>
      <point x="265" y="331" type="line"/>
      <point x="115" y="174" type="line"/>
    </contour>
  </outline>
</glyph>
<glyph name="Oslash" format="1">
  <advance width="600"/>
  <unicode hex="00D8"/>
  <outline>
    <contour>
      <point x="253" y="-12" type="curve" smooth="yes"/>
      <point x="444" y="-12"/>
      <point x="581" y="154"/>
      <point x="581" y="394" type="curve" smooth="yes"/>
      <point x="581" y="562"/>
      <point x="494" y="662"/>
      <point x="358" y="662" type="curve" smooth="yes"/>
      <point x="166" y="662"/>
      <point x="26" y="484"/>
      <point x="26" y="253" type="curve" smooth="yes"/>
      <point x="26" y="87"/>
      <point x="115" y="-12"/>
    </contour>
    <contour>
      <point x="268" y="125" type="curve" smooth="yes"/>
      <point x="209" y="125"/>
      <point x="186" y="171"/>
      <point x="186" y="253" type="curve" smooth="yes"/>
      <point x="186" y="403"/>
      <point x="259" y="527"/>
      <point x="341" y="527" type="curve" smooth="yes"/>
      <point x="400" y="527"/>
      <point x="421" y="474"/>
      <point x="421" y="394" type="curve" smooth="yes"/>
      <point x="421" y="242"/>
      <point x="352" y="125"/>
    </contour>
    <contour>
      <point x="44" y="-43" type="line"/>
      <point x="654" y="641" type="line"/>
      <point x="581" y="694" type="line"/>
      <point x="-28" y="10" type="line"/>
    </contour>
    <contour>
      <point x="246" y="672" type="move" name="aboveUC"/>
    </contour>
  </outline>
</glyph>
<glyph name="Thorn" format="1">
  <advance width="600"/>
  <unicode hex="00DE"/>
  <outline>
    <contour>
      <point x="69" y="0" type="line"/>
      <point x="227" y="0" type="line"/>
      <point x="251" y="116" type="line"/>
      <point x="321" y="116" type="line" smooth="yes"/>
      <point x="483" y="116"/>
      <point x="629" y="186"/>
      <point x="629" y="376" type="curve" smooth="yes"/>
      <point x="629" y="506"/>
      <point x="535" y="554"/>
      <point x="417" y="554" type="curve" smooth="yes"/>
      <point x="339" y="554" type="line"/>
      <point x="359" y="650" type="line"/>
      <point x="199" y="650" type="line"/>
    </contour>
    <contour>
      <point x="277" y="242" type="line"/>
      <point x="313" y="428" type="line"/>
      <point x="385" y="428" type="line" smooth="yes"/>
      <point x="439" y="428"/>
      <point x="471" y="404"/>
      <point x="471" y="352" type="curve" smooth="yes"/>
      <point x="471" y="280"/>
      <point x="423" y="242"/>
      <point x="339" y="242" type="curve" smooth="yes"/>
    </contour>
  </outline>
</glyph>
<glyph name="germandbls" format="1">
  <advance width="600"/>
  <unicode hex="00DF"/>
  <outline>
    <contour>
      <point x="56" y="0" type="line"/>
      <point x="216" y="0" type="line"/>
      <point x="310" y="468" type="line" smooth="yes"/>
      <point x="324" y="539"/>
      <point x="351" y="582"/>
      <point x="396" y="582" type="curve" smooth="yes"/>
      <point x="427" y="582"/>
      <point x="438" y="562"/>
      <point x="438" y="528" type="curve" smooth="yes"/>
      <point x="438" y="448"/>
      <point x="344" y="424"/>
      <point x="344" y="338" type="curve" smooth="yes"/>
      <point x="344" y="236"/>
      <point x="460" y="210"/>
      <point x="460" y="154" type="curve" smooth="yes"/>
      <point x="460" y="124"/>
      <point x="439" y="106"/>
      <point x="409" y="106" type="curve" smooth="yes"/>
      <point x="374" y="106"/>
      <point x="349" y="120"/>
      <point x="325" y="136" type="curve"/>
      <point x="264" y="30" type="line"/>
      <point x="310" y="0"/>
      <point x="362" y="-12"/>
      <point x="414" y="-12" type="curve" smooth="yes"/>
      <point x="534" y="-12"/>
      <point x="608" y="68"/>
      <point x="608" y="170" type="curve" smooth="yes"/>
      <point x="608" y="284"/>
      <point x="500" y="316"/>
      <point x="500" y="366" type="curve" smooth="yes"/>
      <point x="500" y="418"/>
      <point x="592" y="444"/>
      <point x="592" y="552" type="curve" smooth="yes"/>
      <point x="592" y="662"/>
      <point x="502" y="708"/>
      <point x="402" y="708" type="curve" smooth="yes"/>
      <point x="264" y="708"/>
      <point x="179" y="618"/>
      <point x="156" y="498" type="curve" smooth="yes"/>
    </contour>
  </outline>
</glyph>
<glyph name="ae" format="1">
  <advance width="599"/>
  <unicode hex="00E6"/>
  <outline>
    <contour>
      <point x="40" y="108" type="curve" smooth="yes"/>
      <point x="40" y="41"/>
      <point x="76" y="-12"/>
      <point x="152" y="-12" type="curve" smooth="yes"/>
      <point x="197" y="-12"/>
      <point x="242" y="10"/>
      <point x="305" y="63" type="curve"/>
      <point x="329" y="17"/>
      <point x="370" y="-12"/>
      <point x="441" y="-12" type="curve" smooth="yes"/>
      <point x="481" y="-12"/>
      <point x="539" y="5"/>
      <point x="584" y="35" type="curve"/>
      <point x="551" y="136" type="line"/>
      <point x="521" y="118"/>
      <point x="497" y="111"/>
      <point x="472" y="111" type="curve" smooth="yes"/>
      <point x="429" y="111"/>
      <point x="403" y="139"/>
      <point x="403" y="202" type="curve"/>
      <point x="626" y="202" type="line"/>
      <point x="634" y="223"/>
      <point x="654" y="265"/>
      <point x="654" y="336" type="curve" smooth="yes"/>
      <point x="654" y="432"/>
      <point x="617" y="510"/>
      <point x="538" y="510" type="curve" smooth="yes"/>
      <point x="481" y="510"/>
      <point x="442" y="487"/>
      <point x="398" y="440" type="curve"/>
      <point x="383" y="483"/>
      <point x="354" y="510"/>
      <point x="297" y="510" type="curve" smooth="yes"/>
      <point x="241" y="510"/>
      <point x="183" y="489"/>
      <point x="120" y="454" type="curve"/>
      <point x="154" y="351" type="line"/>
      <point x="194" y="372"/>
      <point x="236" y="385"/>
      <point x="262" y="385" type="curve" smooth="yes"/>
      <point x="295" y="385"/>
      <point x="305" y="363"/>
      <point x="302" y="322" type="curve"/>
      <point x="120" y="287"/>
      <point x="40" y="230"/>
    </contour>
    <contour>
      <point x="421" y="298" type="line"/>
      <point x="440" y="362"/>
      <point x="471" y="390"/>
      <point x="499" y="390" type="curve" smooth="yes"/>
      <point x="535" y="390"/>
      <point x="537" y="348"/>
      <point x="527" y="298" type="curve"/>
    </contour>
    <contour>
      <point x="186" y="143" type="curve" smooth="yes"/>
      <point x="186" y="180"/>
      <point x="213" y="212"/>
      <point x="281" y="227" type="curve"/>
      <point x="279" y="207" type="line" smooth="yes"/>
      <point x="276" y="184"/>
      <point x="275" y="157"/>
      <point x="278" y="138" type="curve"/>
      <point x="259" y="120"/>
      <point x="237" y="109"/>
      <point x="220" y="109" type="curve" smooth="yes"/>
      <point x="198" y="109"/>
      <point x="186" y="121"/>
    </contour>
  </outline>
</glyph>
<glyph name="eth" format="1">
  <advance width="600"/>
  <unicode hex="00F0"/>
  <outline>
    <contour>
      <point x="82" y="198" type="curve" smooth="yes"/>
      <point x="82" y="58"/>
      <point x="180" y="-12"/>
      <point x="303" y="-12" type="curve" smooth="yes"/>
      <point x="487" y="-12"/>
      <point x="621" y="111"/>
      <point x="621" y="339" type="curve" smooth="yes"/>
      <point x="621" y="539"/>
      <point x="503" y="685"/>
      <point x="334" y="755" type="curve"/>
      <point x="266" y="644" type="line"/>
      <point x="406" y="571"/>
      <point x="468" y="488"/>
      <point x="468" y="344" type="curve" smooth="yes"/>
      <point x="468" y="182"/>
      <point x="397" y="116"/>
      <point x="318" y="116" type="curve" smooth="yes"/>
      <point x="265" y="116"/>
      <point x="236" y="146"/>
      <point x="236" y="207" type="curve" smooth="yes"/>
      <point x="236" y="281"/>
      <point x="285" y="340"/>
      <point x="361" y="340" type="curve" smooth="yes"/>
      <point x="413" y="340"/>
      <point x="446" y="322"/>
      <point x="473" y="282" type="curve"/>
      <point x="485" y="363" type="line"/>
      <point x="468" y="410"/>
      <point x="424" y="455"/>
      <point x="329" y="455" type="curve" smooth="yes"/>
      <point x="204" y="455"/>
      <point x="82" y="359"/>
    </contour>
    <contour>
      <point x="268" y="481" type="line"/>
      <point x="653" y="660" type="line"/>
      <point x="626" y="730" type="line"/>
      <point x="241" y="550" type="line"/>
    </contour>
  </outline>
</glyph>
<glyph name="divide" format="1">
  <advance width="600"/>
  <unicode hex="00F7"/>
  <outline>
    <contour>
      <point x="306" y="430" type="curve" smooth="yes"/>
      <point x="354" y="430"/>
      <point x="392" y="464"/>
      <point x="392" y="512" type="curve" smooth="yes"/>
      <point x="392" y="558"/>
      <point x="354" y="592"/>
      <point x="306" y="592" type="curve" smooth="yes"/>
      <point x="258" y="592"/>
      <point x="220" y="558"/>
      <point x="220" y="512" type="curve" smooth="yes"/>
      <point x="220" y="464"/>
      <point x="258" y="430"/>
    </contour>
    <contour>
      <point x="306" y="68" type="curve" smooth="yes"/>
      <point x="354" y="68"/>
      <point x="392" y="100"/>
      <point x="392" y="148" type="curve" smooth="yes"/>
      <point x="392" y="194"/>
      <point x="354" y="230"/>
      <point x="306" y="230" type="curve" smooth="yes"/>
      <point x="258" y="230"/>
      <point x="220" y="194"/>
      <point x="220" y="148" type="curve" smooth="yes"/>
      <point x="220" y="100"/>
      <point x="258" y="68"/>
    </contour>
    <contour>
      <point x="74" y="274" type="line"/>
      <point x="536" y="274" type="line"/>
      <point x="536" y="386" type="line"/>
      <point x="74" y="386" type="line"/>
    </contour>
  </outline>
</glyph>
<glyph name="oslash" format="1">
  <advance width="600"/>
  <unicode hex="00F8"/>
  <outline>
    <contour>
      <point x="89" y="200" type="curve" smooth="yes"/>
      <point x="89" y="66"/>
      <point x="183" y="-12"/>
      <point x="298" y="-12" type="curve" smooth="yes"/>
      <point x="447" y="-12"/>
      <point x="611" y="105"/>
      <point x="611" y="297" type="curve" smooth="yes"/>
      <point x="611" y="431"/>
      <point x="517" y="510"/>
      <point x="402" y="510" type="curve" smooth="yes"/>
      <point x="252" y="510"/>
      <point x="89" y="393"/>
    </contour>
    <contour>
      <point x="251" y="207" type="curve" smooth="yes"/>
      <point x="251" y="298"/>
      <point x="294" y="388"/>
      <point x="378" y="388" type="curve" smooth="yes"/>
      <point x="427" y="388"/>
      <point x="449" y="348"/>
      <point x="449" y="291" type="curve" smooth="yes"/>
      <point x="449" y="199"/>
      <point x="406" y="110"/>
      <point x="322" y="110" type="curve" smooth="yes"/>
      <point x="273" y="110"/>
      <point x="251" y="150"/>
    </contour>
    <contour>
      <point x="65" y="19" type="line"/>
      <point x="114" y="-26" type="line"/>
      <point x="635" y="480" type="line"/>
      <point x="586" y="525" type="line"/>
    </contour>
  </outline>
</glyph>
<glyph name="thorn" format="1">
  <advance width="600"/>
  <unicode hex="00FE"/>
  <outline>
    <contour>
      <point x="219" y="-38" type="line"/>
      <point x="231" y="40" type="line"/>
      <point x="258" y="10"/>
      <point x="292" y="-12"/>
      <point x="340" y="-12" type="curve" smooth="yes"/>
      <point x="465" y="-12"/>
      <point x="615" y="113"/>
      <point x="615" y="320" type="curve" smooth="yes"/>
      <point x="615" y="435"/>
      <point x="559" y="510"/>
      <point x="459" y="510" type="curve" smooth="yes"/>
      <point x="411" y="510"/>
      <point x="359" y="490"/>
      <point x="314" y="456" type="curve"/>
      <point x="333" y="529" type="line"/>
      <point x="366" y="699" type="line"/>
      <point x="209" y="699" type="line"/>
      <point x="33" y="-181" type="line"/>
      <point x="191" y="-181" type="line"/>
    </contour>
    <contour>
      <point x="256" y="146" type="curve"/>
      <point x="295" y="339" type="line"/>
      <point x="329" y="369"/>
      <point x="357" y="381"/>
      <point x="386" y="381" type="curve" smooth="yes"/>
      <point x="430" y="381"/>
      <point x="451" y="354"/>
      <point x="451" y="299" type="curve" smooth="yes"/>
      <point x="451" y="174"/>
      <point x="388" y="117"/>
      <point x="328" y="117" type="curve" smooth="yes"/>
      <point x="304" y="117"/>
      <point x="276" y="124"/>
    </contour>
  </outline>
</glyph>
<glyph name="Aogonek" format="1">
  <advance width="600.0"/>
  <unicode hex="0104"/>
  <outline>
    <contour>
      <point x="530" y="0" type="curve"/>
      <point x="468.0" y="650.0" type="line"/>
      <point x="276.0" y="650.0" type="line"/>
      <point x="-50.0" y="0.0" type="line"/>
      <point x="126.0" y="0.0" type="line"/>
      <point x="270.0" y="344.0" type="line" smooth="yes"/>
      <point x="297.0" y="407.0"/>
      <point x="319.0" y="466.0"/>
      <point x="344.0" y="530.0" type="curve"/>
      <point x="348.0" y="530.0" type="line"/>
      <point x="348.0" y="464.0"/>
      <point x="350.0" y="406.0"/>
      <point x="352.0" y="344.0" type="curve" smooth="yes"/>
      <point x="362.0" y="0.0" type="line"/>
      <point x="404" y="0" type="line"/>
      <point x="364" y="-20"/>
      <point x="296" y="-75"/>
      <point x="296" y="-145" type="curve" smooth="yes"/>
      <point x="296" y="-199"/>
      <point x="335" y="-225"/>
      <point x="390" y="-225" type="curve"/>
      <point x="433" y="-225"/>
      <point x="482" y="-211"/>
      <point x="513" y="-190" type="curve"/>
      <point x="494" y="-112" type="line"/>
      <point x="483" y="-118"/>
      <point x="465" y="-124"/>
      <point x="449" y="-124" type="curve" smooth="yes"/>
      <point x="431" y="-124"/>
      <point x="420" y="-113"/>
      <point x="420" y="-95" type="curve" smooth="yes"/>
      <point x="420" y="-55"/>
      <point x="472" y="-4"/>
    </contour>
    <contour>
      <point x="114" y="148" type="line"/>
      <point x="416" y="148" type="line"/>
      <point x="444" y="268" type="line"/>
      <point x="142" y="268" type="line"/>
    </contour>
    <contour>
      <point x="240" y="672" type="move" name="aboveUC"/>
    </contour>
  </outline>
</glyph>
<glyph name="aogonek" format="1">
  <advance width="600"/>
  <unicode hex="0105"/>
  <outline>
    <contour>
      <point x="352" y="-228" type="curve" smooth="yes"/>
      <point x="400" y="-228"/>
      <point x="444" y="-212"/>
      <point x="476" y="-188" type="curve"/>
      <point x="450" y="-124" type="line"/>
      <point x="434" y="-132"/>
      <point x="424" y="-134"/>
      <point x="410" y="-134" type="curve" smooth="yes"/>
      <point x="386" y="-134"/>
      <point x="364" y="-120"/>
      <point x="364" y="-94" type="curve" smooth="yes"/>
      <point x="364" y="-62"/>
      <point x="390" y="-24"/>
      <point x="480" y="0" type="curve"/>
      <point x="580" y="500" type="line"/>
      <point x="452" y="500" type="line"/>
      <point x="430" y="450" type="line"/>
      <point x="426" y="450" type="line"/>
      <point x="404" y="488"/>
      <point x="358" y="512"/>
      <point x="294" y="512" type="curve" smooth="yes"/>
      <point x="156" y="512"/>
      <point x="28" y="366"/>
      <point x="28" y="182" type="curve" smooth="yes"/>
      <point x="28" y="58"/>
      <point x="90" y="-12"/>
      <point x="189" y="-12" type="curve" smooth="yes"/>
      <point x="242" y="-12"/>
      <point x="300" y="16"/>
      <point x="346" y="66" type="curve"/>
      <point x="350" y="66" type="line"/>
      <point x="350" y="2" type="line"/>
      <point x="314" y="-18"/>
      <point x="250" y="-72"/>
      <point x="250" y="-140" type="curve" smooth="yes"/>
      <point x="250" y="-198"/>
      <point x="292" y="-228"/>
    </contour>
    <contour>
      <point x="250" y="118" type="curve" smooth="yes"/>
      <point x="216" y="118"/>
      <point x="194" y="143"/>
      <point x="194" y="202" type="curve" smooth="yes"/>
      <point x="194" y="308"/>
      <point x="256" y="382"/>
      <point x="324" y="382" type="curve" smooth="yes"/>
      <point x="345" y="382"/>
      <point x="377" y="370"/>
      <point x="391" y="344" type="curve"/>
      <point x="358" y="188" type="line"/>
      <point x="324" y="138"/>
      <point x="282" y="118"/>
    </contour>
    <contour>
      <point x="344" y="522" type="move" name="aboveLC"/>
    </contour>
  </outline>
</glyph>
<glyph name="dcaron" format="1">
  <advance width="600"/>
  <unicode hex="010F"/>
  <outline>
    <contour>
      <point x="193" y="-12" type="curve" smooth="yes"/>
      <point x="253" y="-12"/>
      <point x="314" y="17"/>
      <point x="363" y="66" type="curve"/>
      <point x="367" y="66" type="line"/>
      <point x="361" y="0" type="line"/>
      <point x="424" y="0" type="line"/>
      <point x="567" y="712" type="line"/>
      <point x="491" y="712" type="line"/>
      <point x="453" y="526" type="line"/>
      <point x="437" y="431" type="line"/>
      <point x="434" y="431" type="line"/>
      <point x="407" y="472"/>
      <point x="361" y="498"/>
      <point x="302" y="498" type="curve" smooth="yes"/>
      <point x="156" y="498"/>
      <point x="42" y="348"/>
      <point x="42" y="174" type="curve" smooth="yes"/>
      <point x="42" y="53"/>
      <point x="102" y="-12"/>
    </contour>
    <contour>
      <point x="224" y="52" type="curve" smooth="yes"/>
      <point x="162" y="52"/>
      <point x="120" y="94"/>
      <point x="120" y="186" type="curve" smooth="yes"/>
      <point x="120" y="316"/>
      <point x="203" y="434"/>
      <point x="308" y="434" type="curve" smooth="yes"/>
      <point x="352" y="434"/>
      <point x="391" y="414"/>
      <point x="422" y="365" type="curve"/>
      <point x="375" y="139" type="line"/>
      <point x="325" y="80"/>
      <point x="272" y="52"/>
    </contour>
    <component base="caron.a" xOffset="297"/>
  </outline>
</glyph>
<glyph name="dcroat" format="1">
  <advance width="600"/>
  <unicode hex="0111"/>
  <outline>
    <contour>
      <point x="214" y="-12" type="curve" smooth="yes"/>
      <point x="277" y="-12"/>
      <point x="341" y="22"/>
      <point x="392" y="74" type="curve"/>
      <point x="396" y="74" type="line"/>
      <point x="389" y="0" type="line"/>
      <point x="452" y="0" type="line"/>
      <point x="595" y="712" type="line"/>
      <point x="519" y="712" type="line"/>
      <point x="477" y="502" type="line"/>
      <point x="460" y="407" type="line"/>
      <point x="457" y="407" type="line"/>
      <point x="429" y="450"/>
      <point x="382" y="478"/>
      <point x="313" y="478" type="curve" smooth="yes"/>
      <point x="164" y="478"/>
      <point x="48" y="338"/>
      <point x="48" y="174" type="curve" smooth="yes"/>
      <point x="48" y="53"/>
      <point x="113" y="-12"/>
    </contour>
    <contour>
      <point x="238" y="52" type="curve" smooth="yes"/>
      <point x="170" y="52"/>
      <point x="126" y="95"/>
      <point x="126" y="186" type="curve" smooth="yes"/>
      <point x="126" y="305"/>
      <point x="211" y="414"/>
      <point x="323" y="414" type="curve" smooth="yes"/>
      <point x="369" y="414"/>
      <point x="412" y="393"/>
      <point x="445" y="342" type="curve"/>
      <point x="404" y="146" type="line"/>
      <point x="351" y="85"/>
      <point x="290" y="52"/>
    </contour>
    <contour>
      <point x="316" y="566" type="line"/>
      <point x="562" y="566" type="line"/>
      <point x="640" y="572" type="line"/>
      <point x="648" y="626" type="line"/>
      <point x="326" y="626" type="line"/>
    </contour>
    <contour>
      <point x="559" y="736" type="move" name="aboveUC"/>
    </contour>
    <contour>
      <point x="249" y="-20" type="move" name="belowLC"/>
    </contour>
  </outline>
</glyph>
<glyph name="Eogonek" format="1">
  <advance width="600"/>
  <unicode hex="0118"/>
  <outline>
    <contour>
      <point x="91" y="0" type="line"/>
      <point x="409" y="0" type="line"/>
      <point x="366" y="-23"/>
      <point x="302" y="-77"/>
      <point x="302" y="-145" type="curve" smooth="yes"/>
      <point x="302" y="-196"/>
      <point x="344" y="-225"/>
      <point x="403" y="-225" type="curve" smooth="yes"/>
      <point x="439" y="-225"/>
      <point x="488" y="-210"/>
      <point x="519" y="-189" type="curve"/>
      <point x="499" y="-110" type="line"/>
      <point x="488" y="-116"/>
      <point x="474" y="-124"/>
      <point x="461" y="-124" type="curve" smooth="yes"/>
      <point x="443" y="-124"/>
      <point x="426" y="-115"/>
      <point x="426" y="-94" type="curve" smooth="yes"/>
      <point x="426" y="-52"/>
      <point x="479" y="0"/>
      <point x="530" y="0" type="curve" smooth="yes"/>
      <point x="535" y="0" type="line"/>
      <point x="562" y="132" type="line"/>
      <point x="275" y="132" type="line"/>
      <point x="303" y="268" type="line"/>
      <point x="537" y="268" type="line"/>
      <point x="564" y="400" type="line"/>
      <point x="329" y="400" type="line"/>
      <point x="353" y="519" type="line"/>
      <point x="629" y="519" type="line"/>
      <point x="655" y="651" type="line"/>
      <point x="221" y="651" type="line"/>
    </contour>
  </outline>
</glyph>
<glyph name="eogonek" format="1">
  <advance width="600"/>
  <unicode hex="0119"/>
  <outline>
    <contour>
      <point x="514" y="149" type="line"/>
      <point x="465" y="128"/>
      <point x="413" y="113"/>
      <point x="371" y="113" type="curve" smooth="yes"/>
      <point x="313" y="113"/>
      <point x="255" y="133"/>
      <point x="255" y="202" type="curve" smooth="yes"/>
      <point x="255" y="357"/>
      <point x="342" y="390"/>
      <point x="398" y="390" type="curve" smooth="yes"/>
      <point x="446" y="390"/>
      <point x="472" y="360"/>
      <point x="472" y="317" type="curve" smooth="yes"/>
      <point x="472" y="302"/>
      <point x="468" y="287"/>
      <point x="467" y="281" type="curve"/>
      <point x="495" y="306" type="line"/>
      <point x="230" y="306" type="line"/>
      <point x="213" y="204" type="line"/>
      <point x="591" y="204" type="line"/>
      <point x="598" y="221"/>
      <point x="611" y="262"/>
      <point x="611" y="319" type="curve" smooth="yes"/>
      <point x="611" y="427"/>
      <point x="532" y="512"/>
      <point x="411" y="512" type="curve" smooth="yes"/>
      <point x="245" y="512"/>
      <point x="98" y="391"/>
      <point x="98" y="200" type="curve" smooth="yes"/>
      <point x="98" y="55"/>
      <point x="190" y="-12"/>
      <point x="319" y="-12" type="curve" smooth="yes"/>
      <point x="337" y="-12"/>
      <point x="352" y="-11"/>
      <point x="370" y="-9" type="curve"/>
      <point x="335" y="-35"/>
      <point x="289" y="-79"/>
      <point x="289" y="-136" type="curve" smooth="yes"/>
      <point x="289" y="-185"/>
      <point x="327" y="-211"/>
      <point x="382" y="-211" type="curve" smooth="yes"/>
      <point x="414" y="-211"/>
      <point x="465" y="-197"/>
      <point x="495" y="-176" type="curve"/>
      <point x="475" y="-106" type="line"/>
      <point x="465" y="-112"/>
      <point x="452" y="-118"/>
      <point x="439" y="-118" type="curve" smooth="yes"/>
      <point x="418" y="-118"/>
      <point x="403" y="-109"/>
      <point x="403" y="-89" type="curve" smooth="yes"/>
      <point x="403" y="-43"/>
      <point x="458" y="-7"/>
      <point x="559" y="49" type="curve"/>
    </contour>
  </outline>
</glyph>
<glyph name="Hbar" format="1">
  <advance width="600"/>
  <unicode hex="0126"/>
  <outline>
    <contour>
      <point x="47" y="494" type="line"/>
      <point x="624" y="494" type="line"/>
      <point x="634" y="537" type="line"/>
      <point x="128" y="537" type="line"/>
      <point x="54" y="532" type="line"/>
    </contour>
    <component base="H"/>
  </outline>
</glyph>
<glyph name="hbar" format="1">
  <advance width="600"/>
  <unicode hex="0127"/>
  <outline>
    <contour>
      <point x="37" y="0" type="line"/>
      <point x="113" y="0" type="line"/>
      <point x="172" y="294" type="line"/>
      <point x="238" y="367"/>
      <point x="306" y="411"/>
      <point x="371" y="411" type="curve" smooth="yes"/>
      <point x="421" y="411"/>
      <point x="448" y="385"/>
      <point x="448" y="336" type="curve" smooth="yes"/>
      <point x="448" y="314"/>
      <point x="444" y="294"/>
      <point x="439" y="268" type="curve" smooth="yes"/>
      <point x="385" y="0" type="line"/>
      <point x="462" y="0" type="line"/>
      <point x="517" y="277" type="line" smooth="yes"/>
      <point x="523" y="303"/>
      <point x="527" y="328"/>
      <point x="527" y="356" type="curve" smooth="yes"/>
      <point x="527" y="430"/>
      <point x="487" y="477"/>
      <point x="402" y="477" type="curve" smooth="yes"/>
      <point x="316" y="477"/>
      <point x="246" y="427"/>
      <point x="187" y="368" type="curve"/>
      <point x="183" y="368" type="line"/>
      <point x="198" y="429" type="line"/>
      <point x="256" y="712" type="line"/>
      <point x="179" y="712" type="line"/>
    </contour>
    <contour>
      <point x="76" y="566" type="line"/>
      <point x="442" y="566" type="line"/>
      <point x="452" y="626" type="line"/>
      <point x="164" y="626" type="line"/>
      <point x="84" y="620" type="line"/>
    </contour>
  </outline>
</glyph>
<glyph name="Iogonek" format="1">
  <advance width="600"/>
  <unicode hex="012E"/>
  <outline>
    <contour>
      <point x="71" y="0" type="line"/>
      <point x="264" y="0" type="line"/>
      <point x="227" y="-23"/>
      <point x="161" y="-74"/>
      <point x="161" y="-145" type="curve" smooth="yes"/>
      <point x="161" y="-196"/>
      <point x="203" y="-225"/>
      <point x="262" y="-225" type="curve" smooth="yes"/>
      <point x="298" y="-225"/>
      <point x="347" y="-210"/>
      <point x="377" y="-189" type="curve"/>
      <point x="358" y="-110" type="line"/>
      <point x="348" y="-116"/>
      <point x="333" y="-124"/>
      <point x="319" y="-124" type="curve" smooth="yes"/>
      <point x="302" y="-124"/>
      <point x="285" y="-115"/>
      <point x="285" y="-94" type="curve" smooth="yes"/>
      <point x="285" y="-63"/>
      <point x="310" y="-24"/>
      <point x="379" y="0" type="curve"/>
      <point x="530" y="0" type="line"/>
      <point x="556" y="132" type="line"/>
      <point x="406" y="132" type="line"/>
      <point x="483" y="519" type="line"/>
      <point x="633" y="519" type="line"/>
      <point x="660" y="651" type="line"/>
      <point x="201" y="651" type="line"/>
      <point x="175" y="519" type="line"/>
      <point x="325" y="519" type="line"/>
      <point x="248" y="132" type="line"/>
      <point x="97" y="132" type="line"/>
    </contour>
  </outline>
</glyph>
<glyph name="iogonek" format="1">
  <advance width="599"/>
  <unicode hex="012F"/>
  <outline>
    <contour>
      <point x="424" y="0" type="curve"/>
      <point x="523" y="498" type="line"/>
      <point x="170" y="498" type="line"/>
      <point x="145" y="374" type="line"/>
      <point x="341" y="374" type="line"/>
      <point x="266" y="0" type="line"/>
      <point x="311" y="0" type="line"/>
      <point x="279" y="-21"/>
      <point x="220" y="-69"/>
      <point x="220" y="-135" type="curve" smooth="yes"/>
      <point x="220" y="-185"/>
      <point x="259" y="-211"/>
      <point x="310" y="-211" type="curve"/>
      <point x="348" y="-211"/>
      <point x="395" y="-198"/>
      <point x="426" y="-177" type="curve"/>
      <point x="406" y="-106" type="line"/>
      <point x="393" y="-113"/>
      <point x="379" y="-118"/>
      <point x="363" y="-118" type="curve" smooth="yes"/>
      <point x="347" y="-118"/>
      <point x="334" y="-108"/>
      <point x="334" y="-89" type="curve" smooth="yes"/>
      <point x="334" y="-62"/>
      <point x="355" y="-21"/>
    </contour>
    <contour>
      <point x="451" y="566" type="curve" smooth="yes"/>
      <point x="519" y="566"/>
      <point x="575" y="612"/>
      <point x="575" y="677" type="curve" smooth="yes"/>
      <point x="575" y="724"/>
      <point x="542" y="756"/>
      <point x="489" y="756" type="curve" smooth="yes"/>
      <point x="421" y="756"/>
      <point x="365" y="708"/>
      <point x="365" y="643" type="curve" smooth="yes"/>
      <point x="365" y="597"/>
      <point x="399" y="566"/>
    </contour>
  </outline>
</glyph>
<glyph name="dotlessi" format="1">
  <advance width="600"/>
  <unicode hex="0131"/>
  <outline>
    <contour>
      <point x="132" y="376" type="line"/>
      <point x="282" y="376" type="line"/>
      <point x="246" y="200" type="line" smooth="yes"/>
      <point x="220" y="72"/>
      <point x="280" y="-12"/>
      <point x="402" y="-12" type="curve" smooth="yes"/>
      <point x="466" y="-12"/>
      <point x="502" y="-2"/>
      <point x="557" y="14" type="curve"/>
      <point x="532" y="132" type="line"/>
      <point x="500" y="121"/>
      <point x="480" y="118"/>
      <point x="458" y="118" type="curve" smooth="yes"/>
      <point x="425" y="118"/>
      <point x="392" y="136"/>
      <point x="404" y="194" type="curve" smooth="yes"/>
      <point x="466" y="500" type="line"/>
      <point x="158" y="500" type="line"/>
    </contour>
  </outline>
</glyph>
<glyph name="IJ" format="1">
  <advance width="600"/>
  <unicode hex="0132"/>
  <outline>
    <contour>
      <point x="666" y="650" type="line"/>
      <point x="506" y="650" type="line"/>
      <point x="380" y="16" type="line"/>
      <point x="368" y="-36"/>
      <point x="356" y="-56"/>
      <point x="324" y="-56" type="curve" smooth="yes"/>
      <point x="310" y="-56"/>
      <point x="296" y="-52"/>
      <point x="282" y="-44" type="curve"/>
      <point x="234" y="-158" type="line"/>
      <point x="270" y="-176"/>
      <point x="302" y="-182"/>
      <point x="338" y="-182" type="curve" smooth="yes"/>
      <point x="462" y="-182"/>
      <point x="516" y="-96"/>
      <point x="538" y="8" type="curve" smooth="yes"/>
    </contour>
    <contour>
      <point x="60" y="0" type="line"/>
      <point x="220" y="0" type="line"/>
      <point x="350" y="650" type="line"/>
      <point x="190" y="650" type="line"/>
    </contour>
  </outline>
</glyph>
<glyph name="ij" format="1">
  <advance width="600"/>
  <unicode hex="0133"/>
  <outline>
    <contour>
      <point x="63" y="0" type="line"/>
      <point x="223" y="0" type="line"/>
      <point x="323" y="500" type="line"/>
      <point x="163" y="500" type="line"/>
    </contour>
    <contour>
      <point x="331" y="-188" type="curve" smooth="yes"/>
      <point x="455" y="-188"/>
      <point x="509" y="-102"/>
      <point x="531" y="2" type="curve" smooth="yes"/>
      <point x="631" y="500" type="line"/>
      <point x="471" y="500" type="line"/>
      <point x="373" y="10" type="line" smooth="yes"/>
      <point x="361" y="-42"/>
      <point x="349" y="-62"/>
      <point x="317" y="-62" type="curve" smooth="yes"/>
      <point x="303" y="-62"/>
      <point x="289" y="-58"/>
      <point x="275" y="-50" type="curve"/>
      <point x="227" y="-164" type="line"/>
      <point x="263" y="-182"/>
      <point x="295" y="-188"/>
    </contour>
    <contour>
      <point x="270" y="564" type="curve" smooth="yes"/>
      <point x="333" y="564"/>
      <point x="383" y="609"/>
      <point x="383" y="669" type="curve" smooth="yes"/>
      <point x="383" y="726"/>
      <point x="341" y="756"/>
      <point x="284" y="756" type="curve" smooth="yes"/>
      <point x="221" y="756"/>
      <point x="172" y="707"/>
      <point x="172" y="651" type="curve" smooth="yes"/>
      <point x="172" y="592"/>
      <point x="220" y="564"/>
    </contour>
    <contour>
      <point x="576" y="564" type="curve" smooth="yes"/>
      <point x="639" y="564"/>
      <point x="689" y="609"/>
      <point x="689" y="669" type="curve" smooth="yes"/>
      <point x="689" y="726"/>
      <point x="647" y="756"/>
      <point x="590" y="756" type="curve" smooth="yes"/>
      <point x="527" y="756"/>
      <point x="478" y="707"/>
      <point x="478" y="651" type="curve" smooth="yes"/>
      <point x="478" y="592"/>
      <point x="526" y="564"/>
    </contour>
  </outline>
</glyph>
<glyph name="kgreenlandic" format="1">
  <advance width="600"/>
  <unicode hex="0138"/>
  <outline>
    <contour>
      <point x="613" y="498" type="curve"/>
      <point x="442" y="498" type="line"/>
      <point x="235" y="311" type="line"/>
      <point x="231" y="311" type="line"/>
      <point x="268" y="498" type="line"/>
      <point x="110" y="498" type="line"/>
      <point x="11" y="0" type="line"/>
      <point x="169" y="0" type="line"/>
      <point x="193" y="122" type="line"/>
      <point x="193" y="122"/>
      <point x="613" y="498"/>
    </contour>
    <contour>
      <point x="253" y="210" type="line"/>
      <point x="346" y="0" type="line"/>
      <point x="528" y="0" type="line"/>
      <point x="380" y="304" type="line"/>
    </contour>
  </outline>
</glyph>
<glyph name="Lslash" format="1">
  <advance width="599"/>
  <unicode hex="0141"/>
  <outline>
    <contour>
      <point x="320" y="273" type="line"/>
      <point x="540" y="383" type="line"/>
      <point x="564" y="505" type="line"/>
      <point x="344" y="395" type="line"/>
      <point x="175" y="320" type="line"/>
      <point x="84" y="274" type="line"/>
      <point x="60" y="152" type="line"/>
      <point x="151" y="198" type="line"/>
    </contour>
    <component base="L"/>
  </outline>
</glyph>
<glyph name="lslash" format="1">
  <advance width="600"/>
  <unicode hex="0142"/>
  <outline>
    <contour>
      <point x="161" y="572" type="line"/>
      <point x="305" y="572" type="line"/>
      <point x="233" y="220" type="line" smooth="yes"/>
      <point x="203" y="75"/>
      <point x="266" y="-12"/>
      <point x="388" y="-12" type="curve" smooth="yes"/>
      <point x="449" y="-12"/>
      <point x="495" y="-3"/>
      <point x="553" y="17" type="curve"/>
      <point x="528" y="134" type="line"/>
      <point x="492" y="123"/>
      <point x="471" y="117"/>
      <point x="438" y="117" type="curve" smooth="yes"/>
      <point x="403" y="117"/>
      <point x="376" y="140"/>
      <point x="387" y="195" type="curve" smooth="yes"/>
      <point x="489" y="696" type="line"/>
      <point x="187" y="696" type="line"/>
    </contour>
    <contour>
      <point x="424" y="344" type="line"/>
      <point x="588" y="424" type="line"/>
      <point x="613" y="549" type="line"/>
      <point x="449" y="469" type="line"/>
      <point x="280" y="394" type="line"/>
      <point x="154" y="330" type="line"/>
      <point x="129" y="205" type="line"/>
      <point x="255" y="268" type="line"/>
    </contour>
  </outline>
</glyph>
<glyph name="napostrophe" format="1">
  <advance width="600"/>
  <unicode hex="0149"/>
  <outline>
    <contour>
      <point x="160" y="0" type="line"/>
      <point x="318" y="0" type="line"/>
      <point x="384" y="331" type="line"/>
      <point x="414" y="359"/>
      <point x="433" y="376"/>
      <point x="462" y="376" type="curve" smooth="yes"/>
      <point x="496" y="376"/>
      <point x="504" y="349"/>
      <point x="492" y="288" type="curve" smooth="yes"/>
      <point x="434" y="0" type="line"/>
      <point x="592" y="0" type="line"/>
      <point x="654" y="308" type="line" smooth="yes"/>
      <point x="679" y="432"/>
      <point x="651" y="510"/>
      <point x="553" y="510" type="curve" smooth="yes"/>
      <point x="488" y="510"/>
      <point x="437" y="476"/>
      <point x="391" y="435" type="curve"/>
      <point x="387" y="435" type="line"/>
      <point x="388" y="498" type="line"/>
      <point x="259" y="498" type="line"/>
    </contour>
    <contour>
      <point x="2" y="319" type="line"/>
      <point x="162" y="369"/>
      <point x="235" y="468"/>
      <point x="235" y="576" type="curve" smooth="yes"/>
      <point x="235" y="661"/>
      <point x="199" y="696"/>
      <point x="140" y="696" type="curve" smooth="yes"/>
      <point x="74" y="696"/>
      <point x="14" y="644"/>
      <point x="14" y="573" type="curve" smooth="yes"/>
      <point x="14" y="527"/>
      <point x="42" y="497"/>
      <point x="90" y="497" type="curve" smooth="yes"/>
      <point x="115" y="497"/>
      <point x="149" y="510"/>
      <point x="171" y="526" type="curve"/>
      <point x="127" y="609" type="line"/>
      <point x="108" y="511" type="line"/>
      <point x="94" y="448"/>
      <point x="54" y="423"/>
      <point x="-19" y="396" type="curve"/>
    </contour>
  </outline>
</glyph>
<glyph name="Eng" format="1">
  <advance width="600"/>
  <unicode hex="014A"/>
  <outline>
    <contour>
      <point x="320" y="-12" type="curve" smooth="yes"/>
      <point x="474" y="-12"/>
      <point x="570" y="190"/>
      <point x="570" y="426" type="curve" smooth="yes"/>
      <point x="570" y="596"/>
      <point x="508.197802198" y="662.0"/>
      <point x="418" y="662" type="curve" smooth="yes"/>
      <point x="364.426229508" y="662.0"/>
      <point x="310" y="638"/>
      <point x="266" y="592" type="curve"/>
      <point x="278" y="650" type="line"/>
      <point x="126" y="650" type="line"/>
      <point x="-4" y="0" type="line"/>
      <point x="156" y="0" type="line"/>
      <point x="245" y="457" type="line"/>
      <point x="286" y="502"/>
      <point x="322" y="524"/>
      <point x="353" y="524" type="curve" smooth="yes"/>
      <point x="386.0" y="524.0"/>
      <point x="406" y="493"/>
      <point x="406" y="416" type="curve" smooth="yes"/>
      <point x="406" y="272"/>
      <point x="354" y="126"/>
      <point x="300" y="126" type="curve" smooth="yes"/>
      <point x="289" y="126"/>
      <point x="279" y="130"/>
      <point x="273" y="134" type="curve"/>
      <point x="215" y="7" type="line"/>
      <point x="235" y="-6"/>
      <point x="282" y="-12"/>
    </contour>
    <contour>
      <point x="380" y="670" type="move" name="aboveUC"/>
    </contour>
    <contour>
      <point x="260" y="-20" type="move" name="belowLC"/>
    </contour>
  </outline>
</glyph>
<glyph name="eng" format="1">
  <advance width="600"/>
  <unicode hex="014B"/>
  <outline>
    <contour>
      <point x="540" y="0" type="curve"/>
      <point x="602" y="310" type="line" smooth="yes"/>
      <point x="607" y="334"/>
      <point x="610" y="360"/>
      <point x="610" y="382" type="curve" smooth="yes"/>
      <point x="610" y="468"/>
      <point x="562" y="512"/>
      <point x="480" y="512" type="curve" smooth="yes"/>
      <point x="416" y="512"/>
      <point x="342" y="466"/>
      <point x="296" y="420" type="curve"/>
      <point x="292" y="420" type="line"/>
      <point x="295" y="500" type="line"/>
      <point x="166" y="500" type="line"/>
      <point x="68" y="0" type="line"/>
      <point x="228" y="0" type="line"/>
      <point x="286" y="298" type="line"/>
      <point x="325" y="350"/>
      <point x="371" y="376"/>
      <point x="404" y="376" type="curve" smooth="yes"/>
      <point x="430" y="376"/>
      <point x="445" y="363"/>
      <point x="445" y="335" type="curve" smooth="yes"/>
      <point x="445" y="323"/>
      <point x="442" y="308"/>
      <point x="438" y="290" type="curve" smooth="yes"/>
      <point x="382" y="8" type="line"/>
      <point x="370" y="-44"/>
      <point x="358" y="-62"/>
      <point x="326" y="-62" type="curve" smooth="yes"/>
      <point x="312" y="-62"/>
      <point x="298" y="-58"/>
      <point x="284" y="-50" type="curve"/>
      <point x="236" y="-164" type="line"/>
      <point x="272" y="-182"/>
      <point x="304" y="-188"/>
      <point x="340" y="-188" type="curve" smooth="yes"/>
      <point x="464" y="-188"/>
      <point x="518" y="-104"/>
    </contour>
  </outline>
</glyph>
<glyph name="OE" format="1">
  <advance width="600"/>
  <unicode hex="0152"/>
  <outline>
    <contour>
      <point x="69" y="246" type="curve" smooth="yes"/>
      <point x="69" y="77"/>
      <point x="159" y="0"/>
      <point x="311" y="0" type="curve" smooth="yes"/>
      <point x="597" y="0" type="line"/>
      <point x="623" y="134" type="line"/>
      <point x="459" y="134" type="line"/>
      <point x="487" y="268" type="line"/>
      <point x="603" y="268" type="line"/>
      <point x="629" y="402" type="line"/>
      <point x="513" y="402" type="line"/>
      <point x="535" y="516" type="line"/>
      <point x="691" y="516" type="line"/>
      <point x="717" y="650" type="line"/>
      <point x="409" y="650" type="line" smooth="yes"/>
      <point x="235" y="650"/>
      <point x="69" y="508"/>
    </contour>
    <contour>
      <point x="397" y="522" type="line"/>
      <point x="319" y="128" type="line"/>
      <point x="315" y="128" type="line" smooth="yes"/>
      <point x="269" y="128"/>
      <point x="233" y="161"/>
      <point x="233" y="256" type="curve" smooth="yes"/>
      <point x="233" y="422"/>
      <point x="311" y="522"/>
      <point x="383" y="522" type="curve" smooth="yes"/>
    </contour>
  </outline>
</glyph>
<glyph name="oe" format="1">
  <advance width="600"/>
  <unicode hex="0153"/>
  <outline>
    <contour>
      <point x="124" y="-12" type="curve" smooth="yes"/>
      <point x="189" y="-12"/>
      <point x="248" y="24"/>
      <point x="289" y="102" type="curve"/>
      <point x="278" y="111" type="line"/>
      <point x="284" y="30"/>
      <point x="338" y="-12"/>
      <point x="404" y="-12" type="curve" smooth="yes"/>
      <point x="458" y="-12"/>
      <point x="512" y="9"/>
      <point x="546" y="35" type="curve"/>
      <point x="522" y="86" type="line"/>
      <point x="494" y="66"/>
      <point x="458" y="49"/>
      <point x="417" y="49" type="curve" smooth="yes"/>
      <point x="359" y="49"/>
      <point x="326" y="86"/>
      <point x="326" y="164" type="curve" smooth="yes"/>
      <point x="326" y="298"/>
      <point x="393" y="437"/>
      <point x="473" y="437" type="curve" smooth="yes"/>
      <point x="522" y="437"/>
      <point x="536" y="396"/>
      <point x="536" y="342" type="curve" smooth="yes"/>
      <point x="536" y="319"/>
      <point x="532" y="293"/>
      <point x="526" y="271" type="curve"/>
      <point x="538" y="284" type="line"/>
      <point x="321" y="284" type="line"/>
      <point x="318" y="224" type="line"/>
      <point x="579" y="224" type="line"/>
      <point x="585" y="245"/>
      <point x="599" y="296"/>
      <point x="599" y="344" type="curve" smooth="yes"/>
      <point x="599" y="441"/>
      <point x="562" y="498"/>
      <point x="486" y="498" type="curve" smooth="yes"/>
      <point x="423" y="498"/>
      <point x="362" y="453"/>
      <point x="325" y="369" type="curve"/>
      <point x="333" y="366" type="line"/>
      <point x="325" y="450"/>
      <point x="287" y="498"/>
      <point x="219" y="498" type="curve" smooth="yes"/>
      <point x="99" y="498"/>
      <point x="-9" y="366"/>
      <point x="-9" y="173" type="curve" smooth="yes"/>
      <point x="-9" y="57"/>
      <point x="39" y="-12"/>
    </contour>
    <contour>
      <point x="62" y="176" type="curve" smooth="yes"/>
      <point x="62" y="298"/>
      <point x="125" y="435"/>
      <point x="213" y="435" type="curve" smooth="yes"/>
      <point x="260" y="435"/>
      <point x="284" y="386"/>
      <point x="284" y="307" type="curve" smooth="yes"/>
      <point x="284" y="174"/>
      <point x="219" y="51"/>
      <point x="138" y="51" type="curve" smooth="yes"/>
      <point x="87" y="51"/>
      <point x="62" y="101"/>
    </contour>
    <component base="space"/>
    <contour>
      <point x="340" y="507" type="move" name="aboveLC"/>
    </contour>
    <contour>
      <point x="409" y="0" type="move" name="baseLC"/>
    </contour>
    <contour>
      <point x="270" y="-20" type="move" name="belowLC"/>
    </contour>
  </outline>
</glyph>
<glyph name="Tbar" format="1">
  <advance width="600"/>
  <unicode hex="0166"/>
  <outline>
    <contour>
      <point x="130" y="332" type="line"/>
      <point x="475" y="332" type="line"/>
      <point x="484" y="375" type="line"/>
      <point x="214" y="375" type="line"/>
      <point x="138" y="370" type="line"/>
    </contour>
    <component base="T"/>
    <contour>
      <point x="373" y="676" type="move" name="aboveUC"/>
    </contour>
    <contour>
      <point x="235" y="-20" type="move" name="belowLC"/>
    </contour>
  </outline>
</glyph>
<glyph name="Tbar" format="1">
  <advance width="600"/>
  <unicode hex="0166"/>
  <outline>
    <contour>
      <point x="151" y="281" type="line"/>
      <point x="578" y="281" type="line"/>
      <point x="594" y="359" type="line"/>
      <point x="233" y="359" type="line"/>
      <point x="166" y="353" type="line"/>
    </contour>
    <component base="T"/>
  </outline>
</glyph>
<glyph name="tbar" format="1">
  <advance width="600"/>
  <unicode hex="0167"/>
  <outline>
    <contour>
      <point x="38" y="224" type="line"/>
      <point x="478" y="224" type="line"/>
      <point x="490" y="284" type="line"/>
      <point x="190" y="284" type="line"/>
      <point x="50" y="280" type="line"/>
    </contour>
    <component base="t"/>
    <contour>
      <point x="297" y="635" type="move" name="aboveLC"/>
    </contour>
    <contour>
      <point x="308" y="-20" type="move" name="belowLC"/>
    </contour>
  </outline>
</glyph>
<glyph name="Uogonek" format="1">
  <advance width="600"/>
  <unicode hex="0172"/>
  <outline>
    <contour>
      <point x="256" y="-225" type="curve" smooth="yes"/>
      <point x="307" y="-225"/>
      <point x="354" y="-207"/>
      <point x="380" y="-190" type="curve"/>
      <point x="361" y="-111" type="line"/>
      <point x="350" y="-117"/>
      <point x="332" y="-124"/>
      <point x="314" y="-124" type="curve" smooth="yes"/>
      <point x="299" y="-124"/>
      <point x="286" y="-115"/>
      <point x="286" y="-94" type="curve" smooth="yes"/>
      <point x="286" y="-67"/>
      <point x="318" y="-22"/>
      <point x="375" y="4" type="curve" smooth="yes"/>
      <point x="467" y="46"/>
      <point x="513" y="115"/>
      <point x="544" y="269" type="curve" smooth="yes"/>
      <point x="621" y="650" type="line"/>
      <point x="465" y="650" type="line"/>
      <point x="391" y="282" type="line" smooth="yes"/>
      <point x="367" y="164"/>
      <point x="337" y="126"/>
      <point x="277" y="126" type="curve" smooth="yes"/>
      <point x="212" y="126"/>
      <point x="198" y="189"/>
      <point x="219" y="295" type="curve" smooth="yes"/>
      <point x="290" y="650" type="line"/>
      <point x="131" y="650" type="line"/>
      <point x="63" y="307" type="line" smooth="yes"/>
      <point x="28" y="130"/>
      <point x="75" y="-8"/>
      <point x="249" y="-12" type="curve"/>
      <point x="249" y="-12"/>
      <point x="251" y="-12"/>
      <point x="251" y="-12" type="curve"/>
      <point x="216" y="-37"/>
      <point x="162" y="-86"/>
      <point x="162" y="-145" type="curve" smooth="yes"/>
      <point x="162" y="-202"/>
      <point x="204" y="-225"/>
    </contour>
    <contour>
      <point x="372" y="672" type="move" name="aboveUC"/>
    </contour>
  </outline>
</glyph>
<glyph name="uogonek" format="1">
  <advance width="600"/>
  <unicode hex="0173"/>
  <outline>
    <contour>
      <point x="150" y="-12" type="curve" smooth="yes"/>
      <point x="227" y="-12"/>
      <point x="297" y="34"/>
      <point x="343" y="80" type="curve"/>
      <point x="347" y="80" type="line"/>
      <point x="347" y="0" type="line"/>
      <point x="312" y="-19"/>
      <point x="254" y="-70"/>
      <point x="254" y="-135" type="curve" smooth="yes"/>
      <point x="254" y="-185"/>
      <point x="293" y="-211"/>
      <point x="338" y="-211" type="curve" smooth="yes"/>
      <point x="379" y="-211"/>
      <point x="427" y="-197"/>
      <point x="458" y="-176" type="curve"/>
      <point x="440" y="-106" type="line"/>
      <point x="430" y="-112"/>
      <point x="413" y="-118"/>
      <point x="399" y="-118" type="curve" smooth="yes"/>
      <point x="381" y="-118"/>
      <point x="368" y="-108"/>
      <point x="368" y="-88" type="curve" smooth="yes"/>
      <point x="368" y="-60"/>
      <point x="393" y="-21"/>
      <point x="473" y="0" type="curve"/>
      <point x="571" y="500" type="line"/>
      <point x="411" y="500" type="line"/>
      <point x="353" y="202" type="line"/>
      <point x="314" y="150"/>
      <point x="272" y="124"/>
      <point x="239" y="124" type="curve" smooth="yes"/>
      <point x="201.857142857" y="124.0"/>
      <point x="192" y="147"/>
      <point x="202" y="197" type="curve" smooth="yes"/>
      <point x="263" y="500" type="line"/>
      <point x="103" y="500" type="line"/>
      <point x="41" y="190" type="line" smooth="yes"/>
      <point x="15" y="62"/>
      <point x="56" y="-12"/>
    </contour>
    <contour>
      <point x="236" y="522" type="move" name="aboveLC"/>
    </contour>
  </outline>
</glyph>
<glyph name="florin" format="1">
  <advance width="600"/>
  <unicode hex="0192"/>
  <outline>
    <contour>
      <point x="65" y="-96" type="curve" smooth="yes"/>
      <point x="212" y="-97"/>
      <point x="271" y="-5"/>
      <point x="309" y="114" type="curve" smooth="yes"/>
      <point x="426" y="482" type="line" smooth="yes"/>
      <point x="440" y="526"/>
      <point x="462" y="547"/>
      <point x="501" y="547" type="curve" smooth="yes"/>
      <point x="526" y="547"/>
      <point x="544" y="538"/>
      <point x="557" y="529" type="curve"/>
      <point x="618" y="625" type="line"/>
      <point x="588" y="645"/>
      <point x="549" y="663"/>
      <point x="494" y="663" type="curve" smooth="yes"/>
      <point x="390" y="663"/>
      <point x="315" y="622"/>
      <point x="271" y="477" type="curve" smooth="yes"/>
      <point x="176" y="162" type="line" smooth="yes"/>
      <point x="141" y="45"/>
      <point x="114" y="28"/>
      <point x="73" y="24" type="curve" smooth="yes"/>
      <point x="46" y="21"/>
      <point x="27" y="29"/>
      <point x="8" y="38" type="curve"/>
      <point x="-42" y="-68" type="line"/>
      <point x="-22" y="-80"/>
      <point x="20" y="-96"/>
    </contour>
    <contour>
      <point x="135" y="303" type="line"/>
      <point x="493" y="303" type="line"/>
      <point x="516" y="415" type="line"/>
      <point x="233" y="415" type="line"/>
      <point x="157" y="409" type="line"/>
    </contour>
  </outline>
</glyph>
<glyph name="Ohorn" format="1">
  <advance width="600"/>
  <unicode hex="01A0"/>
  <outline>
    <contour>
      <point x="541" y="569" type="line"/>
      <point x="648" y="574"/>
      <point x="744" y="620"/>
      <point x="744" y="723" type="curve" smooth="yes"/>
      <point x="744" y="748"/>
      <point x="737" y="772"/>
      <point x="728" y="786" type="curve"/>
      <point x="611" y="739" type="line"/>
      <point x="615" y="730"/>
      <point x="619" y="717"/>
      <point x="619" y="703" type="curve" smooth="yes"/>
      <point x="619" y="654"/>
      <point x="588" y="639"/>
      <point x="542" y="631" type="curve"/>
    </contour>
    <contour>
      <point x="316" y="-12" type="curve" smooth="yes"/>
      <point x="505" y="-12"/>
      <point x="646" y="156"/>
      <point x="647" y="406" type="curve" smooth="yes"/>
      <point x="648" y="576"/>
      <point x="562" y="662"/>
      <point x="421" y="662" type="curve" smooth="yes"/>
      <point x="232" y="662"/>
      <point x="91" y="481"/>
      <point x="91" y="243" type="curve" smooth="yes"/>
      <point x="91" y="77"/>
      <point x="178" y="-12"/>
    </contour>
    <contour>
      <point x="331" y="125" type="curve"/>
      <point x="282" y="125"/>
      <point x="255" y="171"/>
      <point x="255" y="253" type="curve" smooth="yes"/>
      <point x="255" y="403"/>
      <point x="325" y="527"/>
      <point x="407" y="527" type="curve" smooth="yes"/>
      <point x="461" y="527"/>
      <point x="484" y="478"/>
      <point x="483" y="396" type="curve" smooth="yes"/>
      <point x="481" y="244"/>
      <point x="412" y="125"/>
    </contour>
  </outline>
</glyph>
<glyph name="ohorn" format="1">
  <advance width="599"/>
  <unicode hex="01A1"/>
  <outline>
    <contour>
      <point x="500" y="426" type="line"/>
      <point x="607" y="431"/>
      <point x="704" y="477"/>
      <point x="704" y="579" type="curve" smooth="yes"/>
      <point x="704" y="605"/>
      <point x="696" y="629"/>
      <point x="687" y="642" type="curve"/>
      <point x="571" y="596" type="line"/>
      <point x="575" y="587"/>
      <point x="579" y="574"/>
      <point x="579" y="560" type="curve" smooth="yes"/>
      <point x="579" y="511"/>
      <point x="548" y="496"/>
      <point x="500" y="488" type="curve"/>
    </contour>
    <contour>
      <point x="380" y="512" type="curve" smooth="yes"/>
      <point x="238" y="512"/>
      <point x="88" y="396"/>
      <point x="88" y="214" type="curve" smooth="yes"/>
      <point x="88" y="78"/>
      <point x="178" y="-12"/>
      <point x="316" y="-12" type="curve" smooth="yes"/>
      <point x="458" y="-12"/>
      <point x="608" y="104"/>
      <point x="608" y="286" type="curve" smooth="yes"/>
      <point x="608" y="422"/>
      <point x="518" y="512"/>
    </contour>
    <contour>
      <point x="324" y="116" type="curve" smooth="yes"/>
      <point x="278" y="116"/>
      <point x="250" y="154"/>
      <point x="250" y="216" type="curve" smooth="yes"/>
      <point x="250" y="322"/>
      <point x="312" y="384"/>
      <point x="372" y="384" type="curve" smooth="yes"/>
      <point x="418" y="384"/>
      <point x="446" y="346"/>
      <point x="446" y="284" type="curve" smooth="yes"/>
      <point x="446" y="178"/>
      <point x="384" y="116"/>
    </contour>
  </outline>
</glyph>
<glyph name="Uhorn" format="1">
  <advance width="599"/>
  <unicode hex="01AF"/>
  <outline>
    <contour>
      <point x="657" y="594" type="line"/>
      <point x="742" y="610"/>
      <point x="812" y="656"/>
      <point x="812" y="743" type="curve" smooth="yes"/>
      <point x="812" y="768"/>
      <point x="804" y="792"/>
      <point x="795" y="806" type="curve"/>
      <point x="679" y="759" type="line"/>
      <point x="683" y="750"/>
      <point x="687" y="737"/>
      <point x="687" y="723" type="curve" smooth="yes"/>
      <point x="687" y="661"/>
      <point x="634" y="652"/>
      <point x="592" y="651" type="curve"/>
    </contour>
    <contour>
      <point x="111" y="251" type="line" smooth="yes"/>
      <point x="78" y="85"/>
      <point x="136" y="-12"/>
      <point x="299" y="-12" type="curve" smooth="yes"/>
      <point x="462" y="-12"/>
      <point x="555" y="85"/>
      <point x="588" y="251" type="curve" smooth="yes"/>
      <point x="668" y="651" type="line"/>
      <point x="516" y="651" type="line"/>
      <point x="433" y="234" type="line" smooth="yes"/>
      <point x="419" y="166"/>
      <point x="385" y="124"/>
      <point x="326" y="124" type="curve" smooth="yes"/>
      <point x="267" y="124"/>
      <point x="252" y="166"/>
      <point x="266" y="234" type="curve" smooth="yes"/>
      <point x="349" y="651" type="line"/>
      <point x="191" y="651" type="line"/>
    </contour>
  </outline>
</glyph>
<glyph name="uhorn" format="1">
  <advance width="600"/>
  <unicode hex="01B0"/>
  <outline>
    <contour>
      <point x="548" y="443" type="line"/>
      <point x="641" y="464"/>
      <point x="682" y="528"/>
      <point x="682" y="608" type="curve" smooth="yes"/>
      <point x="682" y="630"/>
      <point x="676" y="662"/>
      <point x="666" y="684" type="curve"/>
      <point x="548" y="648" type="line"/>
      <point x="553" y="636"/>
      <point x="558" y="612"/>
      <point x="558" y="600" type="curve" smooth="yes"/>
      <point x="558" y="548"/>
      <point x="530" y="506"/>
      <point x="486" y="500" type="curve"/>
    </contour>
    <component base="u"/>
    <contour>
      <point x="334" y="520" type="move" name="aboveLC"/>
    </contour>
    <contour>
      <point x="246" y="-20" type="move" name="belowLC"/>
    </contour>
  </outline>
</glyph>
<glyph name="pi" format="1">
  <advance width="599"/>
  <unicode hex="03C0"/>
  <outline>
    <contour>
      <point x="331" y="393" type="curve"/>
      <point x="185" y="393" type="line"/>
      <point x="166" y="286"/>
      <point x="125" y="134"/>
      <point x="81" y="0" type="curve"/>
      <point x="237" y="-9" type="line"/>
      <point x="273" y="121"/>
      <point x="308" y="277"/>
    </contour>
    <contour>
      <point x="666" y="378" type="curve"/>
      <point x="690" y="500" type="line"/>
      <point x="185" y="500" type="line"/>
      <point x="109" y="494" type="line"/>
      <point x="86" y="378" type="line"/>
      <point x="86" y="378"/>
      <point x="666" y="378"/>
    </contour>
    <contour>
      <point x="437" y="388" type="line"/>
      <point x="415" y="296"/>
      <point x="382" y="172"/>
      <point x="382" y="114" type="curve" smooth="yes"/>
      <point x="382" y="38"/>
      <point x="415" y="-15"/>
      <point x="501" y="-15" type="curve" smooth="yes"/>
      <point x="542" y="-15"/>
      <point x="572" y="-4"/>
      <point x="591" y="3" type="curve"/>
      <point x="594" y="116" type="line"/>
      <point x="584" y="114"/>
      <point x="576" y="112"/>
      <point x="569" y="112" type="curve" smooth="yes"/>
      <point x="545" y="112"/>
      <point x="533" y="119"/>
      <point x="533" y="143" type="curve" smooth="yes"/>
      <point x="533" y="176"/>
      <point x="561" y="290"/>
      <point x="586" y="388" type="curve"/>
    </contour>
  </outline>
</glyph>
<glyph name="figuredash" format="1">
  <advance width="599"/>
  <unicode hex="2012"/>
  <outline>
    <contour>
      <point x="119" y="196" type="line"/>
      <point x="559" y="196" type="line"/>
      <point x="582" y="313" type="line"/>
      <point x="142" y="313" type="line"/>
    </contour>
  </outline>
</glyph>
<glyph name="endash" format="1">
  <advance width="600"/>
  <unicode hex="2013"/>
  <outline>
    <contour>
      <point x="58" y="196" type="line"/>
      <point x="498" y="196" type="line"/>
      <point x="521" y="313" type="line"/>
      <point x="81" y="313" type="line"/>
    </contour>
  </outline>
</glyph>
<glyph name="emdash" format="1">
  <advance width="599"/>
  <unicode hex="2014"/>
  <outline>
    <contour>
      <point x="59" y="196" type="line"/>
      <point x="619" y="196" type="line"/>
      <point x="642" y="313" type="line"/>
      <point x="82" y="313" type="line"/>
    </contour>
  </outline>
</glyph>
<glyph name="quoteleft" format="1">
  <advance width="600"/>
  <unicode hex="2018"/>
  <outline>
    <contour>
      <point x="517" y="410" type="curve" smooth="yes"/>
      <point x="517" y="467"/>
      <point x="480" y="503"/>
      <point x="423" y="503" type="curve" smooth="yes"/>
      <point x="394" y="503"/>
      <point x="375" y="492"/>
      <point x="360" y="482" type="curve"/>
      <point x="394" y="375" type="line"/>
      <point x="421" y="499" type="line"/>
      <point x="437" y="544"/>
      <point x="490" y="593"/>
      <point x="573" y="610" type="curve"/>
      <point x="554" y="689" type="line"/>
      <point x="401" y="658"/>
      <point x="291" y="553"/>
      <point x="291" y="416" type="curve" smooth="yes"/>
      <point x="291" y="336"/>
      <point x="331" y="291"/>
      <point x="391" y="291" type="curve" smooth="yes"/>
      <point x="466" y="291"/>
      <point x="517" y="347"/>
    </contour>
  </outline>
</glyph>
<glyph name="quoteright" format="1">
  <advance width="600.0"/>
  <unicode hex="2019"/>
  <outline>
    <contour>
      <point x="245" y="578" type="curve" smooth="yes"/>
      <point x="245" y="521"/>
      <point x="282" y="485"/>
      <point x="339" y="485" type="curve" smooth="yes"/>
      <point x="368" y="485"/>
      <point x="387" y="496"/>
      <point x="402" y="506" type="curve"/>
      <point x="368" y="613" type="line"/>
      <point x="341" y="489" type="line"/>
      <point x="325" y="444"/>
      <point x="272" y="395"/>
      <point x="189" y="378" type="curve"/>
      <point x="208" y="299" type="line"/>
      <point x="361" y="330"/>
      <point x="471" y="435"/>
      <point x="471" y="572" type="curve" smooth="yes"/>
      <point x="471" y="652"/>
      <point x="431" y="697"/>
      <point x="371" y="697" type="curve" smooth="yes"/>
      <point x="296" y="697"/>
      <point x="245" y="641"/>
    </contour>
  </outline>
</glyph>
<glyph name="dagger" format="1">
  <advance width="600"/>
  <unicode hex="2020"/>
  <outline>
    <contour>
      <point x="221" y="-80" type="line"/>
      <point x="349" y="-80" type="line"/>
      <point x="441" y="428" type="line"/>
      <point x="599" y="418" type="line"/>
      <point x="623" y="546" type="line"/>
      <point x="461" y="536" type="line"/>
      <point x="507" y="712" type="line"/>
      <point x="379" y="712" type="line"/>
      <point x="353" y="536" type="line"/>
      <point x="197" y="546" type="line"/>
      <point x="171" y="418" type="line"/>
      <point x="333" y="428" type="line"/>
    </contour>
  </outline>
</glyph>
<glyph name="daggerdbl" format="1">
  <advance width="600"/>
  <unicode hex="2021"/>
  <outline>
    <contour>
      <point x="162" y="-80" type="line"/>
      <point x="290" y="-80" type="line"/>
      <point x="314" y="94" type="line"/>
      <point x="472" y="84" type="line"/>
      <point x="498" y="212" type="line"/>
      <point x="336" y="200" type="line"/>
      <point x="368" y="316" type="line"/>
      <point x="382" y="432" type="line"/>
      <point x="540" y="418" type="line"/>
      <point x="564" y="546" type="line"/>
      <point x="402" y="536" type="line"/>
      <point x="446" y="712" type="line"/>
      <point x="320" y="712" type="line"/>
      <point x="294" y="536" type="line"/>
      <point x="136" y="546" type="line"/>
      <point x="112" y="418" type="line"/>
      <point x="274" y="432" type="line"/>
      <point x="240" y="316" type="line"/>
      <point x="228" y="200" type="line"/>
      <point x="70" y="212" type="line"/>
      <point x="46" y="84" type="line"/>
      <point x="206" y="94" type="line"/>
    </contour>
  </outline>
</glyph>
<glyph name="bullet" format="1">
  <advance width="600"/>
  <unicode hex="2022"/>
  <outline>
    <contour>
      <point x="320" y="99" type="curve" smooth="yes"/>
      <point x="427" y="99"/>
      <point x="522" y="184"/>
      <point x="522" y="290" type="curve" smooth="yes"/>
      <point x="522" y="368"/>
      <point x="468" y="425"/>
      <point x="385" y="425" type="curve" smooth="yes"/>
      <point x="277" y="425"/>
      <point x="182" y="340"/>
      <point x="182" y="234" type="curve" smooth="yes"/>
      <point x="182" y="156"/>
      <point x="236" y="99"/>
    </contour>
  </outline>
</glyph>
<glyph name="ellipsis" format="1">
  <advance width="599"/>
  <unicode hex="2026"/>
  <outline>
    <contour>
      <point x="9" y="68" type="curve" smooth="yes"/>
      <point x="9" y="23"/>
      <point x="37" y="-12"/>
      <point x="87" y="-12" type="curve" smooth="yes"/>
      <point x="154" y="-12"/>
      <point x="204" y="43"/>
      <point x="204" y="106" type="curve" smooth="yes"/>
      <point x="204" y="151"/>
      <point x="176" y="187"/>
      <point x="126" y="187" type="curve" smooth="yes"/>
      <point x="59" y="187"/>
      <point x="9" y="132"/>
    </contour>
    <contour>
      <point x="220" y="68" type="curve" smooth="yes"/>
      <point x="220" y="23"/>
      <point x="248" y="-12"/>
      <point x="297" y="-12" type="curve" smooth="yes"/>
      <point x="365" y="-12"/>
      <point x="415" y="43"/>
      <point x="415" y="106" type="curve" smooth="yes"/>
      <point x="415" y="151"/>
      <point x="387" y="187"/>
      <point x="337" y="187" type="curve" smooth="yes"/>
      <point x="270" y="187"/>
      <point x="220" y="132"/>
    </contour>
    <contour>
      <point x="430" y="68" type="curve" smooth="yes"/>
      <point x="430" y="23"/>
      <point x="458" y="-12"/>
      <point x="508" y="-12" type="curve" smooth="yes"/>
      <point x="575" y="-12"/>
      <point x="626" y="43"/>
      <point x="626" y="106" type="curve" smooth="yes"/>
      <point x="626" y="151"/>
      <point x="598" y="187"/>
      <point x="548" y="187" type="curve" smooth="yes"/>
      <point x="481" y="187"/>
      <point x="430" y="132"/>
    </contour>
  </outline>
</glyph>
<glyph name="perthousand" format="1">
  <advance width="600"/>
  <unicode hex="2030"/>
  <outline>
    <contour>
      <point x="165" y="264" type="line"/>
      <point x="149" y="310" type="line"/>
      <point x="642" y="506" type="line"/>
      <point x="668" y="406" type="line"/>
    </contour>
    <contour>
      <point x="423" y="97" type="curve" smooth="yes"/>
      <point x="423" y="149"/>
      <point x="453" y="180"/>
      <point x="483" y="180" type="curve" smooth="yes"/>
      <point x="500" y="180"/>
      <point x="510" y="170"/>
      <point x="510" y="141" type="curve" smooth="yes"/>
      <point x="510" y="82"/>
      <point x="480" y="54"/>
      <point x="451" y="54" type="curve" smooth="yes"/>
      <point x="432" y="54"/>
      <point x="423" y="67"/>
    </contour>
    <contour>
      <point x="439" y="-13" type="curve" smooth="yes"/>
      <point x="532" y="-13"/>
      <point x="599" y="52"/>
      <point x="599" y="143" type="curve" smooth="yes"/>
      <point x="599" y="207"/>
      <point x="558" y="246"/>
      <point x="494" y="246" type="curve" smooth="yes"/>
      <point x="410" y="246"/>
      <point x="334" y="187"/>
      <point x="334" y="94" type="curve" smooth="yes"/>
      <point x="334" y="30"/>
      <point x="376" y="-13"/>
    </contour>
    <contour>
      <point x="152" y="-13" type="curve" smooth="yes"/>
      <point x="245" y="-13"/>
      <point x="312" y="52"/>
      <point x="312" y="143" type="curve" smooth="yes"/>
      <point x="312" y="207"/>
      <point x="271" y="246"/>
      <point x="207" y="246" type="curve" smooth="yes"/>
      <point x="123" y="246"/>
      <point x="47" y="187"/>
      <point x="47" y="94" type="curve" smooth="yes"/>
      <point x="47" y="30"/>
      <point x="89" y="-13"/>
    </contour>
    <contour>
      <point x="196" y="180" type="curve" smooth="yes"/>
      <point x="213" y="180"/>
      <point x="223" y="170"/>
      <point x="223" y="141" type="curve" smooth="yes"/>
      <point x="223" y="82"/>
      <point x="193" y="54"/>
      <point x="164" y="54" type="curve" smooth="yes"/>
      <point x="145" y="54"/>
      <point x="136" y="67"/>
      <point x="136" y="97" type="curve" smooth="yes"/>
      <point x="136" y="149"/>
      <point x="166" y="180"/>
    </contour>
    <contour>
      <point x="244" y="455" type="curve" smooth="yes"/>
      <point x="225" y="455"/>
      <point x="216" y="468"/>
      <point x="216" y="498" type="curve" smooth="yes"/>
      <point x="216" y="550"/>
      <point x="246" y="581"/>
      <point x="276" y="581" type="curve" smooth="yes"/>
      <point x="293" y="581"/>
      <point x="303" y="571"/>
      <point x="303" y="542" type="curve" smooth="yes"/>
      <point x="303" y="483"/>
      <point x="273" y="455"/>
    </contour>
    <contour>
      <point x="287" y="647" type="curve" smooth="yes"/>
      <point x="203" y="647"/>
      <point x="127" y="588"/>
      <point x="127" y="495" type="curve" smooth="yes"/>
      <point x="127" y="431"/>
      <point x="169" y="388"/>
      <point x="232" y="388" type="curve" smooth="yes"/>
      <point x="325" y="388"/>
      <point x="392" y="453"/>
      <point x="392" y="544" type="curve" smooth="yes"/>
      <point x="392" y="608"/>
      <point x="351" y="647"/>
    </contour>
  </outline>
</glyph>
<glyph name="guilsinglleft" format="1">
  <advance width="600"/>
  <unicode hex="2039"/>
  <outline>
    <contour>
      <point x="365" y="234" type="line"/>
      <point x="517" y="421" type="line"/>
      <point x="462" y="484" type="line"/>
      <point x="254" y="321" type="line"/>
      <point x="231" y="193" type="line"/>
      <point x="369" y="20" type="line"/>
      <point x="448" y="79" type="line"/>
      <point x="367" y="257" type="line"/>
    </contour>
  </outline>
</glyph>
<glyph name="fraction" format="1">
  <advance width="600"/>
  <unicode hex="2044"/>
  <outline>
    <contour>
      <point x="100" y="27" type="line"/>
      <point x="301" y="226" type="line"/>
      <point x="257" y="276" type="line"/>
      <point x="36" y="105" type="line"/>
    </contour>
    <contour>
      <point x="631" y="624" type="line"/>
      <point x="430" y="425" type="line"/>
      <point x="474" y="375" type="line"/>
      <point x="695" y="546" type="line"/>
    </contour>
  </outline>
</glyph>
<glyph name="colonmonetary" format="1">
  <advance width="600"/>
  <unicode hex="20A1"/>
  <outline>
    <contour>
      <point x="126" y="239" type="curve" smooth="yes"/>
      <point x="126" y="77"/>
      <point x="218" y="-12"/>
      <point x="363" y="-12" type="curve" smooth="yes"/>
      <point x="443" y="-12"/>
      <point x="518" y="12"/>
      <point x="585" y="70" type="curve"/>
      <point x="514" y="163" type="line"/>
      <point x="477" y="133"/>
      <point x="434" y="118"/>
      <point x="388" y="118" type="curve" smooth="yes"/>
      <point x="326" y="118"/>
      <point x="285" y="158"/>
      <point x="285" y="246" type="curve" smooth="yes"/>
      <point x="285" y="380"/>
      <point x="354" y="523"/>
      <point x="473" y="523" type="curve" smooth="yes"/>
      <point x="517" y="523"/>
      <point x="558" y="509"/>
      <point x="584" y="486" type="curve"/>
      <point x="670" y="567" type="line"/>
      <point x="631" y="616"/>
      <point x="568" y="647"/>
      <point x="483" y="647" type="curve" smooth="yes"/>
      <point x="279" y="647"/>
      <point x="126" y="490"/>
    </contour>
    <contour>
      <point x="209" y="-110" type="line"/>
      <point x="261" y="-110" type="line"/>
      <point x="533" y="745" type="line"/>
      <point x="482" y="745" type="line"/>
    </contour>
    <contour>
      <point x="298" y="-110" type="line"/>
      <point x="350" y="-110" type="line"/>
      <point x="622" y="745" type="line"/>
      <point x="571" y="745" type="line"/>
    </contour>
  </outline>
</glyph>
<glyph name="lira" format="1">
  <advance width="600"/>
  <unicode hex="20A4"/>
  <outline>
    <contour>
      <point x="278" y="136" type="line"/>
      <point x="356" y="173"/>
      <point x="385" y="216"/>
      <point x="385" y="285" type="curve" smooth="yes"/>
      <point x="385" y="322"/>
      <point x="375" y="360"/>
      <point x="376" y="421" type="curve" smooth="yes"/>
      <point x="377" y="491"/>
      <point x="413" y="527"/>
      <point x="465" y="527" type="curve" smooth="yes"/>
      <point x="505" y="527"/>
      <point x="532" y="503"/>
      <point x="556" y="477" type="curve"/>
      <point x="648" y="562" type="line"/>
      <point x="601" y="616"/>
      <point x="540" y="647"/>
      <point x="461" y="647" type="curve" smooth="yes"/>
      <point x="331" y="647"/>
      <point x="218" y="579"/>
      <point x="218" y="426" type="curve" smooth="yes"/>
      <point x="218" y="363"/>
      <point x="233" y="314"/>
      <point x="233" y="269" type="curve" smooth="yes"/>
      <point x="233" y="185"/>
      <point x="167" y="127"/>
      <point x="85" y="97" type="curve"/>
      <point x="66" y="0" type="line"/>
      <point x="552" y="0" type="line"/>
      <point x="580" y="132" type="line"/>
      <point x="278" y="132" type="line"/>
    </contour>
    <contour>
      <point x="138" y="339" type="line"/>
      <point x="527" y="339" type="line"/>
      <point x="543" y="417" type="line"/>
      <point x="231" y="417" type="line"/>
      <point x="152" y="412" type="line"/>
    </contour>
    <contour>
      <point x="113" y="214" type="line"/>
      <point x="502" y="214" type="line"/>
      <point x="518" y="292" type="line"/>
      <point x="206" y="292" type="line"/>
      <point x="127" y="287" type="line"/>
    </contour>
  </outline>
</glyph>
<glyph name="peseta" format="1">
  <advance width="599"/>
  <unicode hex="20A7"/>
  <outline>
    <contour>
      <point x="94" y="0" type="line"/>
      <point x="243" y="0" type="line"/>
      <point x="285" y="210" type="line"/>
      <point x="324" y="210" type="line" smooth="yes"/>
      <point x="473" y="210"/>
      <point x="618" y="289"/>
      <point x="618" y="465" type="curve" smooth="yes"/>
      <point x="618" y="589"/>
      <point x="534" y="635"/>
      <point x="409" y="635" type="curve" smooth="yes"/>
      <point x="221" y="635" type="line"/>
    </contour>
    <contour>
      <point x="305" y="310" type="line"/>
      <point x="350" y="536" type="line"/>
      <point x="380" y="536" type="line" smooth="yes"/>
      <point x="437" y="536"/>
      <point x="468" y="509"/>
      <point x="468" y="451" type="curve" smooth="yes"/>
      <point x="468" y="365"/>
      <point x="419" y="310"/>
      <point x="336" y="310" type="curve" smooth="yes"/>
    </contour>
    <contour>
      <point x="102" y="379" type="line"/>
      <point x="659" y="379" type="line"/>
      <point x="678" y="470" type="line"/>
      <point x="203" y="470" type="line"/>
      <point x="120" y="465" type="line"/>
    </contour>
  </outline>
</glyph>
<glyph name="dong" format="1">
  <advance width="600"/>
  <unicode hex="20AB"/>
  <outline>
    <contour>
      <point x="315" y="525" type="line"/>
      <point x="598" y="525" type="line"/>
      <point x="672" y="530" type="line"/>
      <point x="686" y="603" type="line"/>
      <point x="331" y="603" type="line"/>
    </contour>
    <contour>
      <point x="283" y="117" type="curve" smooth="yes"/>
      <point x="328" y="117"/>
      <point x="378" y="134"/>
      <point x="413" y="170" type="curve"/>
      <point x="417" y="170" type="line"/>
      <point x="419" y="127" type="line"/>
      <point x="519" y="127" type="line"/>
      <point x="623" y="649" type="line"/>
      <point x="494" y="649" type="line"/>
      <point x="467" y="512" type="line"/>
      <point x="459" y="447" type="line"/>
      <point x="436" y="470"/>
      <point x="407" y="486"/>
      <point x="359" y="486" type="curve" smooth="yes"/>
      <point x="253" y="486"/>
      <point x="144" y="406"/>
      <point x="144" y="262" type="curve" smooth="yes"/>
      <point x="144" y="169"/>
      <point x="196" y="117"/>
    </contour>
    <contour>
      <point x="336" y="220" type="curve" smooth="yes"/>
      <point x="301" y="220"/>
      <point x="281" y="240"/>
      <point x="281" y="283" type="curve" smooth="yes"/>
      <point x="281" y="349"/>
      <point x="330" y="381"/>
      <point x="372" y="381" type="curve" smooth="yes"/>
      <point x="399" y="381"/>
      <point x="418" y="374"/>
      <point x="436" y="358" type="curve"/>
      <point x="414" y="256" type="line"/>
      <point x="388" y="231"/>
      <point x="366" y="220"/>
    </contour>
    <contour>
      <point x="102" y="0" type="line"/>
      <point x="527" y="0" type="line"/>
      <point x="543" y="78" type="line"/>
      <point x="118" y="78" type="line"/>
    </contour>
  </outline>
</glyph>
<glyph name="Euro" format="1">
  <advance width="600"/>
  <unicode hex="20AC"/>
  <outline>
    <contour>
      <point x="101" y="338" type="line"/>
      <point x="539" y="338" type="line"/>
      <point x="554" y="417" type="line"/>
      <point x="192" y="417" type="line"/>
      <point x="116" y="411" type="line"/>
    </contour>
    <contour>
      <point x="76" y="212" type="line"/>
      <point x="473" y="212" type="line"/>
      <point x="489" y="291" type="line"/>
      <point x="166" y="291" type="line"/>
      <point x="91" y="285" type="line"/>
    </contour>
    <contour>
      <point x="149" y="237" type="curve" smooth="yes"/>
      <point x="149" y="75"/>
      <point x="236" y="-12"/>
      <point x="381" y="-12" type="curve" smooth="yes"/>
      <point x="461" y="-12"/>
      <point x="536" y="10"/>
      <point x="603" y="68" type="curve"/>
      <point x="532" y="163" type="line"/>
      <point x="495" y="133"/>
      <point x="455" y="119"/>
      <point x="409" y="119" type="curve" smooth="yes"/>
      <point x="347" y="119"/>
      <point x="311" y="160"/>
      <point x="311" y="245" type="curve" smooth="yes"/>
      <point x="311" y="390"/>
      <point x="372" y="523"/>
      <point x="491" y="523" type="curve" smooth="yes"/>
      <point x="535" y="523"/>
      <point x="567" y="511"/>
      <point x="593" y="488" type="curve"/>
      <point x="688" y="566" type="line"/>
      <point x="649" y="615"/>
      <point x="586" y="647"/>
      <point x="501" y="647" type="curve" smooth="yes"/>
      <point x="297" y="647"/>
      <point x="149" y="498"/>
    </contour>
  </outline>
</glyph>
<glyph name="trademark" format="1">
  <advance width="600"/>
  <unicode hex="2122"/>
  <outline>
    <contour>
      <point x="342" y="361" type="line"/>
      <point x="431" y="361" type="line"/>
      <point x="449" y="450" type="line"/>
      <point x="462" y="568" type="line"/>
      <point x="466" y="568" type="line"/>
      <point x="484" y="425" type="line"/>
      <point x="545" y="425" type="line"/>
      <point x="620" y="568" type="line"/>
      <point x="624" y="568" type="line"/>
      <point x="589" y="450" type="line"/>
      <point x="572" y="361" type="line"/>
      <point x="661" y="361" type="line"/>
      <point x="724" y="676" type="line"/>
      <point x="615" y="676" type="line"/>
      <point x="568" y="586" type="line"/>
      <point x="535" y="516" type="line"/>
      <point x="531" y="516" type="line"/>
      <point x="525" y="586" type="line"/>
      <point x="514" y="676" type="line"/>
      <point x="405" y="676" type="line"/>
    </contour>
    <contour>
      <point x="299" y="601" type="line"/>
      <point x="202" y="601" type="line"/>
      <point x="153" y="361" type="line"/>
      <point x="251" y="361" type="line"/>
    </contour>
    <contour>
      <point x="365" y="593" type="curve"/>
      <point x="381" y="676" type="line"/>
      <point x="149" y="676" type="line"/>
      <point x="131" y="593" type="line"/>
      <point x="131" y="593"/>
      <point x="365" y="593"/>
    </contour>
  </outline>
</glyph>
